<svg width="47" height="47" viewBox="0 0 47 47" fill="none" xmlns="http://www.w3.org/2000/svg">
<g clip-path="url(#clip0_35_3)">
<path d="M47 35.0671V36.9946C46.9657 37.0936 46.9379 37.1948 46.9168 37.2974C46.2448 41.7201 43.8202 44.7523 39.6489 46.3487C38.8044 46.6724 37.8815 46.7889 36.9941 46.9998H35.0664C34.9658 46.9672 34.8631 46.941 34.7592 46.9213C31.3052 46.4885 28.6296 44.8026 26.7166 41.9052C26.5391 41.6379 26.3898 41.5717 26.0581 41.6244C24.642 41.8513 23.2222 42.148 21.7975 42.197C17.013 42.3626 12.6349 41.0604 8.76599 38.2268C4.23 34.9065 1.39654 30.474 0.357397 24.9295C0.206851 24.1227 0.112604 23.3048 0 22.4919V19.738C0.0269271 19.6154 0.0575265 19.5063 0.0807817 19.3874C0.367188 17.8755 0.506717 16.322 0.962029 14.8507C4.18838 4.50583 14.5627 -1.6616 25.1842 0.382354C36.8938 2.63721 44.4468 14.3884 41.644 26.0085C41.5632 26.3432 41.5999 26.5185 41.9034 26.7135C44.1494 28.1554 45.6977 30.1466 46.4835 32.7031C46.7197 33.4744 46.8311 34.2799 47 35.0671ZM35.7543 24.9589C37.5412 18.2569 34.4238 11.084 28.3395 7.80779C22.1328 4.46537 14.4427 5.79939 9.83695 11.0203C5.14185 16.3404 4.67675 24.0749 8.68276 29.7604C12.925 35.7819 20.0435 37.2067 24.8158 35.7611C25.096 34.5411 25.3616 33.3849 25.6297 32.2311C25.6587 32.1278 25.6968 32.0272 25.7435 31.9307C25.9748 31.4096 26.4522 31.1876 26.9344 31.3765C27.4167 31.5653 27.5978 32.03 27.462 32.5817C27.2257 33.5406 26.8904 34.5031 26.8365 35.4779C26.5183 41.2174 31.3945 45.7528 37.1018 45.0883C42.6097 44.4458 46.3219 38.9392 44.8434 33.5847C44.5074 32.3557 43.9204 31.2098 43.1196 30.2197C42.3189 29.2295 41.3217 28.4166 40.1912 27.8323C39.0608 27.2481 37.8215 26.9051 36.552 26.8253C35.2824 26.7454 34.0101 26.9303 32.8155 27.3682C32.6055 27.4564 32.382 27.5083 32.1546 27.5215C31.7348 27.5215 31.3786 27.1622 31.3138 26.7441C31.2489 26.326 31.4888 25.9226 31.9453 25.7399C33.162 25.2664 34.4498 25.0024 35.7543 24.9589ZM39.808 25.6173C41.5864 19.1618 39.4849 9.81742 31.1473 4.6689C23.2454 -0.211093 12.75 1.37552 6.68771 8.34729C0.39534 15.5815 0.20073 26.1115 6.23484 33.353C9.36818 37.1086 13.3632 39.3917 18.1954 40.1666C20.6674 40.5698 23.1958 40.4597 25.6236 39.8429L25.0557 37.6677C14.619 40.1617 4.6082 32.4101 4.15289 21.9034C3.71838 11.8638 11.8638 3.71988 21.9003 4.15883C32.4875 4.61986 40.1703 14.7232 37.6649 25.0594L39.808 25.6173Z" fill="#6C10C6"/>
<path d="M32.5402 38.6587C33.2121 38.6587 33.7739 38.6587 34.3345 38.6587C34.5019 38.6534 34.6693 38.6661 34.8339 38.6967C35.0528 38.7413 35.2468 38.8672 35.3768 39.0492C35.5069 39.2311 35.5635 39.4556 35.5352 39.6776C35.5209 39.8953 35.4244 40.0994 35.2652 40.2483C35.1061 40.3973 34.8962 40.4799 34.6784 40.4795C33.4545 40.4966 32.2305 40.5003 31.0066 40.4795C30.3689 40.4697 29.927 39.8934 30.1755 39.3085C30.4861 38.5809 30.8743 37.889 31.3334 37.2449C31.8719 36.4884 32.5255 35.814 33.1252 35.1017C33.2768 34.9334 33.4144 34.753 33.5365 34.5622C33.7984 34.1146 33.6699 33.6867 33.2232 33.439C32.7764 33.1914 32.3052 33.3164 32.0665 33.7922C31.9784 33.9687 31.9356 34.1686 31.8474 34.3439C31.7488 34.5457 31.5787 34.7034 31.3702 34.7861C31.1617 34.8689 30.93 34.8708 30.7202 34.7915C30.5183 34.7157 30.3492 34.5717 30.2422 34.3843C30.1351 34.1969 30.0968 33.9779 30.1339 33.7652C30.364 32.4643 31.4802 31.4883 32.7421 31.4821C33.3893 31.4714 34.0193 31.6904 34.5207 32.1004C35.022 32.5104 35.3624 33.085 35.4814 33.7223C35.6319 34.5977 35.3112 35.3481 34.7641 36.0078C34.2562 36.6208 33.7201 37.2069 33.2048 37.8102C32.9979 38.0481 32.8119 38.3092 32.5402 38.6587Z" fill="#6C10C6"/>
<path d="M40.0235 37.3552C39.1765 37.3552 38.3846 37.3552 37.5927 37.3552C36.7237 37.3552 36.3687 36.9997 36.4495 36.1524C36.5719 34.9042 36.709 33.6597 36.8644 32.4152C36.9465 31.7469 37.3614 31.4085 37.9281 31.4882C38.4556 31.563 38.7396 32.0044 38.6722 32.6555C38.5768 33.5677 38.4805 34.4796 38.3834 35.391C38.3834 35.4167 38.4017 35.4449 38.4201 35.4964H40.0235V33.5812C40.0235 33.168 40.0112 32.7548 40.0308 32.3428C40.0366 32.1189 40.1272 31.9056 40.2843 31.7461C40.4414 31.5867 40.6531 31.4932 40.8766 31.4845C41.108 31.4668 41.3373 31.5385 41.5176 31.6849C41.6979 31.8313 41.8154 32.0413 41.846 32.2717C41.8578 32.3628 41.8623 32.4546 41.8594 32.5464C41.8594 34.8392 41.8594 37.1329 41.8594 39.4274C41.8594 39.859 41.737 40.2109 41.3221 40.4083C40.7187 40.6989 40.0492 40.2857 40.0284 39.5856C40.0051 38.8658 40.0235 38.1473 40.0235 37.3552Z" fill="#6C10C6"/>
<path d="M22.0312 18.1528C22.0312 19.07 22.0655 19.992 22.0128 20.9018C21.992 21.2582 21.8577 21.5985 21.6297 21.8729C20.8782 22.6969 20.0704 23.4669 19.2761 24.2504C18.8244 24.6967 18.2785 24.731 17.893 24.362C17.5075 23.9929 17.5258 23.4142 17.9836 22.947C18.6164 22.3008 19.2724 21.6878 19.8856 21.0257C20.0611 20.831 20.1655 20.5824 20.1818 20.3206C20.2075 18.6249 20.1879 16.9292 20.1989 15.2334C20.1989 14.4573 20.915 13.9963 21.5453 14.3469C21.9002 14.5443 22.0349 14.8644 22.0349 15.2653C22.0312 16.2278 22.0312 17.1903 22.0312 18.1528Z" fill="#6C10C6"/>
<path d="M22.0313 10.3301C22.0313 10.7114 22.0435 11.0928 22.0313 11.4729C22.0357 11.5957 22.0155 11.7182 21.9716 11.8331C21.9278 11.9479 21.8613 12.0527 21.7761 12.1412C21.691 12.2297 21.5889 12.3001 21.4759 12.3482C21.363 12.3963 21.2415 12.421 21.1188 12.421C20.9961 12.421 20.8746 12.3963 20.7617 12.3482C20.6487 12.3001 20.5466 12.2297 20.4614 12.1412C20.3763 12.0527 20.3098 11.9479 20.2659 11.8331C20.2221 11.7182 20.2018 11.5957 20.2063 11.4729C20.1892 10.7119 20.1892 9.95043 20.2063 9.18859C20.2018 9.06574 20.2221 8.94324 20.2659 8.82841C20.3098 8.71358 20.3763 8.60878 20.4614 8.52027C20.5466 8.43177 20.6487 8.36137 20.7617 8.31328C20.8746 8.2652 20.9961 8.24042 21.1188 8.24042C21.2415 8.24042 21.363 8.2652 21.4759 8.31328C21.5889 8.36137 21.691 8.43177 21.7761 8.52027C21.8613 8.60878 21.9278 8.71358 21.9716 8.82841C22.0155 8.94324 22.0357 9.06574 22.0313 9.18859C22.0423 9.56869 22.0313 9.95002 22.0313 10.3301Z" fill="#6C10C6"/>
<path d="M10.3021 22.0323C9.93487 22.0323 9.56769 22.0433 9.2005 22.0323C8.64849 22.0115 8.2605 21.624 8.26172 21.1152C8.26295 20.6063 8.65216 20.2152 9.20539 20.2054C9.95201 20.1907 10.6986 20.1907 11.4452 20.2054C11.996 20.2164 12.3865 20.6124 12.3852 21.1201C12.384 21.6277 11.9936 22.0127 11.4403 22.0323C11.0634 22.0433 10.6827 22.0323 10.3021 22.0323Z" fill="#6C10C6"/>
<path d="M31.8719 22.0323C31.5047 22.0323 31.1375 22.0433 30.7703 22.0323C30.2183 22.0115 29.8303 21.6216 29.8328 21.1127C29.8352 20.6039 30.2244 20.2152 30.7789 20.2054C31.5255 20.1907 32.2721 20.1907 33.0187 20.2054C33.1409 20.2019 33.2626 20.2231 33.3764 20.2677C33.4903 20.3123 33.594 20.3794 33.6815 20.4649C33.769 20.5505 33.8384 20.6528 33.8856 20.7658C33.9328 20.8787 33.9568 21.0001 33.9563 21.1225C33.9563 21.6301 33.5622 22.0066 33.0102 22.0348H31.8719V22.0323Z" fill="#6C10C6"/>
<path d="M22.0313 31.9051C22.0313 32.2864 22.0447 32.6678 22.0313 33.0479C22.035 33.1707 22.0141 33.2931 21.9696 33.4076C21.9251 33.5222 21.8581 33.6266 21.7724 33.7146C21.6868 33.8026 21.5843 33.8724 21.4711 33.9199C21.358 33.9673 21.2364 33.9914 21.1137 33.9908C20.991 33.9901 20.8697 33.9647 20.7571 33.916C20.6444 33.8674 20.5427 33.7964 20.458 33.7075C20.3733 33.6186 20.3074 33.5135 20.2641 33.3985C20.2209 33.2834 20.2012 33.1609 20.2063 33.0381C20.1892 32.2771 20.1892 31.5152 20.2063 30.7526C20.2047 30.513 20.2977 30.2825 20.4651 30.1113C20.6325 29.9402 20.8607 29.8423 21.0998 29.8391C21.6078 29.8281 22.0007 30.2167 22.0349 30.7624C22.0349 30.793 22.0349 30.8237 22.0349 30.8543V31.9051H22.0313Z" fill="#6C10C6"/>
<path d="M30.4655 12.4746C30.4765 13.2361 29.1363 14.6277 28.5745 14.5468C28.2594 14.476 27.9781 14.2989 27.7777 14.0453C27.5537 13.7707 27.6088 13.3856 27.8511 13.1147C28.2152 12.706 28.6027 12.3187 29.0114 11.9548C29.1322 11.833 29.2919 11.7579 29.4626 11.7426C29.6332 11.7274 29.8037 11.773 29.9441 11.8714C30.1925 12.0528 30.3541 12.3459 30.4655 12.4746Z" fill="#6C10C6"/>
<path d="M14.6606 13.7179C14.4636 13.9631 14.3045 14.2623 14.0597 14.4475C13.9221 14.5496 13.7529 14.5997 13.582 14.5889C13.4111 14.5782 13.2495 14.5072 13.1258 14.3886C12.7007 14.0196 12.3035 13.6196 11.9373 13.1919C11.6497 12.851 11.6925 12.4562 11.974 12.1019C12.2372 11.7708 12.7182 11.6114 13.0328 11.8567C13.5578 12.2809 14.0119 12.7971 14.4795 13.2888C14.5529 13.3648 14.5468 13.5181 14.5762 13.6358L14.6606 13.7179Z" fill="#6C10C6"/>
<path d="M12.5676 30.5245C12.3681 30.37 12.0694 30.2131 11.8809 29.9703C11.7768 29.834 11.725 29.6648 11.7351 29.4935C11.7452 29.3222 11.8165 29.1602 11.936 29.0372C12.3041 28.6116 12.7025 28.2133 13.1281 27.8454C13.4672 27.5585 13.8699 27.6002 14.2224 27.8724C14.5418 28.1176 14.7119 28.6301 14.4671 28.933C14.0424 29.4578 13.5271 29.9139 13.0351 30.3798C12.9605 30.4546 12.8111 30.4534 12.5676 30.5245Z" fill="#6C10C6"/>
<path d="M29.7507 28.8717C29.749 28.9934 29.7225 29.1136 29.6729 29.2247C29.6233 29.3358 29.5515 29.4357 29.462 29.5181C29.3725 29.6005 29.2672 29.6637 29.1525 29.704C29.0378 29.7442 28.9161 29.7606 28.7948 29.752C28.5575 29.7397 28.3342 29.6355 28.1721 29.4614C28.01 29.2873 27.9217 29.057 27.9258 28.819C27.9381 28.581 28.0401 28.3565 28.2112 28.1908C28.3822 28.0252 28.6096 27.9307 28.8474 27.9263C28.969 27.9281 29.089 27.954 29.2004 28.0026C29.3119 28.0513 29.4126 28.1216 29.4966 28.2096C29.5807 28.2975 29.6464 28.4014 29.6901 28.5151C29.7337 28.6287 29.7543 28.7499 29.7507 28.8717Z" fill="#6C10C6"/>
</g>
<defs>
<clipPath id="clip0_35_3">
<rect width="47" height="47" fill="white"/>
</clipPath>
</defs>
</svg>
