<svg width="57" height="58" viewBox="0 0 57 58" fill="none" xmlns="http://www.w3.org/2000/svg">
<g clip-path="url(#clip0_30_35)">
<path d="M40.9948 40.5973C44.478 38.7823 47.8811 37.0109 51.2907 35.2282C52.1331 34.7877 53.0075 34.5603 53.9524 34.7442C54.6917 34.8716 55.3744 35.2248 55.9079 35.756C56.4414 36.2871 56.7999 36.9706 56.935 37.7139C57.0701 38.4572 56.9752 39.2243 56.6631 39.9115C56.3511 40.5986 55.8369 41.1725 55.1903 41.5556C53.3534 42.6591 51.4909 43.7206 49.6396 44.7967C45.4661 47.222 41.2937 49.6468 37.1224 52.0711C35.3512 53.1052 33.4822 53.0681 31.5364 52.7648C27.7633 52.176 23.979 51.6484 20.1963 51.1273C19.8072 51.0741 19.3956 51.237 18.8687 51.3177C19.0801 51.6807 19.189 51.8694 19.2979 52.0517C19.8168 52.889 19.7527 53.1633 18.9055 53.7038L14.3397 56.6077C13.8 56.9514 13.2603 57.2982 12.7174 57.6402C11.819 58.2065 11.5963 58.1565 11.0342 57.2692L2.30454 43.4028C1.6207 42.3138 0.933669 41.2281 0.25464 40.1375C-0.15534 39.4792 -0.0880749 39.1388 0.547714 38.7323C2.74175 37.3341 4.93951 35.9359 7.14102 34.5377C7.72876 34.1666 8.07309 34.2424 8.44944 34.8216C8.89785 35.5121 9.34947 36.201 9.75785 36.9189C9.98526 37.319 10.1999 37.4158 10.6595 37.2513C13.5966 36.201 16.5561 35.2153 19.4885 34.1537C21.1697 33.5231 23.0178 33.5099 24.7077 34.1166C29.3424 35.7009 33.984 37.2647 38.6326 38.8081C39.6207 39.1259 40.4343 39.6567 40.9948 40.5973ZM18.1096 50.1529C18.353 49.984 18.6114 49.8382 18.8815 49.7173C19.2018 49.606 19.5717 49.4769 19.8952 49.5221C24.0965 50.1093 28.2934 50.7159 32.4861 51.3419C33.857 51.5452 35.1542 51.4209 36.3729 50.7127C42.3518 47.2409 48.3264 43.7701 54.2967 40.3004C55.4065 39.6551 55.7733 38.4064 55.2079 37.3432C54.6426 36.28 53.3855 35.8912 52.2468 36.4833C48.7588 38.2773 45.2798 40.0907 41.8099 41.9234C41.7253 41.9763 41.6529 42.0469 41.5977 42.1304C41.5424 42.2139 41.5056 42.3083 41.4896 42.4074C41.283 45.129 38.9081 46.7343 36.3345 45.8728L31.0496 44.0981L26.101 42.4203C25.6205 42.259 25.3451 41.9621 25.4796 41.4249C25.5981 40.9586 26.0225 40.7941 26.6006 40.9667C26.6775 40.9893 26.7512 41.0216 26.8265 41.0458C30.1992 42.1815 33.5719 43.3162 36.9446 44.4498C38.1361 44.8483 39.491 44.1804 39.8769 43.0301C40.2389 41.9508 39.5775 40.7537 38.3523 40.3391C33.5607 38.7161 28.7627 37.1125 23.9726 35.4879C22.7525 35.0624 21.4236 35.0761 20.2123 35.5266C18.2345 36.23 16.2471 36.9076 14.2644 37.5997C13.177 37.9789 12.0928 38.3628 10.9525 38.7645C13.3484 42.5849 15.709 46.339 18.1096 50.1529ZM1.81929 39.7341L12.1681 56.1689L17.8229 52.5632L7.47573 36.1365L1.81929 39.7341Z" fill="#6C10C6"/>
<path d="M46.4862 31.2127C45.213 31.7112 44.0583 32.1516 42.9165 32.6356C42.7916 32.6889 42.6955 32.9212 42.6699 33.0841C42.6074 33.4987 42.6458 33.9327 42.5498 34.3377C42.4476 34.7934 42.2021 35.2037 41.8498 35.5075C41.4974 35.8113 41.0571 35.9923 40.5943 36.0236C39.394 36.0866 38.1913 36.0866 36.991 36.0236C35.7947 35.9542 34.9843 34.9765 34.9203 33.6891C34.8722 32.7066 34.869 32.7211 33.9226 32.3775C33.4517 32.2162 32.9905 32.0161 32.5341 31.8112C32.0776 31.6063 31.6741 31.3918 31.0927 31.1094C30.9055 31.3783 30.6995 31.6333 30.4762 31.8725C30.2604 32.092 30.0036 32.2662 29.7206 32.3851C29.4376 32.5039 29.1341 32.5652 28.8274 32.5652C28.5208 32.5652 28.2173 32.5039 27.9343 32.3851C27.6513 32.2662 27.3945 32.092 27.1787 31.8725C26.4709 31.1917 25.7822 30.4883 25.0968 29.7752C24.0734 28.7201 24.083 27.3553 25.1192 26.2856C25.3146 26.084 25.542 25.9162 25.6781 25.8016C25.1849 24.511 24.7397 23.3397 24.272 22.1717C24.2337 22.1097 24.1827 22.0565 24.1226 22.0156C24.0624 21.9747 23.9944 21.9471 23.9229 21.9346C23.6838 21.9143 23.4436 21.9095 23.2038 21.92C21.897 21.8765 20.9441 21.0246 20.8689 19.7195C20.8072 18.6142 20.8072 17.5062 20.8689 16.4009C20.9409 15.0538 21.9355 14.1213 23.2951 14.1778C24.0318 14.2068 24.3089 13.9697 24.5154 13.2711C24.8021 12.3031 25.273 11.3803 25.7326 10.2752C25.4657 10.0868 25.214 9.8775 24.9799 9.64922C24.5635 9.21602 24.3319 8.63592 24.3346 8.03295C24.3373 7.42999 24.5741 6.85201 24.9943 6.4226C25.7192 5.64499 26.4693 4.89211 27.2444 4.16397C28.186 3.27666 29.4865 3.29924 30.4473 4.17688C30.6142 4.32186 30.7705 4.47875 30.915 4.64635C31.1136 4.89319 31.2945 4.88835 31.5828 4.75767C32.5437 4.32046 33.5382 3.95102 34.5007 3.51059C34.6963 3.39142 34.8387 3.20065 34.8979 2.97819C34.9699 2.71522 34.9123 2.41838 34.9427 2.13927C34.993 1.57104 35.2495 1.04144 35.6632 0.651812C36.0769 0.262185 36.6186 0.0398894 37.1848 0.0274559C38.245 -0.00158361 39.3057 -0.00158361 40.3669 0.0274559C41.6673 0.0629487 42.609 1.07288 42.6554 2.42483C42.6859 3.37991 42.6955 3.35571 43.6163 3.70418C44.3829 3.99078 45.1316 4.32372 45.8584 4.70121C46.2572 4.91094 46.4862 4.86254 46.7649 4.53988C47.4743 3.7187 48.4096 3.17179 49.4201 3.67998C51.0017 4.47711 52.2857 5.76716 53.0811 7.35832C53.5519 8.28759 53.1131 9.22169 52.3444 9.89928C51.9184 10.2768 51.8544 10.5736 52.141 11.1028C52.5481 11.8628 52.8765 12.6629 53.1211 13.4905C53.2813 14.0374 53.5279 14.2488 54.082 14.1681C54.3211 14.1415 54.563 14.1546 54.7979 14.2068C55.3358 14.3036 55.8229 14.5876 56.1741 15.0092C56.5253 15.4309 56.7184 15.9634 56.7197 16.5138C56.7421 17.4818 56.7309 18.4498 56.7197 19.4178C56.7085 20.944 55.7588 21.9523 54.2518 21.912C53.5439 21.8942 53.2701 22.1072 53.0699 22.7977C52.788 23.7657 52.3108 24.6917 51.8159 25.8759C52.0258 25.9782 52.2217 26.1072 52.3989 26.2598C53.5023 27.3714 53.5103 28.7137 52.4309 29.8301C51.7903 30.4937 51.139 31.1481 50.4771 31.7935C49.4073 32.8389 48.0749 32.8453 47.0035 31.8112C46.7889 31.5902 46.5999 31.345 46.4862 31.2127ZM51.7535 8.06979C51.6366 7.83263 51.5933 7.62129 51.4572 7.48739C50.7477 6.7501 50.0335 6.01605 49.2936 5.30942C48.9156 4.94965 48.4929 4.98676 48.1149 5.35298C47.7674 5.68694 47.4327 6.0338 47.0932 6.37582C46.7536 6.71784 46.4029 6.7743 46.0074 6.52424C44.6988 5.7024 43.265 5.10286 41.7634 4.7496C41.5742 4.71722 41.4038 4.615 41.2853 4.46288C41.1669 4.31075 41.109 4.11964 41.1228 3.92682C41.1228 3.44283 41.1308 2.95883 41.1228 2.47484C41.1052 1.87147 40.8298 1.57623 40.2452 1.56816C39.2843 1.55203 38.3234 1.55364 37.3625 1.56816C36.778 1.56816 36.4881 1.86824 36.4609 2.46516C36.4417 2.90721 36.4385 3.35087 36.4609 3.79291C36.4865 4.34467 36.2479 4.66571 35.7146 4.78832C34.2662 5.12262 32.8844 5.70136 31.6276 6.50004C31.184 6.77914 30.7997 6.71623 30.4425 6.33871C30.1367 6.01605 29.8276 5.70468 29.5073 5.40138C29.0364 4.95288 28.6585 4.93836 28.2021 5.38041C27.5241 6.03649 26.8584 6.70547 26.205 7.38736C25.7646 7.84554 25.7742 8.23273 26.205 8.70543C26.5045 9.02809 26.8184 9.33946 27.1371 9.64599C27.5054 10.0041 27.5759 10.3865 27.2972 10.835C26.4993 12.1144 25.9221 13.5206 25.59 14.9941C25.4827 15.4781 25.1721 15.7072 24.6852 15.7056C24.2448 15.7056 23.8044 15.7056 23.364 15.7056C22.6994 15.7169 22.3935 15.9944 22.3839 16.6445C22.3679 17.5706 22.3679 18.4966 22.3839 19.4226C22.3951 20.068 22.693 20.3648 23.3544 20.3906C23.814 20.4084 24.2752 20.4019 24.7364 20.3906C25.1977 20.3793 25.4875 20.6278 25.59 21.0763C25.9218 22.5498 26.499 23.9561 27.2972 25.2354C27.5743 25.6823 27.5166 26.0646 27.1371 26.4244C26.8056 26.747 26.4821 27.0697 26.1618 27.4069C25.7774 27.8038 25.7502 28.2297 26.1377 28.6314C26.82 29.3391 27.514 30.0382 28.2197 30.7287C28.6152 31.1159 29.0444 31.1046 29.4464 30.7287C29.7838 30.4136 30.11 30.0871 30.4249 29.7494C30.8013 29.3445 31.1936 29.3154 31.6565 29.6058C32.913 30.3973 34.2931 30.9694 35.7386 31.2982C36.2191 31.4079 36.4481 31.7031 36.4369 32.2016C36.4257 32.6647 36.4209 33.1277 36.4369 33.5907C36.4593 34.1892 36.738 34.5054 37.3193 34.5216C38.2802 34.549 39.2411 34.5474 40.202 34.5216C40.8153 34.5054 41.086 34.1876 41.0988 33.5536C41.11 33.1115 41.11 32.6679 41.0988 32.2258C41.0892 31.7338 41.3086 31.4192 41.7858 31.3046C43.2749 30.9684 44.6971 30.3821 45.9929 29.5703C46.3949 29.317 46.7488 29.3735 47.0771 29.6978C47.4054 30.0221 47.7482 30.3899 48.1005 30.7174C48.5361 31.1239 48.9381 31.1272 49.3673 30.7174C50.0591 30.0463 50.7349 29.3606 51.406 28.6685C51.7903 28.2716 51.7903 27.8425 51.406 27.4375C51.0857 27.0858 50.7333 26.7487 50.3922 26.4082C50.0511 26.0678 49.9902 25.7178 50.2321 25.3177C51.0452 24.0004 51.6402 22.5586 51.9937 21.0488C52.022 20.8558 52.1229 20.6811 52.2755 20.561C52.4282 20.4408 52.6209 20.3844 52.8137 20.4035C53.2941 20.4035 53.7745 20.418 54.255 20.3955C54.8796 20.3648 55.1582 20.0728 55.1662 19.4404C55.1758 18.495 55.179 17.548 55.1662 16.6026C55.1566 16.0105 54.8652 15.7314 54.2694 15.7136C53.8098 15.7007 53.3486 15.704 52.8889 15.7136C52.4085 15.7136 52.0882 15.4942 51.9793 15.0119C51.634 13.521 51.047 12.0978 50.2417 10.7995C50.1237 10.6337 50.0724 10.429 50.0983 10.2266C50.1242 10.0242 50.2252 9.83924 50.381 9.70891C50.7093 9.38625 51.0472 9.06359 51.3515 8.72157C51.5041 8.51656 51.6386 8.29846 51.7535 8.06979Z" fill="#6C10C6"/>
<path d="M38.7639 27.4875C37.5214 27.4861 36.2916 27.2366 35.1455 26.7533C33.9994 26.2701 32.9598 25.5627 32.0867 24.6722C31.2137 23.7816 30.5246 22.7255 30.0594 21.565C29.5941 20.4044 29.3618 19.1625 29.376 17.9109C29.4064 12.7758 33.6776 8.5699 38.8439 8.58764C44.0103 8.60539 48.2014 12.8516 48.2014 18.0206C48.2031 19.2677 47.9599 20.5028 47.4857 21.6548C47.0116 22.8068 46.3158 23.8529 45.4386 24.7329C44.5614 25.6128 43.52 26.3092 42.3744 26.782C41.2289 27.2548 40.0018 27.4946 38.7639 27.4875ZM45.1954 22.5799C47.5752 19.4646 46.9779 14.6988 43.9303 12.0563C42.4009 10.7238 40.4207 10.0363 38.4012 10.1367C36.3818 10.237 34.4783 11.1175 33.0866 12.5951C30.1591 15.6749 30.4666 20.1776 32.4076 22.5621C33.4646 21.5296 34.757 21.215 36.1983 21.2553C37.8574 21.3005 39.5198 21.307 41.1773 21.2553C42.6747 21.2037 44.0376 21.4699 45.1954 22.5799ZM44.1689 23.7382C43.6628 23.2171 43.0607 22.8509 42.3368 22.8428C39.9794 22.8149 37.6209 22.8149 35.2614 22.8428C34.9042 22.8495 34.5529 22.9364 34.2332 23.0971C33.9135 23.2579 33.6334 23.4885 33.4133 23.7721C36.4417 26.8083 41.5585 26.5244 44.1689 23.7382Z" fill="#6C10C6"/>
<path d="M38.7527 20.71C37.977 20.7026 37.2208 20.4636 36.58 20.0231C35.9392 19.5826 35.4426 18.9604 35.1529 18.2355C34.8633 17.5105 34.7936 16.7152 34.9528 15.9503C35.112 15.1855 35.4929 14.4854 36.0473 13.9387C36.6016 13.392 37.3046 13.0232 38.067 12.8792C38.8295 12.7351 39.6173 12.8221 40.3306 13.1293C41.044 13.4364 41.6508 13.9499 42.0744 14.6046C42.4979 15.2594 42.7191 16.026 42.71 16.8074C42.7071 17.3262 42.6021 17.8392 42.4012 18.3169C42.2003 18.7945 41.9073 19.2273 41.5394 19.5902C41.1714 19.9531 40.7356 20.2389 40.2573 20.4311C39.779 20.6234 39.2676 20.7181 38.7527 20.71ZM36.3969 16.772C36.3969 17.4138 36.65 18.0293 37.1005 18.4831C37.551 18.937 38.162 19.1919 38.7991 19.1919C39.4342 19.1799 40.0397 18.9197 40.4879 18.4664C40.9361 18.0131 41.1919 17.402 41.2014 16.7623C41.1999 16.4451 41.1361 16.1314 41.0136 15.8392C40.8911 15.547 40.7123 15.2822 40.4876 15.06C40.2629 14.8379 39.9967 14.6628 39.7044 14.5448C39.4121 14.4269 39.0996 14.3685 38.7847 14.373C38.4704 14.3675 38.1583 14.4258 37.8668 14.5444C37.5753 14.663 37.3106 14.8395 37.0882 15.0634C36.8659 15.2872 36.6905 15.5538 36.5726 15.8474C36.4546 16.1409 36.3965 16.4553 36.4017 16.772H36.3969Z" fill="#6C10C6"/>
</g>
<defs>
<clipPath id="clip0_30_35">
<rect width="57" height="58" fill="white"/>
</clipPath>
</defs>
</svg>
