<svg width="14" height="14" viewBox="0 0 14 14" fill="none" xmlns="http://www.w3.org/2000/svg">
<path d="M12.4706 13.9505C10.9558 13.8255 9.49958 13.4257 8.10208 12.7509C6.70472 12.0762 5.43951 11.1711 4.30646 10.0355C3.17354 8.89983 2.27667 7.63802 1.61583 6.2501C0.954998 4.86233 0.555137 3.41101 0.416248 1.89615C0.388471 1.60212 0.473818 1.3467 0.67229 1.1299C0.870623 0.91309 1.11861 0.804688 1.41625 0.804688H3.5925C3.84458 0.804688 4.06146 0.880313 4.24312 1.03156C4.42479 1.18267 4.55139 1.38003 4.62292 1.62365L5.05896 3.36719C5.09201 3.55302 5.0816 3.73462 5.02771 3.91198C4.97368 4.08934 4.88576 4.23358 4.76396 4.34469L2.83937 6.21823C3.1491 6.79934 3.49257 7.34635 3.86979 7.85927C4.24687 8.37205 4.66014 8.85163 5.10958 9.29802C5.55333 9.74163 6.03271 10.1525 6.54771 10.5307C7.06271 10.9089 7.61882 11.253 8.21604 11.5628L10.1902 9.6349C10.3067 9.51309 10.4403 9.43184 10.591 9.39115C10.7416 9.35059 10.9099 9.3442 11.0958 9.37198L12.764 9.73906C13.016 9.80851 13.2156 9.9367 13.3625 10.1236C13.5094 10.3106 13.5829 10.5328 13.5829 10.7903V12.9505C13.5829 13.2482 13.471 13.4961 13.2473 13.6945C13.0235 13.893 12.7647 13.9783 12.4706 13.9505ZM2.35208 5.16052L3.92271 3.65406C3.94937 3.63267 3.96673 3.6033 3.97479 3.56594C3.98285 3.52858 3.98153 3.49385 3.97083 3.46177L3.60521 2.01615C3.59451 1.97351 3.57583 1.94149 3.54917 1.9201C3.5225 1.89871 3.48778 1.88802 3.445 1.88802H1.64542C1.61333 1.88802 1.5866 1.89871 1.56521 1.9201C1.54396 1.94149 1.53333 1.96823 1.53333 2.00031C1.57597 2.52809 1.66917 3.05448 1.81292 3.57948C1.95653 4.10462 2.13625 4.63163 2.35208 5.16052ZM9.31042 12.0707C9.80861 12.2899 10.3295 12.4564 10.8731 12.5701C11.4169 12.6837 11.9216 12.7673 12.3873 12.8207C12.4194 12.8207 12.4461 12.81 12.4675 12.7886C12.4889 12.7673 12.4996 12.7405 12.4996 12.7084V10.9136C12.4996 10.8709 12.4889 10.8361 12.4675 10.8095C12.4461 10.7828 12.4141 10.7641 12.3715 10.7534L11.0173 10.4601C10.9852 10.4494 10.9572 10.4481 10.9331 10.4561C10.9091 10.4642 10.8837 10.4816 10.8569 10.5082L9.31042 12.0707Z" fill="#C890FF"/>
</svg>
