<svg width="674" height="738" viewBox="0 0 674 738" fill="none" xmlns="http://www.w3.org/2000/svg">
<ellipse cx="330.381" cy="716.613" rx="330.381" ry="21.3871" fill="black" fill-opacity="0.29"/>
<g clip-path="url(#clip0_92_922)">
<path d="M526.339 452.405C523.236 452.793 520.297 453.952 517.822 455.765C515.347 457.577 513.424 459.978 512.249 462.723C507.532 472.579 501.865 501.651 495.892 509.477C489.919 517.303 469.58 545.68 469.58 545.68L470.407 556.404C470.407 556.404 500.211 531.564 509.737 520.144C519.263 508.723 545.882 453.767 526.339 452.405Z" fill="#FFA8A7"/>
<path d="M537.795 438.289C550.145 438.289 560.156 428.815 560.156 417.129C560.156 405.443 550.145 395.97 537.795 395.97C525.446 395.97 515.435 405.443 515.435 417.129C515.435 428.815 525.446 438.289 537.795 438.289Z" fill="#FFA8A7"/>
<path d="M542.941 393.854C543.493 394.202 549.068 416.202 549.068 416.202C549.296 415.61 549.674 415.079 550.167 414.656C550.661 414.232 551.256 413.929 551.902 413.772C552.547 413.615 553.223 413.609 553.871 413.755C554.52 413.9 555.121 414.193 555.623 414.608C559.145 417.129 558.686 421.448 554.704 425.014C555.781 425.539 556.939 425.901 558.135 426.086C559.635 426.231 570.969 406.405 564.046 395.97C557.124 385.535 542.941 393.854 542.941 393.854Z" fill="#4C54BD"/>
<path d="M553.662 398.927C553.662 398.927 525.451 427.187 509.339 406.492C507.158 404.063 506.082 400.916 506.346 397.738C506.61 394.561 508.193 391.612 510.748 389.535C510.748 389.535 513.352 397.013 524.655 389.216C531.087 384.782 554.183 379.506 553.662 398.927Z" fill="#4C54BD"/>
<path d="M549.159 401.593L548.945 416.086L547.781 418.521C547.496 418.688 547.167 418.776 546.831 418.776C546.496 418.776 546.167 418.688 545.882 418.521C544.031 416.431 542.777 413.926 542.241 411.247C541.704 408.567 541.903 405.802 542.819 403.216C545.882 395.303 549.159 401.593 549.159 401.593Z" fill="#4C54BD"/>
<path d="M524.409 530.405C524.409 530.405 535.835 610.955 547.015 635.651C556.541 656.694 599.333 703.564 599.333 703.564L608.155 693.39C608.155 693.39 579.423 651.361 572.653 628.781C565.577 605.245 567.936 530.955 567.936 530.955L524.409 530.405Z" fill="#4C54BD"/>
<path d="M519.754 530.376L512.126 710.781H530.658L552.008 530.897L519.754 530.376Z" fill="#4C54BD"/>
<path d="M532.956 711.969V717.94C532.956 718.248 532.827 718.543 532.597 718.76C532.367 718.978 532.055 719.1 531.73 719.1H501.467V718.259C501.463 717.276 501.664 716.302 502.06 715.393C502.456 714.484 503.038 713.658 503.773 712.963C504.507 712.268 505.38 711.717 506.341 711.342C507.301 710.968 508.331 710.777 509.37 710.781H531.7C532.033 710.781 532.352 710.906 532.588 711.129C532.823 711.352 532.956 711.654 532.956 711.969Z" fill="#312A52"/>
<path d="M532.312 445.245C532.312 445.245 517.242 444.202 514.914 478.955L512.096 530.231L567.936 530.955C567.936 530.955 571.459 463.854 567.936 455.593C564.414 447.332 548.363 444.637 548.363 444.637L532.312 445.245Z" fill="#B697D6"/>
<path d="M549.374 432.782L548.363 444.608C548.363 444.608 544.075 452.26 536.386 452.405C531.608 452.405 531.179 446.057 532.312 445.245L532.527 427.187L549.374 432.782Z" fill="#FFA8A7"/>
<path d="M577.156 391.245C577.156 394.205 576.228 397.098 574.49 399.558C572.752 402.018 570.282 403.935 567.392 405.066C564.502 406.197 561.323 406.492 558.256 405.912C555.189 405.333 552.373 403.906 550.164 401.811C547.954 399.716 546.451 397.049 545.845 394.145C545.239 391.242 545.556 388.234 546.757 385.502C547.958 382.769 549.988 380.435 552.592 378.795C555.195 377.155 558.254 376.283 561.381 376.289C565.568 376.297 569.58 377.876 572.538 380.68C575.495 383.484 577.156 387.284 577.156 391.245Z" fill="#4C54BD"/>
<path d="M519.723 472.608C514.98 472.918 510.26 471.758 506.276 469.303C507.552 464.026 510.235 459.146 514.068 455.127C517.902 451.109 522.759 448.086 528.177 446.347L519.723 472.608Z" fill="#B697D6"/>
<path d="M609.87 691.998L614.618 695.94C614.845 696.162 614.971 696.458 614.971 696.766C614.971 697.075 614.845 697.371 614.618 697.592L594.646 719.1L593.973 718.549C592.395 717.237 591.432 715.386 591.294 713.403C591.156 711.42 591.855 709.466 593.237 707.969L607.971 692.114C608.08 691.978 608.219 691.865 608.378 691.784C608.537 691.703 608.712 691.655 608.893 691.644C609.073 691.633 609.253 691.659 609.422 691.72C609.591 691.781 609.744 691.876 609.87 691.998Z" fill="#312A52"/>
<path d="M567.936 455.564L575.594 472.666H572.164C566.619 472.666 556.143 472.926 554.551 472.666C552.345 472.231 567.936 455.564 567.936 455.564Z" fill="#B697D6"/>
<path d="M573.695 500.144L572.163 472.839H554.551C554.551 472.839 557.614 520.607 555.776 531.129C553.938 541.651 534.702 568.202 534.702 568.202L522.082 578.723C522.082 578.723 535.774 580.086 537.765 578.723C539.756 577.361 549.159 567.129 549.159 567.129L549.374 561.767C549.374 561.767 572.929 537.941 573.695 528.926C574.461 519.912 573.695 500.144 573.695 500.144Z" fill="#FFA8A7"/>
<path d="M525.481 591.071C524.721 586.824 523.584 582.645 522.081 578.578C518.932 569.998 514.158 562.032 507.991 555.071C505.084 551.76 501.898 548.678 498.465 545.854C491.233 539.928 482.932 535.284 473.96 532.144C469.705 530.596 465.305 529.431 460.819 528.665C456.121 527.834 451.355 527.398 446.576 527.361C441.783 527.305 436.995 527.664 432.271 528.434C427.776 529.139 423.358 530.225 419.069 531.68C410.026 534.665 401.622 539.161 394.258 544.955C390.751 547.709 387.493 550.734 384.517 553.999C378.264 560.853 373.348 568.705 369.998 577.187C368.39 581.212 367.16 585.363 366.322 589.593C365.472 594.052 365.011 598.569 364.944 603.1C364.918 607.625 365.297 612.143 366.077 616.607C366.844 620.856 367.992 625.035 369.508 629.1C372.652 637.674 377.427 645.631 383.598 652.578C386.467 655.902 389.634 658.986 393.063 661.796C400.319 667.689 408.613 672.33 417.568 675.506C421.846 677.004 426.253 678.149 430.739 678.926C435.458 679.757 440.245 680.194 445.044 680.23C449.827 680.285 454.605 679.926 459.318 679.158C463.811 678.472 468.23 677.405 472.52 675.969C481.586 672.973 490.003 668.445 497.362 662.607C500.87 659.877 504.138 656.881 507.133 653.651C516.37 643.45 522.622 631.138 525.267 617.941C527.022 609.019 527.105 599.875 525.512 590.926L525.481 591.071ZM492.614 604.288C492.529 613.064 489.696 621.618 484.474 628.87C479.252 636.122 471.875 641.746 463.276 645.031C454.676 648.316 445.241 649.115 436.162 647.326C427.083 645.538 418.768 641.242 412.268 634.982C405.769 628.723 401.377 620.78 399.647 612.159C397.917 603.537 398.927 594.624 402.55 586.546C406.173 578.467 412.245 571.587 420 566.774C427.754 561.961 436.843 559.432 446.116 559.506C458.549 559.636 470.421 564.421 479.135 572.813C487.85 581.206 492.696 592.523 492.614 604.288Z" fill="#B697D6"/>
<path d="M457.358 513.042C457.242 512.431 456.902 511.877 456.398 511.48C455.894 511.082 455.257 510.866 454.601 510.868H446.606H438.611C437.956 510.861 437.318 511.067 436.805 511.452C436.291 511.838 435.934 512.379 435.793 512.984L430.249 536.665L446.361 535.883L462.442 536.955L457.358 513.042Z" fill="#B697D6"/>
<path d="M407.797 519.68C407.362 519.215 406.771 518.906 406.124 518.806C405.476 518.706 404.812 518.82 404.243 519.129L397.29 522.839L390.337 526.578C389.759 526.874 389.31 527.353 389.069 527.931C388.829 528.509 388.811 529.149 389.02 529.738L396.739 552.926L410.278 544.636L424.736 537.941L407.797 519.68Z" fill="#B697D6"/>
<path d="M368.374 548.897C367.75 548.701 367.074 548.715 366.46 548.937C365.846 549.159 365.332 549.575 365.005 550.115L360.962 556.607L356.888 563.129C356.582 563.673 356.468 564.296 356.562 564.905C356.655 565.515 356.952 566.081 357.408 566.52L376.338 582.868L383.659 569.303L392.665 556.636L368.374 548.897Z" fill="#B697D6"/>
<path d="M349.689 592.897C349.046 593.023 348.467 593.353 348.049 593.833C347.631 594.312 347.4 594.913 347.392 595.535V603.1V610.665C347.422 611.28 347.658 611.869 348.065 612.349C348.473 612.828 349.031 613.172 349.659 613.332L374.654 618.549L373.857 603.303L374.96 588.086L349.689 592.897Z" fill="#B697D6"/>
<path d="M356.734 639.767C356.238 640.174 355.906 640.732 355.794 641.344C355.683 641.957 355.798 642.588 356.122 643.129L360.073 649.709L363.994 656.317C364.343 656.837 364.858 657.237 365.463 657.462C366.069 657.686 366.735 657.721 367.363 657.564L391.868 650.259L383.108 637.448L376.032 623.738L356.734 639.767Z" fill="#B697D6"/>
<path d="M387.611 676.955C387.401 677.542 387.411 678.18 387.64 678.76C387.869 679.341 388.302 679.829 388.867 680.143L395.759 683.998L402.651 687.824C403.213 688.141 403.873 688.264 404.52 688.175C405.167 688.085 405.761 687.787 406.204 687.332L423.51 669.448L409.144 662.491L395.759 653.969L387.611 676.955Z" fill="#B697D6"/>
<path d="M434.048 694.752C434.175 695.363 434.523 695.914 435.031 696.31C435.539 696.707 436.177 696.924 436.835 696.926H444.83H452.825C453.478 696.928 454.114 696.72 454.626 696.336C455.138 695.951 455.497 695.413 455.643 694.81L461.156 671.129L445.075 671.911L428.994 670.839L434.048 694.752Z" fill="#B697D6"/>
<path d="M483.731 688.114C484.166 688.579 484.757 688.888 485.404 688.988C486.052 689.089 486.716 688.974 487.285 688.665L494.238 684.955L501.191 681.216C501.756 680.908 502.194 680.428 502.434 679.854C502.673 679.28 502.699 678.646 502.508 678.056L494.789 654.868L481.25 663.158L466.762 669.853L483.731 688.114Z" fill="#B697D6"/>
<path d="M523.031 658.868C523.657 659.038 524.325 659.014 524.936 658.801C525.548 658.587 526.071 658.194 526.431 657.68L530.474 651.158L534.548 644.665C534.881 644.126 535.008 643.494 534.907 642.877C534.807 642.26 534.486 641.694 533.997 641.274L515.097 624.926L507.746 638.491L498.74 651.158L523.031 658.868Z" fill="#B697D6"/>
<path d="M541.747 614.926C542.387 614.8 542.962 614.468 543.375 613.988C543.788 613.508 544.013 612.908 544.013 612.288V604.723V597.158C544.022 596.538 543.804 595.934 543.397 595.448C542.989 594.963 542.417 594.625 541.777 594.491L516.752 589.274L517.579 604.52L516.476 619.738L541.747 614.926Z" fill="#B697D6"/>
<path d="M534.701 568.028C535.193 567.616 535.519 567.057 535.625 566.445C535.731 565.832 535.61 565.204 535.283 564.665L531.362 558.115L527.411 551.535C527.09 550.996 526.583 550.579 525.975 550.352C525.367 550.125 524.695 550.102 524.072 550.289L499.567 557.593L508.328 570.404L515.434 584.115L534.701 568.028Z" fill="#B697D6"/>
<path d="M503.825 530.723C504.035 530.136 504.025 529.499 503.796 528.918C503.568 528.337 503.134 527.849 502.57 527.535L495.678 523.68L488.786 519.854C488.224 519.538 487.564 519.414 486.917 519.504C486.27 519.593 485.675 519.891 485.232 520.347L467.926 538.231L482.292 545.187L495.647 553.709L503.825 530.723Z" fill="#B697D6"/>
<path d="M445.687 545.448C433.474 545.448 421.535 548.875 411.38 555.296C401.225 561.717 393.31 570.843 388.636 581.521C383.962 592.198 382.739 603.947 385.122 615.283C387.504 626.618 393.386 637.03 402.022 645.202C410.658 653.374 421.661 658.94 433.64 661.194C445.619 663.449 458.035 662.292 469.319 657.869C480.603 653.446 490.247 645.957 497.033 636.347C503.818 626.738 507.44 615.44 507.44 603.883C507.44 588.385 500.934 573.522 489.353 562.563C477.772 551.604 462.065 545.448 445.687 545.448ZM445.289 648.288C436.007 648.213 426.957 645.535 419.284 640.593C411.61 635.65 405.658 628.665 402.181 620.521C398.703 612.377 397.856 603.44 399.746 594.841C401.636 586.241 406.18 578.365 412.801 572.209C419.422 566.053 427.824 561.894 436.944 560.257C446.064 558.62 455.492 559.579 464.035 563.013C472.579 566.447 479.854 572.201 484.942 579.548C490.029 586.895 492.699 595.505 492.614 604.288C492.485 616.056 487.431 627.295 478.56 635.542C469.689 643.79 457.725 648.373 445.289 648.288Z" fill="#8C59BD"/>
<path d="M641.083 460.521L643.074 466.318C643.173 466.609 643.389 466.852 643.676 466.993C643.963 467.134 644.297 467.162 644.606 467.071L673.338 458.057L673.062 457.245C672.737 456.313 672.22 455.45 671.542 454.706C670.864 453.962 670.037 453.352 669.11 452.911C668.183 452.47 667.173 452.205 666.137 452.133C665.102 452.061 664.062 452.183 663.077 452.492L641.88 459.129C641.59 459.228 641.348 459.425 641.201 459.681C641.055 459.938 641.013 460.237 641.083 460.521Z" fill="#312A52"/>
<path d="M587.877 429.303L585.304 434.782C585.238 434.922 585.203 435.074 585.2 435.228C585.197 435.381 585.226 435.534 585.286 435.677C585.346 435.82 585.435 435.95 585.549 436.06C585.662 436.17 585.798 436.258 585.947 436.318L613.515 447.912L613.883 447.129C614.307 446.231 614.539 445.263 614.566 444.28C614.594 443.296 614.416 442.318 614.044 441.4C613.671 440.482 613.11 439.642 612.394 438.929C611.678 438.216 610.82 437.644 609.87 437.245L589.501 428.55C589.18 428.448 588.829 428.47 588.525 428.611C588.221 428.752 587.989 429.001 587.877 429.303Z" fill="#312A52"/>
<path d="M522.082 272.057C522.082 272.057 513.536 312.637 533.354 323.883C553.172 335.13 598.966 363.303 608.155 366.434C617.344 369.564 641.849 459.013 641.849 459.013L658.298 453.912C658.298 453.912 644.3 347.101 640.348 344.086C636.397 341.072 571.459 279.594 571.459 279.594L522.082 272.057Z" fill="#B697D6"/>
<path d="M577.003 271.391L636.703 330.289C646.413 350.84 603.775 434.637 603.775 434.637L590.665 429.129L603.438 348.985L546.158 279.42L577.003 271.391Z" fill="#B697D6"/>
<path d="M559.023 169.043C553.785 174.84 550.722 188.608 562.821 193.188C581.659 200.347 604.479 170.956 611.402 144.956C617.915 121.833 618.461 97.5674 612.995 74.2027C612.705 73.0918 612.101 72.0764 611.249 71.2647C610.396 70.453 609.327 69.8756 608.155 69.594L586.101 64.4056C590.854 82.6196 590.873 101.652 586.158 119.875C581.442 138.098 572.132 154.968 559.023 169.043Z" fill="#4C54BD"/>
<path d="M514.363 265.507C514.148 267.117 514.293 268.753 514.788 270.307C515.284 271.862 516.119 273.3 517.239 274.53C518.36 275.759 519.74 276.753 521.292 277.445C522.844 278.138 524.532 278.514 526.247 278.55C546.587 279.159 583.007 280.115 585.825 279.217C589.776 277.999 599.333 175.478 571.459 169.072C521.622 157.449 523.92 188.057 514.363 265.507Z" fill="#4C54BD"/>
<path d="M524.379 147.971C525.385 152.046 527.645 155.747 530.874 158.606C534.103 161.465 538.155 163.354 542.519 164.034C546.882 164.715 551.361 164.155 555.388 162.427C559.416 160.699 562.811 157.879 565.145 154.325C567.479 150.771 568.647 146.641 568.502 142.459C568.356 138.276 566.903 134.229 564.326 130.828C561.75 127.427 558.165 124.825 554.026 123.352C549.887 121.879 545.379 121.6 541.073 122.55C538.21 123.178 535.507 124.335 533.118 125.953C530.729 127.572 528.701 129.62 527.15 131.982C525.599 134.343 524.556 136.971 524.081 139.715C523.605 142.459 523.706 145.264 524.379 147.971Z" fill="#FFA8A7"/>
<path d="M545.576 119.391C546.219 119.623 556.787 139.855 556.787 139.855C556.875 139.221 557.127 138.617 557.519 138.096C557.911 137.575 558.432 137.153 559.037 136.867C559.641 136.581 560.311 136.44 560.987 136.455C561.662 136.471 562.324 136.643 562.913 136.956C566.956 138.666 567.416 142.985 564.536 147.304C565.718 147.575 566.937 147.673 568.151 147.594C569.621 147.42 575.901 125.681 566.65 116.985C557.399 108.29 545.576 119.391 545.576 119.391Z" fill="#4C54BD"/>
<path d="M557.246 122.029C557.246 122.029 539.664 151.333 515.925 138.927L509.125 134.058C509.125 134.058 518.559 126.724 526.676 118.811C532.22 113.42 552.927 103.043 557.246 122.029Z" fill="#4C54BD"/>
<path d="M553.509 125.652L556.786 139.855L556.266 142.492C556.029 142.714 555.731 142.869 555.407 142.94C555.083 143.012 554.744 142.997 554.428 142.898C552.133 141.254 550.324 139.078 549.176 136.581C548.028 134.083 547.579 131.347 547.873 128.637C548.822 120.174 553.509 125.652 553.509 125.652Z" fill="#4C54BD"/>
<path d="M518.161 178.724C523.582 173.101 544.902 162.724 551.151 173.536C560.891 190.376 518.62 232.753 492.186 242.376C448.169 258.376 419.682 251.246 419.682 251.246L425.992 239.652C425.992 239.652 471.479 227.188 518.161 178.724Z" fill="#4C54BD"/>
<path d="M542.175 158.55L543.186 170.405C543.186 170.405 554.06 184.058 564.322 178C564.322 178 568.732 174.202 559.114 168.579V152.985L542.175 158.55Z" fill="#FFA8A7"/>
<path d="M590.389 -20V304.434L581.843 298.492V-20H590.389Z" fill="#FFA8A7"/>
<path d="M590.389 66.5795L581.751 46.6375L582.609 35.0434C582.609 35.0434 601.232 41.1883 605.735 47.4491C610.238 53.71 608.063 69.565 608.063 69.565L590.389 66.5795Z" fill="#FFA8A7"/>
<path d="M422.469 312.144C422.499 314.472 421.798 316.756 420.453 318.705C419.109 320.655 417.182 322.182 414.918 323.092C412.654 324.003 410.155 324.256 407.738 323.82C405.322 323.384 403.097 322.277 401.347 320.641C399.597 319.005 398.4 316.914 397.909 314.633C397.417 312.352 397.654 309.984 398.588 307.831C399.522 305.677 401.112 303.835 403.155 302.539C405.199 301.242 407.603 300.55 410.063 300.55C413.327 300.55 416.46 301.767 418.782 303.937C421.104 306.107 422.429 309.056 422.469 312.144Z" fill="#4C54BD"/>
<path d="M449.302 237.188C449.301 231.05 447.684 225.009 444.598 219.611C441.512 214.212 437.053 209.626 431.625 206.266C426.197 202.907 419.97 200.879 413.506 200.367C407.043 199.855 400.546 200.874 394.603 203.333C388.66 205.791 383.457 209.612 379.465 214.449C375.473 219.287 372.817 224.989 371.738 231.041C370.658 237.093 371.188 243.305 373.28 249.114C375.372 254.924 378.96 260.149 383.721 264.318C386.079 266.409 387.957 268.936 389.238 271.744C390.519 274.552 391.174 277.579 391.164 280.637V289.072H429.3V278.985C429.338 276.232 429.991 273.517 431.216 271.02C432.44 268.522 434.209 266.297 436.406 264.492C440.453 261.047 443.692 256.837 445.914 252.134C448.135 247.431 449.289 242.339 449.302 237.188Z" fill="#B697D6"/>
<path d="M409.788 183.739C408.899 183.731 408.05 183.392 407.425 182.795C406.8 182.197 406.449 181.391 406.449 180.55V162.492C406.449 161.652 406.8 160.845 407.425 160.248C408.05 159.651 408.899 159.312 409.788 159.304C410.676 159.312 411.525 159.651 412.15 160.248C412.776 160.845 413.126 161.652 413.126 162.492V180.55C413.126 181.391 412.776 182.197 412.15 182.795C411.525 183.392 410.676 183.731 409.788 183.739Z" fill="#B697D6"/>
<path d="M370.763 199.942C370.134 200.526 369.287 200.853 368.405 200.853C367.523 200.853 366.676 200.526 366.046 199.942L352.538 187.101C352.224 186.807 351.975 186.457 351.805 186.072C351.634 185.686 351.547 185.272 351.547 184.855C351.547 184.437 351.634 184.023 351.805 183.637C351.975 183.252 352.224 182.902 352.538 182.608C353.173 182.022 354.025 181.694 354.912 181.694C355.799 181.694 356.651 182.022 357.286 182.608L370.763 195.391C371.087 195.686 371.344 196.039 371.52 196.43C371.695 196.821 371.786 197.241 371.786 197.666C371.786 198.091 371.695 198.511 371.52 198.902C371.344 199.293 371.087 199.647 370.763 199.942Z" fill="#B697D6"/>
<path d="M355.295 237.507C355.295 238.345 354.943 239.148 354.317 239.741C353.691 240.333 352.842 240.666 351.956 240.666H332.842C331.957 240.666 331.108 240.333 330.482 239.741C329.855 239.148 329.504 238.345 329.504 237.507C329.5 237.089 329.583 236.675 329.749 236.289C329.915 235.902 330.16 235.55 330.471 235.254C330.781 234.957 331.15 234.722 331.558 234.561C331.965 234.401 332.401 234.318 332.842 234.318H352.017C352.898 234.333 353.736 234.677 354.35 235.274C354.963 235.871 355.303 236.674 355.295 237.507Z" fill="#B697D6"/>
<path d="M372.418 274.405C372.732 274.699 372.981 275.049 373.151 275.434C373.321 275.82 373.409 276.234 373.409 276.651C373.409 277.069 373.321 277.483 373.151 277.869C372.981 278.254 372.732 278.604 372.418 278.898L358.909 291.68C358.28 292.265 357.433 292.592 356.551 292.592C355.669 292.592 354.822 292.265 354.192 291.68C353.878 291.387 353.629 291.037 353.459 290.651C353.289 290.266 353.201 289.852 353.201 289.434C353.201 289.016 353.289 288.603 353.459 288.217C353.629 287.831 353.878 287.482 354.192 287.188L367.7 274.405C368.33 273.821 369.177 273.494 370.059 273.494C370.941 273.494 371.788 273.821 372.418 274.405Z" fill="#B697D6"/>
<path d="M451.936 199.941C452.566 200.526 453.413 200.853 454.295 200.853C455.177 200.853 456.024 200.526 456.654 199.941L470.162 187.159C470.476 186.865 470.725 186.515 470.895 186.13C471.065 185.744 471.153 185.33 471.153 184.913C471.153 184.495 471.065 184.081 470.895 183.695C470.725 183.31 470.476 182.96 470.162 182.666C469.527 182.08 468.675 181.752 467.788 181.752C466.901 181.752 466.049 182.08 465.414 182.666L451.936 195.449C451.622 195.743 451.373 196.092 451.203 196.478C451.033 196.864 450.945 197.277 450.945 197.695C450.945 198.113 451.033 198.527 451.203 198.912C451.373 199.298 451.622 199.648 451.936 199.941Z" fill="#B697D6"/>
<path d="M467.405 237.507C467.405 238.345 467.757 239.148 468.383 239.741C469.009 240.333 469.858 240.666 470.744 240.666H489.858C490.743 240.666 491.592 240.333 492.218 239.741C492.845 239.148 493.196 238.345 493.196 237.507C493.2 237.089 493.117 236.675 492.951 236.289C492.785 235.902 492.54 235.55 492.229 235.254C491.919 234.957 491.549 234.722 491.142 234.561C490.735 234.401 490.299 234.318 489.858 234.318H470.744C470.303 234.318 469.866 234.401 469.459 234.561C469.052 234.722 468.682 234.957 468.372 235.254C468.061 235.55 467.816 235.902 467.65 236.289C467.484 236.675 467.401 237.089 467.405 237.507Z" fill="#B697D6"/>
<path d="M450.282 274.405C449.968 274.699 449.719 275.049 449.549 275.434C449.379 275.82 449.291 276.234 449.291 276.651C449.291 277.069 449.379 277.483 449.549 277.869C449.719 278.254 449.968 278.604 450.282 278.898L463.79 291.68C464.42 292.265 465.267 292.592 466.149 292.592C467.031 292.592 467.878 292.265 468.508 291.68C468.822 291.387 469.071 291.037 469.241 290.651C469.411 290.266 469.499 289.852 469.499 289.434C469.499 289.016 469.411 288.603 469.241 288.217C469.071 287.831 468.822 287.482 468.508 287.188L454.999 274.405C454.369 273.821 453.523 273.494 452.641 273.494C451.759 273.494 450.912 273.821 450.282 274.405Z" fill="#B697D6"/>
<path d="M429.238 289.072H391.194V309.449H429.238V289.072Z" fill="#4C54BD"/>
<path d="M432.179 289.275C432.179 290.043 431.856 290.781 431.282 291.324C430.707 291.868 429.928 292.173 429.116 292.173H391.501C391.049 292.28 390.577 292.289 390.122 292.197C389.666 292.106 389.239 291.918 388.872 291.647C388.505 291.376 388.208 291.029 388.003 290.633C387.799 290.237 387.693 289.802 387.693 289.362C387.693 288.921 387.799 288.486 388.003 288.09C388.208 287.694 388.505 287.347 388.872 287.076C389.239 286.805 389.666 286.617 390.122 286.526C390.577 286.435 391.049 286.443 391.501 286.55H429.208C429.973 286.57 430.703 286.862 431.253 287.366C431.803 287.87 432.133 288.551 432.179 289.275Z" fill="#5A64E0"/>
<path d="M391.501 297.564H429.208C430.02 297.564 430.799 297.87 431.374 298.413C431.948 298.957 432.271 299.694 432.271 300.463C432.271 301.232 431.948 301.969 431.374 302.513C430.799 303.056 430.02 303.362 429.208 303.362H391.501C390.689 303.362 389.91 303.056 389.335 302.513C388.761 301.969 388.438 301.232 388.438 300.463C388.438 299.694 388.761 298.957 389.335 298.413C389.91 297.87 390.689 297.564 391.501 297.564Z" fill="#5A64E0"/>
<path d="M391.501 308.84H429.208C430.02 308.84 430.799 309.145 431.374 309.689C431.948 310.232 432.271 310.97 432.271 311.738C432.271 312.507 431.948 313.244 431.374 313.788C430.799 314.332 430.02 314.637 429.208 314.637H391.501C390.689 314.637 389.91 314.332 389.335 313.788C388.761 313.244 388.438 312.507 388.438 311.738C388.438 310.97 388.761 310.232 389.335 309.689C389.91 309.145 390.689 308.84 391.501 308.84Z" fill="#5A64E0"/>
<path d="M415.608 239.999V286.376H405.101V239.999C405.202 238.747 405.8 237.576 406.774 236.722C407.748 235.868 409.027 235.394 410.354 235.394C411.682 235.394 412.961 235.868 413.935 236.722C414.909 237.576 415.506 238.747 415.608 239.999Z" fill="#8C59BD"/>
<path d="M171.753 445.071C164.524 441.767 147.003 439.767 145.441 452.028C142.96 471.071 178.859 484.405 207.162 484.086C254.334 483.564 269.007 472.492 269.007 472.492L260.124 448.579C260.124 448.579 234.21 473.738 171.753 445.071Z" fill="#B697D6"/>
<path d="M176.379 529.999L154.998 594.317L147.095 618.057L116.372 710.375H97.8403L132.852 530.578L176.379 529.999Z" fill="#4C54BD"/>
<path d="M188.692 529.854L163.85 710.375H145.288L148.78 530.52L188.692 529.854Z" fill="#4C54BD"/>
<path d="M123.632 539.332C123.417 540.94 123.561 542.574 124.055 544.126C124.549 545.678 125.381 547.116 126.498 548.345C127.615 549.574 128.992 550.568 130.54 551.262C132.088 551.956 133.773 552.336 135.486 552.375C155.856 552.984 192.276 553.941 195.094 553.042C199.015 551.825 200.24 451.796 172.366 445.332C122.529 433.767 133.127 461.883 123.632 539.332Z" fill="#B697D6"/>
<path d="M161.216 439.68C173.565 439.68 183.576 430.207 183.576 418.521C183.576 406.835 173.565 397.361 161.216 397.361C148.866 397.361 138.855 406.835 138.855 418.521C138.855 430.207 148.866 439.68 161.216 439.68Z" fill="#FFA8A7"/>
<path d="M155.978 395.245C155.427 395.593 150.005 417.593 150.005 417.593C149.771 417.005 149.39 416.48 148.896 416.06C148.402 415.641 147.808 415.341 147.165 415.184C146.522 415.028 145.849 415.02 145.202 415.162C144.556 415.304 143.954 415.591 143.45 415.999C139.897 418.521 140.387 422.84 144.338 426.405C143.259 426.931 142.102 427.302 140.907 427.506C139.406 427.506 128.073 407.796 134.996 397.361C141.918 386.927 155.978 395.245 155.978 395.245Z" fill="#4C54BD"/>
<path d="M145.318 400.318C145.318 400.318 169.486 425.071 189.642 407.883L195.094 401.709C195.094 401.709 184.128 396.579 174.326 390.608C167.618 386.55 144.951 380.898 145.318 400.318Z" fill="#4C54BD"/>
<path d="M149.852 403.042L150.066 417.535L151.199 419.999C151.488 420.157 151.816 420.24 152.149 420.24C152.482 420.24 152.81 420.157 153.098 419.999C154.947 417.908 156.199 415.403 156.735 412.724C157.272 410.045 157.074 407.281 156.162 404.695C153.098 396.695 149.852 403.042 149.852 403.042Z" fill="#4C54BD"/>
<path d="M151.383 432.376L152.425 444.231C152.425 444.231 163.299 457.883 173.56 451.825C173.56 451.825 177.971 448.028 168.353 442.405V426.811L151.383 432.376Z" fill="#FFA8A7"/>
<path d="M165.504 461.187C163.36 453.854 153.405 440.086 142.654 447.042C125.898 457.854 136.711 500.81 155.641 520.752C187.161 553.941 233.322 547.332 233.322 547.332V534.173C233.322 534.173 183.944 524.491 165.504 461.187Z" fill="#B697D6"/>
<path d="M154.998 594.318L151.475 710.375H145.288L147.095 618.057L154.998 594.318Z" fill="#312A52"/>
<path d="M96.6457 711.737V717.535C96.6457 717.842 96.7748 718.137 97.0045 718.354C97.2343 718.572 97.5459 718.694 97.8709 718.694H128.134V717.853C128.134 715.867 127.303 713.962 125.822 712.555C124.34 711.148 122.33 710.354 120.232 710.346H97.779C97.6049 710.36 97.4356 710.408 97.2822 710.487C97.1287 710.566 96.9944 710.674 96.8877 710.805C96.781 710.936 96.7044 711.087 96.6627 711.247C96.621 711.408 96.6152 711.575 96.6457 711.737Z" fill="#312A52"/>
<path d="M142.99 711.737V717.535C142.99 717.842 143.119 718.137 143.349 718.354C143.579 718.572 143.891 718.694 144.216 718.694H174.357V717.853C174.357 715.867 173.525 713.962 172.044 712.555C170.563 711.148 168.553 710.354 166.454 710.346H144.124C143.95 710.36 143.78 710.408 143.627 710.487C143.473 710.566 143.339 710.674 143.232 710.805C143.126 710.936 143.049 711.087 143.007 711.247C142.966 711.408 142.96 711.575 142.99 711.737Z" fill="#312A52"/>
<path d="M401.211 430.579C400.365 425.847 399.094 421.193 397.413 416.666C393.89 407.146 388.577 398.308 381.73 390.579C378.486 386.892 374.931 383.46 371.101 380.318C362.954 373.702 353.616 368.528 343.532 365.043C338.845 363.279 333.995 361.93 329.044 361.014C323.811 360.088 318.501 359.603 313.177 359.564C307.841 359.503 302.509 359.901 297.249 360.753C292.246 361.553 287.326 362.765 282.546 364.376C267.637 369.342 254.362 377.917 244.043 389.245C237.064 396.903 231.587 405.679 227.869 415.158C226.069 419.642 224.695 424.269 223.765 428.985C222.817 433.95 222.305 438.982 222.233 444.028C222.201 449.067 222.621 454.1 223.489 459.071C226.17 473.826 232.911 487.652 243.032 499.158C246.227 502.858 249.752 506.291 253.569 509.419C261.673 515.999 270.944 521.171 280.953 524.694C285.715 526.376 290.625 527.656 295.625 528.521C300.88 529.445 306.21 529.929 311.554 529.97C316.889 530.149 322.231 529.867 327.512 529.129C332.518 528.366 337.439 527.173 342.215 525.564C352.273 522.213 361.612 517.177 369.783 510.695C373.689 507.646 377.326 504.302 380.657 500.695C391.021 489.295 398.044 475.523 401.027 460.753C402.976 450.806 403.07 440.614 401.303 430.637L401.211 430.579ZM364.607 445.303C364.515 455.082 361.363 464.615 355.546 472.698C349.73 480.781 341.512 487.05 331.931 490.714C322.35 494.378 311.836 495.271 301.718 493.281C291.6 491.291 282.333 486.507 275.088 479.534C267.843 472.561 262.946 463.712 261.015 454.106C259.085 444.499 260.207 434.566 264.241 425.564C268.275 416.561 275.04 408.892 283.679 403.526C292.319 398.161 302.445 395.339 312.779 395.419C326.636 395.565 339.869 400.898 349.582 410.252C359.294 419.606 364.697 432.219 364.607 445.332V445.303Z" fill="#5A64E0"/>
<path d="M325.307 343.622C325.19 342.936 324.816 342.313 324.253 341.866C323.691 341.42 322.978 341.179 322.244 341.188H313.361H304.447C303.726 341.175 303.024 341.404 302.463 341.833C301.903 342.263 301.521 342.865 301.384 343.535L295.258 369.912L313.208 369.072L331.127 370.231L325.307 343.622Z" fill="#5A64E0"/>
<path d="M270.079 351.072C269.607 350.538 268.948 350.184 268.223 350.072C267.497 349.96 266.754 350.099 266.127 350.463L258.378 354.608L250.628 358.753C249.974 359.076 249.465 359.611 249.195 360.261C248.925 360.911 248.912 361.631 249.158 362.289L257.765 388.028L272.836 378.811L288.978 371.332L270.079 351.072Z" fill="#5A64E0"/>
<path d="M226.185 383.651C225.496 383.403 224.736 383.399 224.044 383.639C223.352 383.878 222.774 384.346 222.417 384.956L217.884 392.231L213.381 399.477C212.981 400.066 212.819 400.772 212.926 401.465C213.033 402.157 213.401 402.79 213.963 403.245L235.037 421.477L243.216 406.347L253.232 392.231L226.185 383.651Z" fill="#5A64E0"/>
<path d="M205.356 432.608C204.646 432.75 204.008 433.112 203.541 433.637C203.075 434.163 202.808 434.821 202.783 435.506V443.941V452.376C202.771 453.062 203.017 453.73 203.477 454.261C203.937 454.792 204.581 455.151 205.294 455.274L233.169 461.071L232.25 444.115L233.475 427.158L205.356 432.608Z" fill="#5A64E0"/>
<path d="M213.197 484.868C212.647 485.329 212.28 485.954 212.157 486.64C212.035 487.325 212.164 488.03 212.523 488.637L216.904 495.97L221.284 503.303C221.625 503.922 222.191 504.404 222.878 504.659C223.564 504.915 224.325 504.927 225.021 504.694L252.252 496.55L242.481 482.289L234.608 467.013L213.197 484.868Z" fill="#5A64E0"/>
<path d="M247.596 526.434C247.337 527.089 247.336 527.81 247.595 528.466C247.854 529.121 248.355 529.665 249.005 529.999L256.663 534.26L264.351 538.549C264.971 538.92 265.71 539.068 266.435 538.967C267.16 538.866 267.823 538.523 268.303 537.999L287.57 518.057L271.58 510.318L256.693 500.81L247.596 526.434Z" fill="#5A64E0"/>
<path d="M299.332 546.144C299.456 546.824 299.832 547.44 300.394 547.881C300.955 548.323 301.665 548.559 302.395 548.549H311.278H320.191C320.912 548.562 321.615 548.333 322.175 547.904C322.735 547.474 323.118 546.871 323.255 546.202L329.381 519.825L311.431 520.694L293.512 519.506L299.332 546.144Z" fill="#5A64E0"/>
<path d="M354.59 538.723C355.058 539.261 355.715 539.622 356.441 539.739C357.166 539.856 357.912 539.722 358.542 539.361L366.291 535.187L374.041 531.042C374.695 530.719 375.204 530.184 375.474 529.534C375.744 528.884 375.757 528.164 375.511 527.506L366.904 501.767L351.833 510.984L335.691 518.463L354.59 538.723Z" fill="#5A64E0"/>
<path d="M398.485 506.173C399.18 506.383 399.93 506.367 400.613 506.125C401.297 505.883 401.874 505.43 402.252 504.839L406.786 497.564L411.289 490.318C411.689 489.729 411.85 489.023 411.743 488.33C411.636 487.638 411.268 487.005 410.707 486.55L389.632 468.26L381.454 483.39L371.438 497.506L398.485 506.173Z" fill="#5A64E0"/>
<path d="M419.406 457.187C420.115 457.045 420.754 456.683 421.22 456.158C421.687 455.632 421.954 454.974 421.979 454.289V445.854V437.448C421.962 436.769 421.706 436.115 421.251 435.59C420.795 435.064 420.168 434.698 419.467 434.55L391.593 428.753L392.512 445.738L391.287 462.695L419.406 457.187Z" fill="#5A64E0"/>
<path d="M411.472 404.927C412.041 404.484 412.421 403.862 412.545 403.176C412.669 402.489 412.527 401.783 412.146 401.187L407.766 393.854L403.386 386.521C403.044 385.902 402.478 385.42 401.792 385.165C401.105 384.909 400.344 384.897 399.649 385.13L372.417 393.245L382.189 407.535L390.061 422.811L411.472 404.927Z" fill="#5A64E0"/>
<path d="M377.074 363.361C377.325 362.71 377.32 361.995 377.062 361.346C376.803 360.697 376.308 360.158 375.665 359.825L368.007 355.535L360.318 351.246C359.696 350.878 358.954 350.735 358.229 350.841C357.504 350.947 356.843 351.297 356.367 351.825L337.069 371.738L353.089 379.477L367.976 388.985L377.074 363.361Z" fill="#5A64E0"/>
<path d="M312.197 379.796C298.59 379.796 285.289 383.614 273.975 390.768C262.661 397.921 253.843 408.089 248.636 419.984C243.429 431.88 242.067 444.97 244.721 457.598C247.376 470.227 253.928 481.826 263.55 490.931C273.171 500.036 285.43 506.236 298.775 508.748C312.121 511.26 325.954 509.971 338.525 505.043C351.096 500.116 361.84 491.772 369.4 481.066C376.96 470.36 380.995 457.773 380.995 444.897C380.995 427.632 373.746 411.073 360.844 398.864C347.942 386.655 330.443 379.796 312.197 379.796ZM311.86 494.347C301.527 494.255 291.454 491.265 282.916 485.757C274.377 480.249 267.756 472.468 263.89 463.4C260.024 454.331 259.086 444.381 261.195 434.808C263.304 425.236 268.365 416.469 275.738 409.618C283.111 402.766 292.466 398.137 302.619 396.316C312.772 394.494 323.268 395.563 332.78 399.385C342.291 403.208 350.392 409.613 356.057 417.791C361.722 425.97 364.697 435.554 364.607 445.332C364.461 458.445 358.827 470.968 348.94 480.156C339.052 489.344 325.718 494.447 311.86 494.347Z" fill="#4C54BD"/>
<path d="M233.322 538.955V534.173L249.618 520.752C250.465 521.458 251.041 522.41 251.257 523.459C251.474 524.507 251.317 525.594 250.812 526.549C249.005 529.97 243.553 538.926 243.553 538.926L233.322 538.955Z" fill="#FFA8A7"/>
<path d="M268.303 537.999C268.303 537.999 267.384 546.694 260.093 547.332C252.803 547.97 233.322 547.332 233.322 547.332V534.173L249.005 529.999L268.303 537.999Z" fill="#FFA8A7"/>
<path d="M260.124 448.579C260.124 448.579 265.76 446.318 268.884 448.579C272.009 450.839 273.173 466.579 272.713 467.564C272.254 468.55 269.375 474.318 266.403 474.318C263.432 474.318 258.623 463.1 258.623 462.55C258.623 461.999 260.369 454.897 260.522 453.506C260.529 451.856 260.396 450.208 260.124 448.579Z" fill="#FFA8A7"/>
</g>
<defs>
<clipPath id="clip0_92_922">
<rect width="576.723" height="739.1" fill="white" transform="translate(96.6455 -20)"/>
</clipPath>
</defs>
</svg>
