<svg width="18" height="19" viewBox="0 0 18 19" fill="none" xmlns="http://www.w3.org/2000/svg">
<path d="M18 9.94531C18 4.97479 13.9705 0.945312 9 0.945312C4.02948 0.945312 0 4.97479 0 9.94531C0 14.166 2.90592 17.7076 6.82596 18.6804V12.6957H4.97016V9.94531H6.82596V8.76019C6.82596 5.69695 8.21232 4.27711 11.2198 4.27711C11.79 4.27711 12.7739 4.38907 13.1764 4.50067V6.99367C12.964 6.97135 12.595 6.96019 12.1367 6.96019C10.661 6.96019 10.0908 7.51927 10.0908 8.97259V9.94531H13.0306L12.5255 12.6957H10.0908V18.8794C14.5472 18.3412 18.0004 14.5468 18.0004 9.94531H18Z" fill="#C890FF"/>
</svg>
