<svg width="19" height="19" viewBox="0 0 19 19" fill="none" xmlns="http://www.w3.org/2000/svg">
<mask id="mask0_303_3024" style="mask-type:luminance" maskUnits="userSpaceOnUse" x="0" y="0" width="19" height="19">
<path d="M9.25875 2.56671C11.6619 2.56671 11.9465 2.57571 12.8956 2.61905C13.7732 2.65909 14.2497 2.80554 14.5668 2.92889C14.9871 3.09227 15.2868 3.28704 15.6018 3.60198C15.9166 3.91693 16.1118 4.21668 16.2749 4.6369C16.3982 4.95401 16.5447 5.43053 16.5847 6.30812C16.628 7.25721 16.637 7.54177 16.637 9.94499C16.637 12.3482 16.628 12.6327 16.5847 13.5818C16.5447 14.4594 16.3982 14.9359 16.2749 15.253C16.1115 15.6733 15.9167 15.973 15.6018 16.2879C15.2868 16.6028 14.9871 16.798 14.5668 16.961C14.2497 17.0844 13.7732 17.2308 12.8956 17.2709C11.9466 17.3141 11.662 17.3232 9.25875 17.3232C6.85554 17.3232 6.57105 17.3142 5.62196 17.2709C4.74437 17.2308 4.26785 17.0844 3.95074 16.961C3.53045 16.7976 3.23077 16.6028 2.91582 16.2879C2.60095 15.973 2.40574 15.6732 2.24272 15.253C2.11931 14.9359 1.97292 14.4594 1.93289 13.5818C1.88961 12.6328 1.88054 12.3481 1.88054 9.94499C1.88054 7.54184 1.88954 7.25728 1.93289 6.30812C1.97292 5.43053 2.11938 4.95401 2.24272 4.6369C2.4061 4.21661 2.60087 3.91693 2.91582 3.60198C3.23077 3.28711 3.53052 3.09191 3.95074 2.92889C4.26785 2.80554 4.74437 2.65909 5.62196 2.61905C6.57098 2.57614 6.85561 2.56671 9.25875 2.56671ZM9.25875 0.945312C6.81449 0.945312 6.5079 0.955753 5.54801 0.999388C4.58992 1.04302 3.93591 1.19531 3.36347 1.4178C2.77152 1.64793 2.2698 1.95568 1.76944 2.45596C1.26915 2.95632 0.961119 3.45805 0.731281 4.04999C0.508716 4.6225 0.356499 5.2768 0.312864 6.23453C0.26923 7.1945 0.258789 7.50109 0.258789 9.94528C0.258789 12.3895 0.26923 12.6961 0.312864 13.656C0.356499 14.6141 0.508788 15.2681 0.731281 15.8406C0.961407 16.4325 1.26915 16.9342 1.76944 17.4346C2.2698 17.9349 2.77188 18.2426 3.36347 18.4727C3.93598 18.6953 4.59028 18.8475 5.54801 18.8912C6.5079 18.9348 6.81449 18.9452 9.25875 18.9452C11.703 18.9452 12.0096 18.9348 12.9695 18.8912C13.9276 18.8475 14.5816 18.6952 15.154 18.4727C15.746 18.2425 16.2477 17.9349 16.7481 17.4346C17.2484 16.9342 17.5561 16.4321 17.7862 15.8406C18.0088 15.2681 18.161 14.6137 18.2046 13.656C18.2483 12.6961 18.2587 12.3895 18.2587 9.94528C18.2587 7.50102 18.2483 7.19442 18.2046 6.23453C18.161 5.27644 18.0087 4.62243 17.7862 4.04999C17.556 3.45805 17.2484 2.95632 16.7481 2.45596C16.2477 1.95568 15.7456 1.64793 15.154 1.4178C14.5816 1.19524 13.9272 1.04302 12.9695 0.999388C12.0097 0.955753 11.703 0.945312 9.25875 0.945312ZM9.25875 5.32375C6.70627 5.32375 4.63723 7.3928 4.63723 9.94528C4.63723 12.4978 6.70627 14.5669 9.25875 14.5669C11.8112 14.5669 13.8803 12.4978 13.8803 9.94528C13.8803 7.3928 11.8112 5.32375 9.25875 5.32375ZM9.25875 12.9455C7.60201 12.9455 6.25862 11.6025 6.25862 9.94535C6.25862 8.28817 7.60201 6.94522 9.25875 6.94522C10.9155 6.94522 12.2589 8.28817 12.2589 9.94535C12.2589 11.6025 10.9155 12.9455 9.25875 12.9455ZM14.0629 4.06123C13.4663 4.06123 12.9829 4.54459 12.9829 5.14122C12.9829 5.73785 13.4663 6.22128 14.0629 6.22128C14.6595 6.22128 15.1429 5.73785 15.1429 5.14122C15.1429 4.54459 14.6596 4.06123 14.0629 4.06123Z" fill="white"/>
</mask>
<g mask="url(#mask0_303_3024)">
<rect x="-4.80469" y="-4.11914" width="28.0817" height="28.0817" fill="#C890FF"/>
</g>
</svg>
