<svg width="748" height="589" viewBox="0 0 748 589" fill="none" xmlns="http://www.w3.org/2000/svg">
<g clip-path="url(#clip0_127_463)">
<path d="M785 517.614H0V518.008H785V517.614Z" fill="#EBEBEB"/>
<path d="M706.343 543.048H654.345V543.442H706.343V543.048Z" fill="#EBEBEB"/>
<path d="M520.015 547.348H506.372V547.742H520.015V547.348Z" fill="#EBEBEB"/>
<path d="M652.775 528.379H622.646V528.773H652.775V528.379Z" fill="#EBEBEB"/>
<path d="M150.171 531.034H82.3623V531.429H150.171V531.034Z" fill="#EBEBEB"/>
<path d="M174.097 531.034H164.159V531.429H174.097V531.034Z" fill="#EBEBEB"/>
<path d="M353.486 537.705H206.408V538.1H353.486V537.705Z" fill="#EBEBEB"/>
<path d="M372.09 447.113H68.9387C66.5639 447.108 64.2877 446.156 62.6099 444.463C60.9321 442.771 59.9897 440.478 59.9897 438.087V9.02591C60.0104 6.64852 60.9619 4.37534 62.6375 2.70013C64.313 1.02493 66.5774 0.0829911 68.9387 0.0789185H372.09C374.468 0.0789185 376.748 1.02987 378.429 2.72258C380.11 4.41529 381.055 6.7111 381.055 9.10495V438.087C381.055 440.48 380.11 442.776 378.429 444.469C376.748 446.162 374.468 447.113 372.09 447.113ZM68.9387 0.395068C66.668 0.399255 64.4916 1.31042 62.8874 2.92856C61.2832 4.54671 60.3822 6.73961 60.3822 9.02591V438.087C60.3822 440.373 61.2832 442.566 62.8874 444.184C64.4916 445.802 66.668 446.713 68.9387 446.717H372.09C374.362 446.713 376.54 445.803 378.147 444.185C379.754 442.567 380.658 440.374 380.662 438.087V9.02591C380.658 6.73815 379.754 4.54529 378.147 2.9276C376.54 1.30991 374.362 0.399246 372.09 0.395068H68.9387Z" fill="#EBEBEB"/>
<path d="M711.697 447.113H408.53C406.153 447.108 403.876 446.156 402.195 444.464C400.515 442.772 399.569 440.479 399.565 438.087V9.02591C399.59 6.64708 400.545 4.37391 402.223 2.69914C403.901 1.02437 406.167 0.0829466 408.53 0.0789185H711.697C714.055 0.0871454 716.316 1.03092 717.988 2.70568C719.66 4.38044 720.609 6.65125 720.63 9.02591V438.087C720.63 440.475 719.69 442.766 718.015 444.458C716.341 446.15 714.069 447.104 711.697 447.113ZM408.53 0.395068C406.257 0.399246 404.079 1.30991 402.473 2.9276C400.866 4.54529 399.962 6.73815 399.957 9.02591V438.087C399.962 440.374 400.866 442.567 402.473 444.185C404.079 445.803 406.257 446.713 408.53 446.717H711.697C713.969 446.713 716.147 445.803 717.754 444.185C719.36 442.567 720.265 440.374 720.269 438.087V9.02591C720.265 6.73815 719.36 4.54529 717.754 2.9276C716.147 1.30991 713.969 0.399246 711.697 0.395068H408.53Z" fill="#EBEBEB"/>
<path d="M389.36 473.906L403.49 492.417L441.327 468.563L430.934 447.745C441.789 437.299 450.589 424.883 456.87 411.151L479.682 414.233L489.683 370.447L467.703 363.128C468.002 348.032 465.466 333.015 460.23 318.867L478.615 304.64L454.986 266.529L434.293 276.993C423.927 266.061 411.6 257.201 397.964 250.879L400.994 227.832L357.505 217.763L350.236 239.893C335.243 239.598 320.329 242.151 306.276 247.418L292.146 228.907L254.34 252.697L264.702 273.547C253.852 283.998 245.053 296.412 238.766 310.141L215.891 307.091L205.89 350.877L227.87 358.196C227.574 373.29 230.104 388.305 235.327 402.457L216.958 416.683L240.65 454.763L261.264 444.267C271.638 455.203 283.969 464.068 297.609 470.397L294.563 493.428L338.068 503.498L345.337 481.367C360.347 481.694 375.283 479.162 389.36 473.906ZM334.253 419.924C322.6 417.238 312 411.132 303.794 402.379C295.589 393.626 290.146 382.62 288.154 370.752C286.163 358.883 287.712 346.687 292.606 335.706C297.501 324.725 305.52 315.452 315.65 309.06C325.779 302.669 337.564 299.446 349.514 299.799C361.463 300.153 373.04 304.067 382.779 311.046C392.519 318.025 399.984 327.756 404.229 339.008C408.475 350.26 409.31 362.526 406.63 374.256C403.043 389.973 393.404 403.613 379.832 412.177C366.26 420.74 349.865 423.527 334.253 419.924Z" fill="#F0F0F0"/>
<path d="M527.52 184.251L532.984 160.35L521.02 156.367C521.194 148.112 519.809 139.9 516.938 132.166L526.986 124.436L514.049 103.633L502.761 109.356C497.092 103.401 490.359 98.5752 482.916 95.129L484.58 82.4831L460.826 76.9979L456.87 89.0748C448.678 88.9022 440.528 90.2913 432.849 93.1689L425.156 83.068L404.51 96.0933L410.178 107.459C404.264 113.167 399.471 119.945 396.048 127.439L383.567 125.764L378.103 149.665L390.066 153.664C389.901 161.913 391.286 170.118 394.148 177.849L384.116 185.579L397.037 206.382L408.341 200.659C413.998 206.621 420.727 211.449 428.17 214.886L426.506 227.532L450.26 233.033L454.217 220.988C462.414 221.146 470.568 219.752 478.253 216.878L485.931 226.979L506.576 213.953L500.83 202.556C506.743 196.854 511.537 190.081 514.96 182.591L527.52 184.251ZM448.141 187.413C441.787 185.94 436.01 182.604 431.539 177.826C427.069 173.048 424.106 167.042 423.024 160.569C421.943 154.096 422.792 147.445 425.465 141.457C428.137 135.47 432.512 130.414 438.038 126.93C443.563 123.446 449.991 121.689 456.508 121.882C463.024 122.075 469.338 124.209 474.651 128.015C479.963 131.82 484.036 137.126 486.354 143.261C488.672 149.397 489.131 156.086 487.673 162.484C486.702 166.739 484.906 170.76 482.389 174.315C479.872 177.87 476.684 180.891 473.006 183.203C469.328 185.516 465.233 187.075 460.955 187.792C456.678 188.509 452.302 188.369 448.078 187.381L448.141 187.413Z" fill="#F0F0F0"/>
<path d="M656.056 472.088L658.285 462.319L653.403 460.739C653.468 457.37 652.903 454.018 651.738 450.859L655.836 447.698L650.545 439.193L645.929 441.533C643.617 439.097 640.868 437.124 637.828 435.716L638.503 430.578L628.801 428.333L627.231 433.25C623.884 433.178 620.554 433.746 617.418 434.925L614.278 430.799L605.847 436.111L608.155 440.758C605.732 443.089 603.772 445.862 602.378 448.931L597.275 448.235L595.03 457.957L599.913 459.537C599.841 462.912 600.406 466.27 601.577 469.433L597.479 472.594L602.754 481.083L607.37 478.743C609.688 481.184 612.442 483.163 615.487 484.576L614.796 489.714L624.499 491.958L626.069 487.042C629.404 487.1 632.721 486.532 635.85 485.367L638.99 489.492L647.421 484.165L645.097 479.518C647.521 477.191 649.487 474.423 650.891 471.361L656.056 472.088ZM623.62 473.369C621.023 472.764 618.663 471.397 616.838 469.441C615.014 467.485 613.806 465.028 613.369 462.381C612.931 459.734 613.284 457.016 614.381 454.57C615.479 452.125 617.272 450.062 619.534 448.643C621.796 447.224 624.426 446.513 627.09 446.599C629.754 446.686 632.332 447.566 634.499 449.128C636.666 450.69 638.324 452.865 639.263 455.376C640.202 457.887 640.38 460.623 639.775 463.236C638.964 466.735 636.808 469.767 633.779 471.667C630.75 473.567 627.096 474.179 623.62 473.369Z" fill="#F0F0F0"/>
<path d="M636.29 140.322L637.765 133.841L634.516 132.766C634.559 130.53 634.186 128.305 633.417 126.206L636.133 124.12L632.71 118.477L629.649 120.057C628.116 118.443 626.294 117.134 624.279 116.2L624.719 112.786L618.297 111.3L617.214 114.556C614.996 114.509 612.79 114.89 610.714 115.679L608.626 112.944L603.037 116.469L604.607 119.551C602.994 121.09 601.688 122.925 600.761 124.958L597.385 124.499L595.894 130.98L599.143 132.071C599.101 134.302 599.473 136.522 600.242 138.615L597.416 140.765L600.918 146.392L603.979 144.812C605.51 146.433 607.332 147.747 609.348 148.685L608.909 152.083L615.346 153.569L616.413 150.313C618.635 150.356 620.845 149.981 622.929 149.206L625.001 151.941L630.606 148.416L629.036 145.333C630.637 143.781 631.936 141.943 632.867 139.911L636.29 140.322ZM614.781 141.16C613.058 140.76 611.492 139.854 610.281 138.558C609.07 137.261 608.268 135.631 607.977 133.876C607.687 132.12 607.92 130.317 608.647 128.695C609.375 127.072 610.564 125.704 612.064 124.762C613.565 123.821 615.309 123.349 617.076 123.406C618.843 123.463 620.553 124.047 621.99 125.084C623.428 126.12 624.527 127.562 625.15 129.228C625.773 130.894 625.89 132.709 625.488 134.442C624.95 136.761 623.521 138.77 621.514 140.03C619.506 141.289 617.085 141.696 614.781 141.16Z" fill="#F0F0F0"/>
<path d="M164.756 263.747L166.232 257.266L162.998 256.191C163.035 253.953 162.657 251.728 161.883 249.631L164.599 247.544L161.098 241.932L157.958 243.513C156.425 241.899 154.603 240.59 152.588 239.656L153.044 236.242L146.607 234.756L145.523 238.028C143.307 237.984 141.102 238.359 139.024 239.135L136.936 236.4L131.346 239.925L132.916 243.007C131.303 244.546 129.997 246.381 129.07 248.414L125.694 247.971L124.219 254.436L127.453 255.527C127.409 257.758 127.781 259.978 128.552 262.071L125.883 264.063L129.384 269.69L132.524 268.11C134.06 269.731 135.888 271.045 137.909 271.982L137.454 275.381L143.891 276.867L144.958 273.611C147.18 273.654 149.389 273.279 151.474 272.504L153.546 275.239L159.151 271.714L157.581 268.631C159.185 267.082 160.484 265.243 161.412 263.209L164.756 263.747ZM143.247 264.6C141.525 264.203 139.959 263.3 138.747 262.006C137.535 260.713 136.731 259.086 136.437 257.333C136.142 255.579 136.371 253.777 137.093 252.154C137.816 250.531 139 249.161 140.496 248.215C141.992 247.27 143.733 246.792 145.499 246.843C147.265 246.894 148.976 247.47 150.416 248.5C151.856 249.529 152.961 250.965 153.591 252.627C154.221 254.289 154.347 256.101 153.954 257.835C153.693 258.987 153.209 260.077 152.529 261.04C151.85 262.004 150.988 262.824 149.993 263.452C148.999 264.081 147.891 264.505 146.734 264.702C145.576 264.899 144.391 264.865 143.247 264.6Z" fill="#F0F0F0"/>
<path d="M310.059 82.2776L312.336 72.2557L307.328 70.5801C307.399 67.124 306.818 63.6857 305.616 60.4476L309.824 57.207L304.407 48.4814L299.697 50.8841C297.326 48.3787 294.502 46.3508 291.376 44.9089L292.02 39.5976L282.066 37.2897L280.402 42.3481C276.964 42.2752 273.544 42.8599 270.323 44.0711L267.183 39.8347L258.532 45.2883L260.903 50.0305C258.423 52.4199 256.41 55.2563 254.968 58.3926L249.63 57.7445L247.338 67.7664L252.362 69.442C252.293 72.8965 252.868 76.3334 254.058 79.5745L249.866 82.736L255.282 91.4617L259.992 89.059C262.367 91.5609 265.19 93.5882 268.313 95.0342L267.622 100.314L277.576 102.606L279.225 97.5634C282.662 97.6362 286.083 97.0515 289.304 95.8404L292.523 100.077L301.173 94.6232L298.803 89.881C301.282 87.4915 303.295 84.6552 304.737 81.5188L310.059 82.2776ZM276.775 83.5896C274.108 82.9751 271.681 81.5777 269.803 79.5742C267.924 77.5706 266.678 75.0511 266.222 72.3343C265.766 69.6176 266.121 66.8257 267.241 64.312C268.362 61.7982 270.198 59.6756 272.517 58.2128C274.836 56.7499 277.533 56.0125 280.269 56.0938C283.004 56.1752 285.654 57.0717 287.883 58.6698C290.112 60.268 291.821 62.496 292.792 65.072C293.763 67.6479 293.953 70.456 293.339 73.1409C292.513 76.7336 290.305 79.8496 287.2 81.8054C284.094 83.7613 280.346 84.3972 276.775 83.5738V83.5896Z" fill="#F0F0F0"/>
<path d="M192.827 481.636L195.104 471.614L190.096 469.954C190.168 466.493 189.587 463.049 188.384 459.806L192.592 456.566L187.175 447.856L182.465 450.243C180.096 447.741 177.278 445.713 174.16 444.267L174.851 438.988L164.85 436.696L163.28 441.738C159.847 441.667 156.432 442.251 153.216 443.461L149.998 439.225L141.3 444.678L143.686 449.421C141.202 451.806 139.188 454.643 137.752 457.783L132.508 457.087L130.216 467.109L135.24 468.785C135.138 472.28 135.703 475.762 136.904 479.044L132.696 482.205L138.16 490.915L142.87 488.528C145.235 491.035 148.054 493.063 151.175 494.503L150.485 499.783L160.438 502.091L162.103 497.032C165.534 497.102 168.947 496.522 172.166 495.325L175.306 499.546L183.973 494.092L181.586 489.35C184.071 486.959 186.085 484.116 187.521 480.972L192.827 481.636ZM159.543 482.948C156.877 482.331 154.453 480.931 152.577 478.927C150.7 476.922 149.457 474.402 149.003 471.686C148.549 468.969 148.906 466.179 150.028 463.666C151.149 461.154 152.986 459.033 155.305 457.572C157.623 456.11 160.321 455.374 163.055 455.456C165.79 455.538 168.439 456.435 170.667 458.032C172.896 459.63 174.603 461.858 175.574 464.433C176.545 467.008 176.736 469.815 176.123 472.499C175.3 476.098 173.091 479.221 169.982 481.18C166.873 483.14 163.118 483.776 159.543 482.948Z" fill="#F0F0F0"/>
<path d="M576.755 333.71C582.249 333.828 587.715 332.895 592.863 330.96L598.029 337.741L611.876 329.015L608.061 321.381C612.039 317.562 615.262 313.019 617.56 307.992L625.943 309.098L629.57 293.069L621.547 290.398C621.666 284.861 620.739 279.352 618.816 274.164L625.551 268.979L616.869 255.037L609.301 258.862C605.499 254.861 600.983 251.617 595.988 249.299L597.102 240.858L581.214 237.19L578.545 245.268C573.052 245.165 567.589 246.098 562.437 248.018L557.35 241.237L543.503 249.963L547.318 257.598C543.336 261.413 540.112 265.957 537.819 270.986L529.435 269.864L525.777 285.909L533.8 288.58C533.684 294.117 534.611 299.625 536.532 304.814L529.797 309.999L538.479 323.941L546.046 320.116C549.848 324.117 554.365 327.361 559.36 329.679L558.245 338.105L574.165 341.804L576.755 333.71ZM572.689 311.201C568.425 310.214 564.548 307.976 561.548 304.771C558.547 301.565 556.558 297.536 555.831 293.192C555.105 288.849 555.674 284.386 557.466 280.368C559.259 276.35 562.195 272.957 565.902 270.619C569.61 268.281 573.923 267.102 578.296 267.231C582.668 267.361 586.905 268.793 590.47 271.346C594.034 273.9 596.767 277.46 598.322 281.577C599.877 285.694 600.185 290.183 599.206 294.476C598.556 297.328 597.355 300.022 595.67 302.406C593.986 304.79 591.851 306.816 589.389 308.369C586.926 309.922 584.184 310.972 581.319 311.458C578.453 311.943 575.521 311.856 572.689 311.201Z" fill="#F0F0F0"/>
<path d="M392.5 589C560.62 589 696.907 580.989 696.907 571.106C696.907 561.223 560.62 553.212 392.5 553.212C224.381 553.212 88.0928 561.223 88.0928 571.106C88.0928 580.989 224.381 589 392.5 589Z" fill="#F5F5F5"/>
<path d="M187.646 464.343C187.646 464.343 201.682 467.852 204.744 480.15C208.653 473.1 216.958 464.77 234.574 461.735C234.574 461.735 231.654 493.523 201.227 491.31C201.25 490.781 201.303 490.253 201.384 489.729C196.548 487.58 187.976 481.273 187.646 464.343Z" fill="#8C3FD7"/>
<path opacity="0.2" d="M187.646 464.343C187.646 464.343 201.682 467.852 204.744 480.15C208.653 473.1 216.958 464.77 234.574 461.735C234.574 461.735 231.654 493.523 201.227 491.31C201.25 490.781 201.303 490.253 201.384 489.729C196.548 487.58 187.976 481.273 187.646 464.343Z" fill="black"/>
<path d="M229.754 566.253C211.919 575.627 207.366 568.735 207.366 568.735C207.366 568.735 199.092 575.39 183.988 567.454C174.804 562.617 166.326 549.766 162.008 535.729C157.032 519.463 157.707 501.585 169.482 492.938C189.091 478.522 206.958 490.283 206.958 490.283C206.958 490.283 224.055 481.399 240.854 490.883C241.613 491.322 242.337 491.819 243.02 492.369C261.295 506.849 246.961 557.227 229.754 566.253Z" fill="#8C3FD7"/>
<path opacity="0.2" d="M221.558 548.328C203.723 557.686 199.17 550.809 199.17 550.809C199.17 550.809 190.88 557.464 175.777 549.529C170.8 546.936 166.043 541.957 162.055 535.729C157.078 519.463 157.753 501.585 169.528 492.938C189.138 478.522 207.004 490.283 207.004 490.283C207.004 490.283 224.102 481.399 240.901 490.883C241.66 491.322 242.384 491.819 243.067 492.369C245.187 512.998 234.134 541.736 221.558 548.328Z" fill="white"/>
<path d="M287.765 515.622C295.615 512.034 304.062 511.449 306.951 514.531L305.71 515.954C305.71 515.954 297.342 510.453 287.765 517.803V515.622Z" fill="#8C3FD7"/>
<path d="M272.803 570.616C265.58 571.489 258.284 571.569 251.043 570.853C246.007 570.447 241.089 569.107 236.536 566.901L235.846 566.522C226.426 560.973 222.124 539.128 222.124 539.128L290.827 514.531V514.674C290.974 514.958 291.115 515.274 291.251 515.622C304.329 544.407 288.519 568.719 272.803 570.616Z" fill="#8C3FD7"/>
<path opacity="0.7" d="M268.47 568.608C243.35 568.909 222.108 539.128 222.108 539.128L290.811 514.531C301.44 536.63 293.59 568.292 268.47 568.608Z" fill="white"/>
<path opacity="0.2" d="M272.803 570.616C265.58 571.489 258.284 571.569 251.043 570.853C246.03 570.32 241.133 568.986 236.536 566.901L235.846 566.522C226.426 560.973 222.124 539.128 222.124 539.128C222.124 539.128 251.608 584.969 281.203 566.538C301.911 553.655 295.458 525.201 291.314 515.622C304.329 544.407 288.519 568.719 272.803 570.616Z" fill="black"/>
<path opacity="0.2" d="M262.803 525.549C263.367 525.323 263.95 525.148 264.545 525.027C266.335 524.695 267.999 523.81 269.868 524.111C270.385 524.153 270.867 524.39 271.218 524.774C271.462 525.188 271.562 525.672 271.5 526.15C271.534 527.245 271.297 528.331 270.81 529.311C270.439 529.916 269.966 530.451 269.412 530.892C268.042 531.985 266.42 532.711 264.696 533.004C262.972 533.297 261.203 533.147 259.553 532.568C258.701 532.328 257.938 531.845 257.355 531.177C257.068 530.839 256.893 530.421 256.853 529.979C256.814 529.537 256.912 529.094 257.135 528.711C257.452 528.326 257.856 528.022 258.312 527.825C259.759 526.97 261.258 526.209 262.803 525.549Z" fill="black"/>
<path d="M265.33 526.735C265.368 526.933 265.368 527.137 265.33 527.335C265.13 527.953 264.725 528.483 264.184 528.837C263.793 529.163 263.309 529.357 262.802 529.39C261.232 529.39 261.232 527.809 261.798 526.719C262.363 525.628 265.204 524.79 265.33 526.735Z" fill="#263238"/>
<path d="M431.609 423.718C431.609 423.718 426.318 436.632 401.481 445.074C376.643 453.515 352.811 479.85 386.456 501.411" stroke="#263238" stroke-width="2" stroke-miterlimit="10"/>
<path d="M435.785 431.922C435.785 431.922 421.137 446.006 387.397 460.707C353.658 475.408 347.221 513.551 387.397 517.772" stroke="#263238" stroke-width="2" stroke-miterlimit="10"/>
<path d="M636.352 379.615C636.352 379.615 670.72 343.179 623.117 297.606C575.515 252.033 556.439 226.204 515.447 221.62" stroke="#8C3FD7" stroke-width="2" stroke-miterlimit="10"/>
<path d="M623.934 381.844C623.934 381.844 651.267 358.733 645.05 323.736C638.833 288.738 557.13 202.446 506.247 214.522" stroke="#263238" stroke-width="4" stroke-miterlimit="10"/>
<path d="M654.69 379.062L617.952 339.749C617.346 339.098 616.618 338.575 615.809 338.212C615 337.848 614.128 337.65 613.242 337.631C611.546 337.631 594.559 337.631 594.559 337.631C593.656 337.575 592.752 337.706 591.901 338.016C591.05 338.326 590.272 338.808 589.613 339.433L568.418 359.524C567.132 360.743 566.378 362.426 566.322 364.204C566.266 365.982 566.913 367.71 568.12 369.008L604.842 408.321C605.447 408.974 606.175 409.497 606.984 409.861C607.793 410.225 608.667 410.421 609.552 410.439C611.264 410.439 626.697 410.439 628.392 410.439C630.137 410.472 631.826 409.82 633.102 408.622L654.313 388.53C655.602 387.32 656.365 385.647 656.436 383.874C656.506 382.101 655.879 380.372 654.69 379.062Z" fill="#263238"/>
<path opacity="0.2" d="M654.69 379.062L617.952 339.749C617.346 339.098 616.618 338.575 615.809 338.212C615 337.848 614.128 337.65 613.242 337.631C611.546 337.631 594.559 337.631 594.559 337.631C593.656 337.575 592.752 337.706 591.901 338.016C591.05 338.326 590.272 338.808 589.613 339.433L568.418 359.524C567.132 360.743 566.378 362.426 566.322 364.204C566.266 365.982 566.913 367.71 568.12 369.008L604.842 408.321C605.447 408.974 606.175 409.497 606.984 409.861C607.793 410.225 608.667 410.421 609.552 410.439C611.264 410.439 626.697 410.439 628.392 410.439C630.137 410.472 631.826 409.82 633.102 408.622L654.313 388.53C655.602 387.32 656.365 385.647 656.436 383.874C656.506 382.101 655.879 380.372 654.69 379.062Z" fill="white"/>
<path opacity="0.2" d="M608.535 339.511L587.315 359.595C584.63 362.137 584.5 366.388 587.024 369.092L623.747 408.424C626.271 411.127 630.493 411.259 633.178 408.717L654.398 388.633C657.083 386.092 657.214 381.84 654.69 379.137L617.967 339.805C615.443 337.101 611.22 336.97 608.535 339.511Z" fill="black"/>
<path d="M606.679 396.418C604.909 394.812 602.805 393.623 600.522 392.936C598.238 392.25 595.831 392.084 593.476 392.451L564.336 423.512C562.421 425.567 564.336 429.661 569.565 434.024C575.703 439.098 580.633 438.592 582.125 437.059L611.484 405.65C611.336 403.866 610.835 402.13 610.01 400.544C609.185 398.958 608.052 397.556 606.679 396.418Z" fill="#8C3FD7"/>
<path opacity="0.2" d="M564.337 423.512C569.047 418.564 586.725 432.08 582.062 437.059C580.633 438.64 575.703 439.098 569.502 434.024C564.321 429.661 562.421 425.567 564.337 423.512Z" fill="black"/>
<path d="M519.576 516.001V534.132H479.242V516.001C479.247 512.13 480.777 508.419 483.497 505.684C486.217 502.948 489.904 501.411 493.749 501.411H505.069C508.914 501.411 512.601 502.948 515.321 505.684C518.041 508.419 519.572 512.13 519.576 516.001Z" fill="#263238"/>
<path opacity="0.2" d="M519.576 516.001V534.132H479.242V516.001C479.247 512.13 480.777 508.419 483.497 505.684C486.217 502.948 489.904 501.411 493.749 501.411H505.069C508.914 501.411 512.601 502.948 515.321 505.684C518.041 508.419 519.572 512.13 519.576 516.001Z" fill="white"/>
<path opacity="0.2" d="M519.576 516.001V534.132H487.093V516.001C487.093 512.132 488.619 508.421 491.337 505.685C494.054 502.948 497.74 501.411 501.584 501.411H505.069C508.914 501.411 512.601 502.948 515.321 505.684C518.041 508.419 519.572 512.13 519.576 516.001Z" fill="black"/>
<path d="M579.095 436.616L578.105 437.676L507.11 513.662C506.348 514.478 505.434 515.134 504.42 515.595C503.406 516.055 502.312 516.309 501.201 516.344C500.089 516.378 498.982 516.192 497.942 515.796C496.901 515.399 495.949 514.8 495.139 514.033C494.328 513.266 493.676 512.346 493.219 511.325C492.762 510.304 492.509 509.203 492.475 508.084C492.441 506.964 492.626 505.849 493.019 504.802C493.413 503.755 494.008 502.796 494.77 501.98L564.18 427.685L565.75 426.105C570.177 424.429 580.774 432.649 579.095 436.616Z" fill="#8C3FD7"/>
<path d="M535.276 516.001V534.132H494.958V516.001C494.958 512.132 496.485 508.421 499.203 505.685C501.92 502.948 505.606 501.411 509.449 501.411H520.785C524.628 501.411 528.314 502.948 531.031 505.685C533.749 508.421 535.276 512.132 535.276 516.001Z" fill="#263238"/>
<path opacity="0.2" d="M535.276 516.001V534.132H494.958V516.001C494.958 512.132 496.485 508.421 499.203 505.685C501.92 502.948 505.606 501.411 509.449 501.411H520.785C524.628 501.411 528.314 502.948 531.031 505.685C533.749 508.421 535.276 512.132 535.276 516.001Z" fill="white"/>
<path opacity="0.2" d="M535.276 516.001V534.132H502.808V516.001C502.808 512.132 504.335 508.421 507.053 505.685C509.77 502.948 513.456 501.411 517.299 501.411H520.785C524.628 501.411 528.314 502.948 531.032 505.685C533.749 508.421 535.276 512.132 535.276 516.001Z" fill="black"/>
<path d="M466.981 524.095V564.799H547.93V524.095C547.93 522.837 547.434 521.631 546.551 520.742C545.667 519.852 544.469 519.353 543.22 519.353H471.628C470.39 519.369 469.208 519.876 468.338 520.764C467.468 521.651 466.981 522.848 466.981 524.095Z" fill="#263238"/>
<path opacity="0.2" d="M466.981 524.095V564.799H547.93V524.095C547.93 522.837 547.434 521.631 546.551 520.742C545.667 519.852 544.469 519.353 543.22 519.353H471.628C470.39 519.369 469.208 519.876 468.338 520.764C467.468 521.651 466.981 522.848 466.981 524.095Z" fill="white"/>
<path opacity="0.2" d="M466.981 524.095V564.799H519.67V524.095C519.67 522.837 519.174 521.631 518.291 520.742C517.407 519.852 516.209 519.353 514.96 519.353H471.628C470.39 519.369 469.208 519.876 468.338 520.764C467.468 521.651 466.981 522.848 466.981 524.095Z" fill="white"/>
<path d="M448.266 500.7V536.962H367.615V500.7C367.613 496.864 368.362 493.066 369.818 489.522C371.275 485.978 373.41 482.757 376.103 480.045C378.796 477.332 381.994 475.18 385.513 473.712C389.032 472.243 392.804 471.488 396.613 471.488H419.268C423.078 471.488 426.85 472.243 430.369 473.712C433.888 475.18 437.086 477.332 439.779 480.045C442.472 482.757 444.607 485.978 446.064 489.522C447.52 493.066 448.268 496.864 448.266 500.7Z" fill="#8C3FD7"/>
<path opacity="0.2" d="M448.266 500.7V536.962H383.315V500.7C383.311 496.865 384.058 493.067 385.513 489.523C386.967 485.979 389.101 482.759 391.793 480.046C394.485 477.333 397.681 475.18 401.199 473.712C404.718 472.244 408.489 471.488 412.298 471.488H419.268C423.078 471.488 426.85 472.243 430.369 473.712C433.888 475.18 437.086 477.332 439.779 480.045C442.472 482.757 444.607 485.978 446.064 489.522C447.52 493.066 448.268 496.864 448.266 500.7Z" fill="black"/>
<path d="M529.953 394.885L520.926 404.559L508.963 417.363L476.935 451.665C476.51 452.116 475.999 452.475 475.432 452.72C474.865 452.964 474.254 453.09 473.638 453.088H459.916C458.75 453.105 457.623 452.662 456.776 451.855L423.413 420.24C422.545 419.41 422.038 418.268 422.003 417.062C421.967 415.857 422.407 414.687 423.225 413.806L476.244 357.042C476.659 356.596 477.16 356.238 477.715 355.991C478.271 355.744 478.871 355.612 479.478 355.604H493.263C494.428 355.592 495.553 356.033 496.403 356.837L520.91 380.042L529.749 388.42C530.185 388.83 530.536 389.324 530.782 389.871C531.028 390.418 531.165 391.009 531.184 391.61C531.203 392.21 531.104 392.809 530.893 393.371C530.682 393.933 530.362 394.447 529.953 394.885Z" fill="#263238"/>
<path opacity="0.3" d="M529.953 394.885L520.926 404.559L508.963 417.363L476.935 451.665C476.51 452.116 475.999 452.475 475.432 452.72C474.865 452.964 474.254 453.09 473.638 453.088H459.916C458.75 453.105 457.623 452.662 456.776 451.855L423.413 420.24C422.545 419.41 422.038 418.268 422.003 417.062C421.967 415.857 422.407 414.687 423.225 413.806L476.244 357.042C476.659 356.596 477.16 356.238 477.715 355.991C478.271 355.744 478.871 355.612 479.478 355.604H493.263C494.428 355.592 495.553 356.033 496.403 356.837L520.91 380.042L529.749 388.42C530.185 388.83 530.536 389.324 530.782 389.871C531.028 390.418 531.165 391.009 531.184 391.61C531.203 392.21 531.104 392.809 530.893 393.371C530.682 393.933 530.362 394.447 529.953 394.885Z" fill="white"/>
<path opacity="0.2" d="M520.926 380.073V404.559L508.963 417.363H424.905C424.501 417.366 424.106 417.253 423.764 417.037C423.422 416.821 423.149 416.512 422.976 416.145C422.802 415.778 422.737 415.369 422.787 414.966C422.836 414.563 422.999 414.183 423.256 413.87L476.275 357.105C476.691 356.659 477.191 356.302 477.747 356.055C478.303 355.807 478.902 355.676 479.509 355.667H493.294C494.459 355.655 495.584 356.097 496.434 356.9L520.926 380.073Z" fill="white"/>
<path d="M587.18 335.686C584.303 331.963 580.619 328.951 576.41 326.88C572.201 324.809 567.577 323.734 562.892 323.736C559.752 323.736 547.993 323.736 545.025 323.736C540.764 323.686 536.539 324.531 532.62 326.215C528.7 327.9 525.172 330.388 522.26 333.521L441.829 419.639H544.68L585.327 376.106C590.379 370.701 593.342 363.655 593.682 356.241C594.022 348.828 591.715 341.536 587.18 335.686Z" fill="#263238"/>
<path opacity="0.6" d="M587.18 335.686C584.303 331.963 580.619 328.951 576.41 326.88C572.201 324.809 567.577 323.734 562.892 323.736C559.752 323.736 547.993 323.736 545.025 323.736C540.764 323.686 536.539 324.531 532.62 326.215C528.7 327.9 525.172 330.388 522.26 333.521L441.829 419.639H544.68L585.327 376.106C590.379 370.701 593.342 363.655 593.682 356.241C594.022 348.828 591.715 341.536 587.18 335.686Z" fill="white"/>
<path opacity="0.2" d="M587.18 335.686C584.441 332.15 580.973 329.253 577.017 327.194C573.06 325.134 568.708 323.961 564.258 323.755C559.809 323.55 555.368 324.316 551.24 326.002C547.113 327.687 543.397 330.252 540.347 333.521L460.01 419.639H544.79L585.437 376.106C590.473 370.687 593.416 363.634 593.736 356.221C594.055 348.807 591.73 341.524 587.18 335.686Z" fill="black"/>
<path d="M572.548 391.629L526.704 348.221C525.551 347.143 524.038 346.539 522.465 346.53C520.8 346.53 505.053 346.53 503.499 346.53C502.668 346.539 501.847 346.717 501.086 347.054C500.325 347.391 499.64 347.879 499.072 348.49L426.161 426.547C425.045 427.764 424.448 429.373 424.498 431.028C424.548 432.683 425.241 434.253 426.428 435.399L472.288 478.822C473.432 479.915 474.95 480.52 476.526 480.514H495.366C496.213 480.517 497.052 480.345 497.83 480.007C498.608 479.67 499.308 479.175 499.888 478.554L572.783 400.481C573.903 399.268 574.506 397.662 574.462 396.006C574.418 394.351 573.73 392.779 572.548 391.629Z" fill="#8C3FD7"/>
<g opacity="0.2">
<path d="M572.814 400.481L499.919 478.554C498.781 479.744 497.226 480.439 495.586 480.489C493.945 480.539 492.351 479.941 491.143 478.822L445.283 435.399C444.094 434.255 443.398 432.687 443.346 431.031C443.293 429.376 443.887 427.766 445.001 426.547L517.912 348.49C519.05 347.295 520.609 346.598 522.253 346.547C523.897 346.497 525.495 347.098 526.704 348.222L572.548 391.629C573.734 392.775 574.427 394.345 574.477 396C574.527 397.655 573.93 399.264 572.814 400.481Z" fill="black"/>
</g>
<path d="M489.966 478.111H490.154L456.65 513.978C452.656 518.277 447.525 521.337 441.861 522.799L440.825 523.036C439.178 523.409 437.502 523.641 435.816 523.731H434.246H416.05C410.027 523.728 404.137 521.951 399.105 518.618C394.073 515.286 390.119 510.544 387.731 504.977C385.342 499.41 384.624 493.261 385.664 487.288C386.704 481.315 389.457 475.778 393.583 471.361L426.805 435.795H444.891L489.966 478.111Z" fill="#263238"/>
<path opacity="0.6" d="M489.966 478.111H490.154L456.65 513.978C452.656 518.277 447.525 521.337 441.861 522.799L440.825 523.036C439.178 523.409 437.502 523.641 435.816 523.731H434.246H416.05C410.027 523.728 404.137 521.951 399.105 518.618C394.073 515.286 390.119 510.544 387.731 504.977C385.342 499.41 384.624 493.261 385.664 487.288C386.704 481.315 389.457 475.778 393.583 471.361L426.805 435.795H444.891L489.966 478.111Z" fill="white"/>
<path opacity="0.2" d="M490.154 478.048L456.65 513.915C452.656 518.214 447.525 521.274 441.861 522.735L440.825 522.972C439.177 523.346 437.502 523.578 435.816 523.668H434.246H433.555C427.574 523.571 421.749 521.725 416.79 518.356C411.831 514.987 407.951 510.24 405.623 504.691C403.294 499.143 402.617 493.033 403.674 487.105C404.731 481.176 407.476 475.685 411.575 471.298L444.797 435.731L489.871 478.079L490.154 478.048Z" fill="black"/>
<path d="M432.708 195.364C435.585 191.647 439.267 188.641 443.474 186.576C447.68 184.51 452.3 183.439 456.98 183.445C460.042 183.445 471.879 183.445 474.847 183.445C479.108 183.395 483.333 184.24 487.252 185.924C491.172 187.609 494.7 190.097 497.612 193.23L626.352 331.039C631.405 336.447 634.368 343.497 634.705 350.914C635.042 358.331 632.73 365.625 628.189 371.474C625.304 375.204 621.61 378.218 617.389 380.287C613.168 382.356 608.532 383.424 603.838 383.409H585.61C581.418 383.401 577.271 382.529 573.426 380.846C569.581 379.163 566.119 376.705 563.253 373.624L434.513 235.815C429.455 230.406 426.491 223.349 426.159 215.927C425.828 208.504 428.151 201.208 432.708 195.364Z" fill="#263238"/>
<path opacity="0.6" d="M432.708 195.364C435.585 191.647 439.267 188.641 443.474 186.576C447.68 184.51 452.3 183.439 456.98 183.445C460.042 183.445 471.879 183.445 474.847 183.445C479.108 183.395 483.333 184.24 487.252 185.924C491.172 187.609 494.7 190.097 497.612 193.23L626.352 331.039C631.405 336.447 634.368 343.497 634.705 350.914C635.042 358.331 632.73 365.625 628.189 371.474C625.304 375.204 621.61 378.218 617.389 380.287C613.168 382.356 608.532 383.424 603.838 383.409H585.61C581.418 383.401 577.271 382.529 573.426 380.846C569.581 379.163 566.119 376.705 563.253 373.624L434.513 235.815C429.455 230.406 426.491 223.349 426.159 215.927C425.828 208.504 428.151 201.208 432.708 195.364Z" fill="white"/>
<path opacity="0.2" d="M628.141 371.443C632.683 365.593 634.995 358.3 634.658 350.883C634.321 343.465 631.358 336.415 626.305 331.007L497.565 193.198C494.513 189.932 490.797 187.369 486.669 185.685C482.542 184.001 478.102 183.236 473.654 183.442C469.205 183.647 464.853 184.819 460.897 186.877C456.94 188.935 453.472 191.83 450.731 195.364C446.196 201.214 443.89 208.505 444.229 215.919C444.569 223.332 447.533 230.379 452.584 235.783L581.324 373.592C584.373 376.859 588.087 379.423 592.212 381.108C596.338 382.793 600.776 383.56 605.224 383.356C609.671 383.152 614.022 381.981 617.978 379.925C621.934 377.869 625.401 374.975 628.141 371.443Z" fill="black"/>
<path d="M478.332 500.7V536.962H397.681V500.7C397.679 496.864 398.428 493.066 399.884 489.522C401.34 485.978 403.476 482.757 406.169 480.045C408.862 477.332 412.059 475.18 415.578 473.712C419.098 472.243 422.87 471.488 426.679 471.488H449.334C453.144 471.488 456.916 472.243 460.435 473.712C463.954 475.18 467.151 477.332 469.844 480.045C472.537 482.757 474.673 485.978 476.129 489.522C477.586 493.066 478.334 496.864 478.332 500.7Z" fill="#8C3FD7"/>
<path opacity="0.2" d="M478.332 500.7V536.962H413.381V500.7C413.377 496.865 414.124 493.067 415.578 489.523C417.033 485.979 419.167 482.759 421.859 480.046C424.55 477.333 427.747 475.18 431.265 473.712C434.783 472.244 438.555 471.488 442.363 471.488H449.334C453.144 471.488 456.916 472.243 460.435 473.712C463.954 475.18 467.151 477.332 469.844 480.045C472.537 482.757 474.673 485.978 476.129 489.522C477.586 493.066 478.334 496.864 478.332 500.7Z" fill="black"/>
<path d="M512.165 533.801V565.02H332.181V533.801C332.181 532.543 332.677 531.337 333.56 530.447C334.443 529.558 335.641 529.058 336.891 529.058H507.518C508.757 529.075 509.938 529.582 510.808 530.469C511.678 531.357 512.166 532.554 512.165 533.801Z" fill="#8C3FD7"/>
<path opacity="0.2" d="M512.166 533.801V565.02H410.728V533.801C410.728 532.543 411.224 531.337 412.107 530.447C412.991 529.558 414.189 529.058 415.438 529.058H507.581C508.808 529.091 509.974 529.605 510.831 530.491C511.687 531.377 512.166 532.564 512.166 533.801Z" fill="black"/>
<path opacity="0.2" d="M512.165 533.801V565.02H332.181V533.801C332.181 532.543 332.677 531.337 333.56 530.447C334.443 529.558 335.641 529.058 336.891 529.058H507.518C508.757 529.075 509.938 529.582 510.808 530.469C511.678 531.357 512.166 532.554 512.165 533.801Z" fill="black"/>
<path d="M559.956 566.68V571.343H319.354V566.68C319.352 565.722 319.537 564.772 319.9 563.886C320.263 563 320.796 562.195 321.468 561.517C322.14 560.839 322.939 560.3 323.818 559.933C324.697 559.566 325.64 559.377 326.591 559.377H552.64C553.598 559.369 554.548 559.551 555.435 559.915C556.322 560.278 557.129 560.814 557.81 561.493C558.49 562.172 559.03 562.98 559.398 563.871C559.767 564.761 559.956 565.716 559.956 566.68Z" fill="#263238"/>
<path opacity="0.2" d="M559.956 566.68V571.343H319.354V566.68C319.352 565.722 319.537 564.772 319.9 563.886C320.263 563 320.796 562.195 321.468 561.517C322.14 560.839 322.939 560.3 323.818 559.933C324.697 559.566 325.64 559.377 326.591 559.377H552.64C553.598 559.369 554.548 559.551 555.435 559.915C556.322 560.278 557.129 560.814 557.81 561.493C558.49 562.172 559.03 562.98 559.398 563.871C559.767 564.761 559.956 565.716 559.956 566.68Z" fill="white"/>
<path opacity="0.2" d="M559.956 566.68V571.343H397.901V566.68C397.899 565.722 398.085 564.772 398.447 563.886C398.81 563 399.343 562.195 400.015 561.517C400.687 560.839 401.486 560.3 402.365 559.933C403.244 559.566 404.187 559.377 405.139 559.377H552.719C554.64 559.381 556.48 560.152 557.837 561.521C559.194 562.891 559.956 564.746 559.956 566.68Z" fill="black"/>
<path d="M451.563 482.015H447.01C436.601 482.015 428.17 492.053 428.17 504.446C428.17 516.839 436.601 526.877 447.01 526.877H451.563C461.973 526.877 470.403 516.823 470.403 504.446C470.403 492.069 461.973 482.015 451.563 482.015Z" fill="#263238"/>
<path opacity="0.2" d="M451.563 482.015H447.01C436.601 482.015 428.17 492.053 428.17 504.446C428.17 516.839 436.601 526.877 447.01 526.877H451.563C461.973 526.877 470.403 516.823 470.403 504.446C470.403 492.069 461.973 482.015 451.563 482.015Z" fill="white"/>
<path opacity="0.2" d="M451.563 526.877C461.968 526.877 470.403 516.834 470.403 504.446C470.403 492.058 461.968 482.015 451.563 482.015C441.158 482.015 432.723 492.058 432.723 504.446C432.723 516.834 441.158 526.877 451.563 526.877Z" fill="black"/>
<path d="M457.262 491.121H454.546C448.361 491.121 443.352 497.08 443.352 504.446C443.352 511.812 448.361 517.772 454.546 517.772H457.262C463.433 517.772 468.457 511.812 468.457 504.446C468.457 497.08 463.433 491.121 457.262 491.121Z" fill="#263238"/>
<path opacity="0.6" d="M457.262 491.121H454.546C448.361 491.121 443.352 497.08 443.352 504.446C443.352 511.812 448.361 517.772 454.546 517.772H457.262C463.433 517.772 468.457 511.812 468.457 504.446C468.457 497.08 463.433 491.121 457.262 491.121Z" fill="white"/>
<path opacity="0.2" d="M457.262 517.772C463.445 517.772 468.457 511.806 468.457 504.446C468.457 497.087 463.445 491.121 457.262 491.121C451.08 491.121 446.068 497.087 446.068 504.446C446.068 511.806 451.08 517.772 457.262 517.772Z" fill="black"/>
<path d="M613.242 328.51H608.689C598.28 328.51 589.849 338.547 589.849 350.94C589.849 363.333 598.28 373.371 608.689 373.371H613.242C623.636 373.371 632.082 363.333 632.082 350.94C632.082 338.547 623.636 328.51 613.242 328.51Z" fill="#263238"/>
<path opacity="0.2" d="M613.242 328.51H608.689C598.28 328.51 589.849 338.547 589.849 350.94C589.849 363.333 598.28 373.371 608.689 373.371H613.242C623.636 373.371 632.082 363.333 632.082 350.94C632.082 338.547 623.636 328.51 613.242 328.51Z" fill="white"/>
<path opacity="0.2" d="M613.242 373.371C623.647 373.371 632.082 363.329 632.082 350.94C632.082 338.552 623.647 328.51 613.242 328.51C602.837 328.51 594.402 338.552 594.402 350.94C594.402 363.329 602.837 373.371 613.242 373.371Z" fill="black"/>
<path d="M618.926 337.615H616.225C610.039 337.615 605.031 343.574 605.031 350.94C605.031 358.307 610.039 364.266 616.225 364.266H618.926C625.111 364.266 630.12 358.307 630.12 350.94C630.12 343.574 625.111 337.615 618.926 337.615Z" fill="#263238"/>
<path opacity="0.6" d="M618.926 337.615H616.225C610.039 337.615 605.031 343.574 605.031 350.94C605.031 358.307 610.039 364.266 616.225 364.266H618.926C625.111 364.266 630.12 358.307 630.12 350.94C630.12 343.574 625.111 337.615 618.926 337.615Z" fill="white"/>
<path opacity="0.2" d="M618.925 364.266C625.108 364.266 630.119 358.3 630.119 350.94C630.119 343.581 625.108 337.615 618.925 337.615C612.743 337.615 607.731 343.581 607.731 350.94C607.731 358.3 612.743 364.266 618.925 364.266Z" fill="black"/>
<path d="M430.054 175.937C425.914 176.005 421.808 176.698 417.871 177.991L387.272 190.179V249.125L417.871 261.312C422.237 262.753 426.811 263.448 431.405 263.367C431.405 263.367 481.864 263.446 486.355 263.367C507.22 263.02 526.798 246.675 526.798 219.66C526.798 192.108 506.388 175.652 485.099 175.937C485.13 175.937 438.988 175.81 430.054 175.937Z" fill="#8C3FD7"/>
<path opacity="0.2" d="M472.853 177.991L435.973 190.179V249.125L472.853 261.312C497.878 269.58 526.829 252.508 526.829 219.66C526.829 186.812 497.878 169.74 472.853 177.991Z" fill="black"/>
<path d="M501.913 197.213H497.36C486.951 197.213 478.52 207.251 478.52 219.644C478.52 232.037 486.951 242.075 497.36 242.075H501.913C512.322 242.075 520.753 232.037 520.753 219.644C520.753 207.251 512.322 197.213 501.913 197.213Z" fill="#263238"/>
<path opacity="0.2" d="M501.913 197.213H497.36C486.951 197.213 478.52 207.251 478.52 219.644C478.52 232.037 486.951 242.075 497.36 242.075H501.913C512.322 242.075 520.753 232.037 520.753 219.644C520.753 207.251 512.322 197.213 501.913 197.213Z" fill="white"/>
<path opacity="0.2" d="M501.913 242.075C512.318 242.075 520.753 232.032 520.753 219.644C520.753 207.256 512.318 197.213 501.913 197.213C491.508 197.213 483.073 207.256 483.073 219.644C483.073 232.032 491.508 242.075 501.913 242.075Z" fill="black"/>
<path d="M507.612 206.318H504.896C498.71 206.318 493.702 212.278 493.702 219.644C493.702 227.01 498.71 232.97 504.896 232.97H507.612C513.798 232.97 518.806 227.01 518.806 219.644C518.806 212.278 513.798 206.318 507.612 206.318Z" fill="#263238"/>
<path opacity="0.6" d="M507.612 206.318H504.896C498.71 206.318 493.702 212.278 493.702 219.644C493.702 227.01 498.71 232.97 504.896 232.97H507.612C513.798 232.97 518.806 227.01 518.806 219.644C518.806 212.278 513.798 206.318 507.612 206.318Z" fill="white"/>
<path opacity="0.2" d="M507.613 232.97C513.795 232.97 518.807 227.004 518.807 219.644C518.807 212.284 513.795 206.318 507.613 206.318C501.43 206.318 496.418 212.284 496.418 219.644C496.418 227.004 501.43 232.97 507.613 232.97Z" fill="black"/>
<path d="M406.128 179.414H414.292C432.943 179.414 448.078 197.435 448.078 219.644C448.078 241.853 432.943 259.858 414.292 259.858H406.128C387.46 259.858 372.341 241.853 372.341 219.644C372.341 197.435 387.46 179.414 406.128 179.414Z" fill="#263238"/>
<path opacity="0.2" d="M406.128 179.414H414.292C432.943 179.414 448.078 197.435 448.078 219.644C448.078 241.853 432.943 259.858 414.292 259.858H406.128C387.46 259.858 372.341 241.853 372.341 219.644C372.341 197.435 387.46 179.414 406.128 179.414Z" fill="white"/>
<path opacity="0.2" d="M406.128 259.874C424.787 259.874 439.914 241.862 439.914 219.644C439.914 197.426 424.787 179.414 406.128 179.414C387.468 179.414 372.341 197.426 372.341 219.644C372.341 241.862 387.468 259.874 406.128 259.874Z" fill="white"/>
<path d="M395.405 187.381H352.544C337.44 187.381 325.21 201.829 325.21 219.644C325.21 237.459 337.44 251.907 352.544 251.907H395.405C410.492 251.907 422.738 237.459 422.738 219.644C422.738 201.829 410.492 187.381 395.405 187.381Z" fill="#263238"/>
<path opacity="0.6" d="M395.405 187.381H352.544C337.44 187.381 325.21 201.829 325.21 219.644C325.21 237.459 337.44 251.907 352.544 251.907H395.405C410.492 251.907 422.738 237.459 422.738 219.644C422.738 201.829 410.492 187.381 395.405 187.381Z" fill="white"/>
<path d="M343.281 179.414H351.445C370.112 179.414 385.231 197.435 385.231 219.644C385.231 241.853 370.112 259.858 351.445 259.858H343.281C324.629 259.858 309.494 241.853 309.494 219.644C309.494 197.435 324.629 179.414 343.281 179.414Z" fill="#263238"/>
<path opacity="0.2" d="M343.281 179.414H351.445C370.112 179.414 385.231 197.435 385.231 219.644C385.231 241.853 370.112 259.858 351.445 259.858H343.281C324.629 259.858 309.494 241.853 309.494 219.644C309.494 197.435 324.629 179.414 343.281 179.414Z" fill="white"/>
<path opacity="0.2" d="M343.281 259.874C361.94 259.874 377.067 241.862 377.067 219.644C377.067 197.426 361.94 179.414 343.281 179.414C324.621 179.414 309.494 197.426 309.494 219.644C309.494 241.862 324.621 259.874 343.281 259.874Z" fill="white"/>
<path d="M269.773 189.389L279.523 182.734L306.794 183.24L338.853 179.967C338.853 179.967 351.743 186.132 360.519 194.51C360.519 194.51 370.379 212.262 365.449 242.612L353.391 261.249L334.755 262.119L313.011 260L298.724 236.289L268.47 210.871L269.773 189.389Z" fill="#263238"/>
<path opacity="0.2" d="M365.449 242.628L353.391 261.249L334.755 262.119L313.011 260L298.74 236.289L268.47 210.871L269.852 189.389L279.586 182.75L306.856 183.24L338.916 179.967C338.916 179.967 351.806 186.132 360.582 194.51C360.519 194.51 370.379 212.262 365.449 242.628Z" fill="white"/>
<path opacity="0.2" d="M365.449 242.628L353.391 261.249L344.364 245.979L345.196 226.71L317.627 229.192L304.439 235.436L310.185 250.895L321.991 248.967L353.391 261.249L313.011 260L298.724 236.289L270.605 213.1L294.909 207.093L321.222 223.122H346.342L333.782 207.061L338.994 179.967C338.994 179.967 351.884 186.132 360.66 194.51C360.519 194.51 370.379 212.262 365.449 242.628Z" fill="black"/>
<path d="M237.384 203.062C236.473 201.26 236.269 191.191 237.258 189.942C238.248 188.693 258.909 179.778 276.665 182.86L283.024 200.944L271.563 209.622L253.382 211.756L237.384 203.062Z" fill="#263238"/>
<path opacity="0.4" d="M237.384 203.062C236.473 201.26 236.269 191.191 237.258 189.942C238.248 188.693 258.909 179.778 276.665 182.86L283.024 200.944L271.563 209.622L253.382 211.756L237.384 203.062Z" fill="white"/>
<path opacity="0.2" d="M283.024 200.944L271.563 209.622L253.382 211.756L237.384 203.062C236.473 201.26 236.269 191.191 237.258 189.942C237.258 189.942 250.698 188.788 253.288 189.942C255.879 191.096 268.392 205.591 268.392 205.591L283.024 200.944Z" fill="black"/>
<path d="M248.06 191.491L228.199 202.287L230.24 253.235C230.24 253.235 242.125 252.713 246.254 249.583C250.384 246.453 261.326 205.67 261.326 205.67L248.06 191.491Z" fill="#263238"/>
<path opacity="0.6" d="M261.358 205.67C261.358 205.67 250.368 246.469 246.286 249.599C242.204 252.729 230.994 253.203 230.288 253.235L228.247 202.272L248.06 191.491L261.358 205.67Z" fill="white"/>
<path opacity="0.2" d="M261.358 205.67C261.358 205.67 250.368 246.469 246.286 249.599C242.204 252.729 230.994 253.203 230.288 253.235C239.566 250.279 241.623 245.205 241.623 245.205L248.091 191.459L261.358 205.67Z" fill="black"/>
<path d="M301.927 277.926L301.456 271.84L318.71 251.117L337.88 248.129L351.272 263.225L327.722 285.023L313.466 289.766L301.927 277.926Z" fill="#263238"/>
<path opacity="0.4" d="M351.272 263.241L327.722 285.023L313.466 289.766L301.927 277.926L301.456 271.84L318.726 251.117L337.911 248.145L351.272 263.241Z" fill="white"/>
<path opacity="0.2" d="M351.272 263.241L327.722 285.023L313.466 289.766L301.927 277.926L301.456 271.84L319.589 269.437L337.896 248.145L351.272 263.241Z" fill="black"/>
<path d="M272.976 300.957C272.693 290.667 298.661 275.792 298.661 275.792L318.71 274.211L324.613 288.88L289.43 303.107L272.976 300.957Z" fill="#263238"/>
<path opacity="0.6" d="M324.613 288.88L289.414 303.107L272.976 300.957C272.678 290.667 298.661 275.808 298.661 275.808L318.71 274.227L324.613 288.88Z" fill="white"/>
<path opacity="0.2" d="M324.613 288.88L289.414 303.107L272.976 300.957L289.037 300.815C289.037 300.815 293.747 284.043 318.71 274.211L324.613 288.88Z" fill="black"/>
<path d="M261.672 203.189C261.672 203.189 248.06 208.057 246.207 220.577C241.623 213.953 232.548 206.461 214.713 205.18C214.713 205.18 220.711 236.542 250.823 231.326C250.756 230.793 250.657 230.265 250.525 229.745C255.078 227.2 262.991 220.071 261.672 203.189Z" fill="#8C3FD7"/>
<path opacity="0.2" d="M261.672 203.189C261.672 203.189 248.06 208.057 246.207 220.577C241.623 213.953 232.548 206.461 214.713 205.18C214.713 205.18 220.711 236.542 250.823 231.326C250.756 230.793 250.657 230.265 250.525 229.745C255.078 227.2 262.991 220.071 261.672 203.189Z" fill="black"/>
<path d="M294.249 293.891C280.543 308.703 273.965 303.739 273.965 303.739C273.965 303.739 268.36 312.797 251.498 310.379C241.231 308.908 228.985 299.63 220.318 287.837C210.239 274.164 204.979 257.076 213.206 244.983C226.928 224.813 247.668 229.903 247.668 229.903C247.668 229.903 260.84 215.787 279.821 219.107C280.685 219.252 281.536 219.468 282.365 219.755C304.329 227.311 307.5 279.602 294.249 293.891Z" fill="#8C3FD7"/>
<path opacity="0.2" d="M280.59 279.76C266.869 294.555 260.306 289.592 260.306 289.592C260.306 289.592 254.701 298.649 237.824 296.247C232.266 295.456 226.143 292.374 220.318 287.837C210.239 274.164 204.979 257.076 213.206 244.983C226.928 224.813 247.668 229.903 247.668 229.903C247.668 229.903 260.84 215.787 279.821 219.107C280.685 219.252 281.536 219.468 282.365 219.755C291.188 238.502 290.262 269.311 280.59 279.76Z" fill="white"/>
<path d="M288.425 183.239L293.402 177.754C293.402 177.754 312.54 172.506 320.767 173.613C325.69 174.268 330.441 175.879 334.755 178.355L331.945 203.647C331.945 203.647 306.825 208.737 302.398 206.413C297.97 204.089 288.425 183.239 288.425 183.239Z" fill="#263238"/>
<path opacity="0.4" d="M334.755 178.355L331.945 203.647C331.945 203.647 306.825 208.721 302.413 206.397C298.002 204.074 288.425 183.176 288.425 183.176L293.402 177.691C293.402 177.691 312.54 172.459 320.767 173.55C325.695 174.225 330.445 175.857 334.755 178.355Z" fill="white"/>
<path opacity="0.2" d="M331.945 203.71C331.945 203.71 306.825 208.784 302.413 206.461C298.002 204.137 288.425 183.24 288.425 183.24C288.425 183.24 305.412 180.631 309.808 182.781C314.204 184.931 319.668 201.576 319.668 201.576L331.945 203.71Z" fill="black"/>
<path d="M266.9 244.256L283.024 183.224H306.794L313.074 200.77C313.074 200.77 292.837 240.352 285.52 244.256C278.204 248.161 266.9 244.256 266.9 244.256Z" fill="#263238"/>
<path opacity="0.6" d="M313.027 200.833C313.027 200.833 292.836 240.352 285.52 244.256C278.204 248.161 266.916 244.256 266.916 244.256L283.04 183.24H306.794L313.027 200.833Z" fill="white"/>
<path opacity="0.2" d="M313.027 200.833C313.027 200.833 292.836 240.352 285.52 244.256C278.204 248.161 266.916 244.256 266.916 244.256C280.826 244.715 283.212 239.308 283.212 239.308L306.762 183.24L313.027 200.833Z" fill="black"/>
<path d="M182.779 109.15H227.886C229.709 109.148 231.516 109.508 233.202 110.209C234.887 110.911 236.419 111.94 237.709 113.237C239 114.535 240.024 116.076 240.722 117.773C241.421 119.469 241.78 121.288 241.78 123.124V162.642C241.78 166.353 240.316 169.911 237.71 172.535C235.105 175.158 231.571 176.632 227.886 176.632H224.18V189.104L214.76 176.632H182.779C180.956 176.632 179.15 176.27 177.465 175.567C175.78 174.864 174.249 173.833 172.96 172.534C171.671 171.234 170.649 169.692 169.953 167.995C169.256 166.298 168.899 164.479 168.901 162.642V123.124C168.901 119.418 170.363 115.864 172.966 113.243C175.568 110.622 179.099 109.15 182.779 109.15Z" fill="#8C3FD7"/>
<path opacity="0.7" d="M182.779 109.15H227.886C229.709 109.148 231.516 109.508 233.202 110.209C234.887 110.911 236.419 111.94 237.709 113.237C239 114.535 240.024 116.076 240.722 117.773C241.421 119.469 241.78 121.288 241.78 123.124V162.642C241.78 166.353 240.316 169.911 237.71 172.535C235.105 175.158 231.571 176.632 227.886 176.632H224.18V189.104L214.76 176.632H182.779C180.956 176.632 179.15 176.27 177.465 175.567C175.78 174.864 174.249 173.833 172.96 172.534C171.671 171.234 170.649 169.692 169.953 167.995C169.256 166.298 168.899 164.479 168.901 162.642V123.124C168.901 119.418 170.363 115.864 172.966 113.243C175.568 110.622 179.099 109.15 182.779 109.15Z" fill="white"/>
<path d="M205.34 134.837C196.281 125.353 186.124 129.257 186.124 138.489C186.124 147.72 205.34 160.508 205.34 160.508C205.34 160.508 224.51 147.736 224.51 138.489C224.51 129.241 214.399 125.353 205.34 134.837Z" fill="#8C3FD7"/>
</g>
<defs>
<clipPath id="clip0_127_463">
<rect width="785" height="589" fill="white"/>
</clipPath>
</defs>
</svg>
