<svg width="55" height="97" viewBox="0 0 55 97" fill="none" xmlns="http://www.w3.org/2000/svg">
<path d="M54.9781 48.4054C54.9781 63.5887 54.9837 78.7709 54.9948 93.952C54.9948 95.1775 54.7149 96.1126 53.5649 96.5386C53.1593 96.6693 52.736 96.7286 52.312 96.7141C36.4274 96.7216 20.5433 96.7216 4.6597 96.7141C3.87742 96.7141 3.09514 96.7301 2.31438 96.7046C0.901135 96.6567 0.0916206 95.811 0.00839958 94.3206C-0.00370529 94.1084 0.000833572 93.8946 0.000833572 93.6824C0.000833572 63.4775 0.000833572 33.2731 0.000833572 3.0693C0.000833572 2.02094 0.0855674 1.03004 1.01008 0.404535C1.30179 0.212367 1.62869 0.087307 1.96939 0.0375322C2.42231 -0.00253821 2.87726 -0.0105347 3.33119 0.013597C19.696 0.013597 36.0592 0.0194479 52.421 0.0311494C52.9885 0.0313964 53.5485 0.168387 54.0582 0.431662C54.8662 0.865683 54.9993 1.69383 54.9978 2.61294C54.9756 17.8792 54.9691 33.1433 54.9781 48.4054ZM45.2504 17.0984L45.5757 17.0346C45.615 16.6277 45.6846 16.2208 45.6861 15.8139C45.6952 11.7449 45.6952 7.67598 45.6861 3.60704C45.6861 2.23636 45.5787 2.13902 44.2411 2.13902H29.7909C28.5804 2.13902 28.4564 2.26668 28.4564 3.55438C28.4564 6.74571 28.4564 9.93704 28.4564 13.1284C28.4564 17.676 28.4564 22.2237 28.4564 26.7713C28.4564 27.7925 28.1689 28.0893 27.2686 28.0478C26.7405 28.0255 26.2094 28.0111 25.6813 28.0478C24.4043 28.1165 24.2227 27.9457 24.2227 26.6118C24.2227 18.9249 24.2227 11.2391 24.2227 3.55438C24.2227 2.24115 24.1304 2.1486 22.8927 2.1486C16.5638 2.1486 10.234 2.1486 3.90314 2.1486C3.62578 2.14107 3.34832 2.15922 3.07396 2.20285C2.56858 2.2954 1.97393 3.10281 2.06169 3.61501C2.17366 4.28041 2.70627 4.25328 3.1829 4.282C3.35994 4.29158 3.53697 4.282 3.71249 4.282C8.02485 4.282 12.3372 4.282 16.6496 4.26924C17.1792 4.26924 17.5711 4.38732 17.5862 5.01282C17.6119 6.02287 17.6195 7.03293 17.5862 8.04458C17.5711 8.57913 17.2836 8.84242 16.7298 8.78497C16.1033 8.72753 15.4709 8.7387 14.8399 8.7387C13.6294 8.7387 13.5068 8.86635 13.5053 10.1604V26.1969C13.5053 26.5431 13.5174 26.8894 13.5053 27.2341C13.4872 27.7399 13.2542 28.0175 12.7488 28.0143C12.0679 28.0143 11.387 28.0143 10.7061 28.0383C9.42599 28.0925 9.24139 27.9234 9.23988 26.5942C9.23988 21.1168 9.23988 15.6384 9.23988 10.1588C9.23988 8.91741 9.07041 8.74189 7.87808 8.7387C6.46584 8.73232 5.05361 8.73232 3.64137 8.7387C2.1903 8.7387 2.0163 8.9222 2.0163 10.4141V47.0347C1.99755 47.3006 2.00413 47.5679 2.03596 47.8325C2.07985 48.0511 2.19636 48.4101 2.31892 48.4293C3.09817 48.5458 3.91222 48.7389 4.66575 48.6032C5.31639 48.4851 5.11968 47.6889 5.11968 47.1575C5.11968 41.5738 5.10707 35.9889 5.08185 30.4031C5.08185 29.7488 5.31941 29.4137 5.98064 29.4457C6.71147 29.4712 7.44231 29.4457 8.17465 29.4457C8.99022 29.4457 9.25198 29.7265 9.25198 30.6041C9.25198 32.9449 9.24291 35.2858 9.23685 37.625V38.5314L9.49711 38.6638C9.75585 38.3878 10.0691 38.1452 10.2612 37.8245C10.6077 37.2469 10.8665 36.6086 11.1918 36.015C12.2086 34.1624 13.2632 32.3322 14.2528 30.4605C14.6144 29.776 15.0744 29.4409 15.8098 29.4409C21.3579 29.4472 26.9059 29.4446 32.454 29.4329C33.1531 29.4329 33.4178 29.7664 33.4239 30.435C33.432 31.2328 33.4345 32.0306 33.4315 32.8285C33.4315 33.8242 33.3377 33.9071 32.3859 33.9023C30.6958 33.8928 29.0056 33.8816 27.317 33.9023C26.4258 33.9023 26.2684 34.0986 26.2578 35.0337C26.2472 35.9687 26.2578 36.8958 26.2578 37.8261C26.2578 38.7564 26.5347 39.0564 27.4335 39.0579C28.644 39.0579 29.8545 39.0707 31.065 39.0404C31.7988 39.0212 32.0545 39.4154 32.053 40.1159C32.053 40.9137 32.053 41.7115 32.053 42.5094C32.0666 43.5274 31.994 43.6136 31.0453 43.612C29.7834 43.612 28.5229 43.5912 27.2625 43.612C26.3774 43.6247 26.2563 43.7715 26.2563 44.6859C26.2563 45.6002 26.2563 46.548 26.2563 47.4783C26.2563 48.4357 26.4863 48.7149 27.4093 48.7213C29.0737 48.7309 30.7381 48.7532 32.4026 48.6798C33.1167 48.6479 33.3891 48.9527 33.4103 49.6117C33.4375 50.542 33.4012 51.4738 33.4375 52.4041C33.4663 53.1253 33.1485 53.3025 32.5176 53.2961C29.4671 53.2674 26.4152 53.2705 23.3648 53.2721C22.1179 53.2721 22.1164 53.2849 22.1164 51.9733C22.1164 46.3086 22.1058 40.644 22.1255 34.9794C22.1255 34.1944 21.8789 33.8625 21.1223 33.888C20.0147 33.9263 18.9011 33.8625 17.7935 33.9343C17.4545 33.955 16.9961 34.1944 16.8266 34.4848C15.7251 36.3788 14.7219 38.3383 13.6128 40.2292C13.1513 41.0126 13.1316 41.6653 13.637 42.3865C13.8699 42.7639 14.084 43.1537 14.2785 43.5545C15.2969 45.4119 16.3212 47.2645 17.332 49.1266C18.028 50.4031 18.7059 51.6956 19.4503 53.0966C19.1449 53.176 18.8344 53.232 18.5213 53.2642C17.6134 53.2865 16.7056 53.2259 15.7977 53.2961C15.0411 53.3535 14.625 52.9482 14.3103 52.3211C14.2044 52.1105 14.1272 51.8839 14.0153 51.6829C12.9803 49.7776 11.9801 47.8533 10.8831 45.9863C10.4655 45.2747 10.3157 44.2566 9.23383 43.9917V44.922C9.23383 47.2889 9.23786 49.6553 9.24593 52.0211C9.24593 53.2243 9.16574 53.2977 8.04755 53.2865C6.38313 53.2769 4.71871 53.2689 3.05429 53.2865C2.58825 53.2865 2.01781 53.2689 2.0163 54.0157C2.0163 57.0746 2.01629 60.1319 2.03143 63.1908C2.03143 63.8402 2.38549 64.2248 3.03311 64.2391C3.31152 64.2391 3.58842 64.2391 3.86532 64.2391C4.9366 64.2232 5.10909 64.07 5.10909 62.9483C5.10909 60.4494 5.09598 57.9496 5.06975 55.4486C5.06218 54.8439 5.25586 54.5567 5.84446 54.5582C9.07243 54.5657 12.3004 54.5657 15.5284 54.5582C16.1624 54.5582 16.4362 54.8774 16.4241 55.5492C16.4075 56.2656 16.4241 56.9853 16.4393 57.7033C16.471 58.7485 16.3424 58.9016 15.3347 58.9048C13.6703 58.9048 12.0058 58.8937 10.3414 58.9048C9.41842 58.9128 9.24291 59.1155 9.23685 60.092C9.2308 61.0686 9.22777 62.0595 9.23685 63.044C9.24744 63.9424 9.52434 64.2296 10.3838 64.2344C11.62 64.2344 12.8562 64.2487 14.0909 64.2248C14.74 64.2136 15.0094 64.5168 14.9988 65.1822C14.9836 65.9529 14.9988 66.7236 14.9988 67.4959C14.9988 68.4661 14.9065 68.557 14.0092 68.5602C12.7745 68.5602 11.5383 68.5474 10.3021 68.5714C9.43658 68.5873 9.2429 68.8107 9.2429 69.7314C9.2429 70.6521 9.2429 71.5393 9.2429 72.4441C9.2429 73.6504 9.47592 73.9137 10.5971 73.9153H17.6331C18.8542 73.9153 18.9722 73.8036 18.9737 72.5111C18.9737 66.9794 18.9737 61.4478 18.9737 55.9162C18.9737 54.6636 19.0448 54.5566 20.2462 54.5519C23.0712 54.5407 25.8962 54.5519 28.7196 54.5423C29.3839 54.5423 29.9301 54.7019 30.3931 55.254C30.9228 55.8928 31.4968 56.4891 32.1105 57.0379C32.7854 57.6347 32.9276 58.3703 32.9094 59.2383C32.8762 60.834 32.8913 62.4297 32.9094 64.0253C32.9094 64.7386 32.8292 65.3641 32.3042 65.9162C32.1332 66.0949 32.1302 66.7842 32.3042 66.9374C32.8883 67.4672 32.92 68.1118 32.9185 68.8155C32.9185 71.6335 32.8943 74.453 32.9427 77.2726C32.9564 78.0544 32.6401 78.2619 32.0107 78.2539C31.2541 78.2443 30.4976 78.2539 29.741 78.2411C28.8331 78.2299 28.7666 78.1518 28.765 77.1736C28.765 74.8599 28.7439 72.5462 28.765 70.2325C28.7741 69.4346 28.47 69.1394 27.7301 69.1618C26.621 69.1969 25.5119 69.1618 24.4012 69.1698C23.451 69.1698 23.3209 69.3134 23.3194 70.3442C23.3194 72.6052 23.3194 74.8663 23.3194 77.1258C23.3194 78.072 23.168 78.2427 22.2677 78.2427C16.8206 78.2427 11.3734 78.2331 5.92617 78.2427C5.29974 78.2427 5.09396 77.9874 5.10153 77.3348C5.13179 75.0753 5.12119 72.8143 5.12119 70.5548C5.12119 68.5299 5.1212 68.5299 3.22678 68.5714C2.23267 68.5937 2.03143 68.7852 2.02689 69.8479C2.01478 72.5605 2.01478 75.2732 2.02689 77.9858C2.03445 79.2416 2.49444 79.7299 3.65651 79.7953C3.95913 79.8112 4.26175 79.8049 4.56437 79.8049H50.2603C50.6385 79.8049 51.0168 79.8049 51.3951 79.7873C52.6631 79.7251 52.9808 79.3772 52.9808 78.0145C52.9808 73.2818 52.9808 68.548 52.9808 63.8131C52.9808 62.5366 52.8885 62.4488 51.6962 62.4472C49.9319 62.4472 48.1661 62.4472 46.4003 62.4472C45.2942 62.4472 45.1777 62.2988 45.2125 61.1707C45.2262 60.692 45.2246 60.2133 45.2125 59.7346C45.1989 59.1984 44.9553 58.9064 44.4121 58.9096C43.126 58.9181 41.8398 58.9155 40.5537 58.9017C40.0453 58.9017 39.8138 59.1554 39.8138 59.6771C39.8138 60.901 39.8138 62.1233 39.8138 63.3472C39.8138 64.011 40.1255 64.2663 40.77 64.2503C42.2832 64.212 43.7963 64.2503 45.3094 64.2328C45.8662 64.2328 46.3126 64.3684 46.7075 64.8423C47.3043 65.561 47.9479 66.235 48.6337 66.8592C49.2132 67.3826 49.3902 68.0145 49.3902 68.7661C49.3902 70.5468 49.4508 72.3292 49.3993 74.1083C49.3872 74.5631 49.1315 75.0817 48.844 75.4423C48.2947 76.1269 47.6335 76.7045 47.0389 77.3571C46.473 77.981 45.8692 78.3432 44.9901 78.2698C43.8591 78.1629 42.7212 78.1629 41.5902 78.2698C39.7124 78.4725 38.1206 78.1103 36.9933 76.355C36.7588 75.9912 36.3155 75.7742 36.0855 75.4072C35.8027 74.9781 35.6154 74.4872 35.5377 73.9711C35.45 73.1047 35.5211 72.2159 35.509 71.3447C35.4984 70.6521 35.8207 70.2931 36.4607 70.2787C37.2672 70.2596 38.0752 70.2915 38.8817 70.2676C39.5792 70.2468 39.8213 70.6234 39.8092 71.3016C39.7986 71.9127 39.8017 72.5238 39.8259 73.135C39.8471 73.6711 40.1013 73.9408 40.649 73.9328C41.8096 73.9057 42.9701 73.9328 44.1291 73.9169C44.9765 73.9073 45.2095 73.6823 45.2262 72.7839C45.2458 71.7212 45.205 70.6569 45.2125 69.5926C45.2125 68.8618 44.9356 68.5427 44.2124 68.5586C42.6251 68.5953 41.0348 68.6065 39.4476 68.5586C39.0091 68.5315 38.5906 68.3564 38.2537 68.0592C37.4551 67.3145 36.7087 66.5098 36.0204 65.6513C35.7272 65.2602 35.5578 64.7819 35.5362 64.2838C35.4802 62.5047 35.4742 60.7207 35.5362 58.9415C35.5618 58.3943 35.7462 57.8685 36.0643 57.4352C36.7322 56.6042 37.4613 55.8301 38.2447 55.1199C38.572 54.8054 38.9871 54.6112 39.4279 54.5662C41.4691 54.5104 43.5133 54.5152 45.5545 54.5662C45.9693 54.6074 46.3599 54.7907 46.6666 55.088C47.4898 55.8683 48.2251 56.7507 49.0468 57.5294C49.3599 57.8163 49.7461 58 50.1574 58.0575C50.8277 58.1389 51.5192 58.0575 52.197 58.0703C52.7448 58.0799 52.9718 57.807 52.9687 57.2469C52.9687 56.2369 52.9476 55.2252 52.9899 54.2152C53.0202 53.4971 52.7781 53.2131 52.0821 53.2259C50.2936 53.261 48.502 53.2099 46.712 53.2514C45.9691 53.269 45.7451 52.9626 45.7557 52.2174C45.7875 49.9308 45.7754 47.6442 45.7739 45.356C45.7739 44.2726 45.6634 44.1433 44.6648 44.129C43.5552 44.113 42.4456 44.113 41.336 44.129C40.4674 44.1385 40.2768 44.3444 40.2768 45.2794C40.2768 47.5932 40.2571 49.9069 40.2843 52.2206C40.2934 52.937 40.0301 53.2578 39.3659 53.253C38.5594 53.253 37.7529 53.2354 36.9449 53.245C36.2852 53.245 36.028 52.9706 36.037 52.235C36.0582 45.0289 36.0476 37.8213 36.0507 30.6137C36.0507 29.6659 36.267 29.4233 37.1628 29.4201C40.0619 29.4105 42.9625 29.3882 45.8617 29.4457C46.3368 29.4536 46.886 29.7345 47.2598 30.0664C48.0233 30.7601 48.7378 31.5115 49.3978 32.3147C49.6557 32.6265 49.8099 33.0188 49.8366 33.4316C49.8896 35.4517 49.9062 37.475 49.8653 39.4952C49.8309 39.939 49.653 40.3569 49.3615 40.6791C48.9741 41.1068 48.9454 41.5296 49.2964 41.8551C49.8517 42.3674 49.8759 42.9865 49.8669 43.663C49.8532 44.646 49.8669 45.6305 49.8669 46.615C49.8669 48.7133 49.8669 48.7133 51.8339 48.6894C52.8931 48.6782 52.9899 48.5825 52.9899 47.4448C52.9899 33.0838 52.9899 18.7228 52.9899 4.36179C52.9899 4.06818 52.9778 3.77618 52.9899 3.48417C53.0051 2.77889 52.5799 2.38476 52.0397 2.19647C50.5145 1.66511 49.8215 2.21083 49.8215 3.87511C49.8215 11.3747 49.8215 18.8744 49.8215 26.374C49.8311 26.6662 49.824 26.9587 49.8003 27.25C49.7398 27.8053 49.4856 28.083 48.8924 28.0478C48.0118 27.9904 47.1175 27.933 46.2475 28.0478C45.32 28.1611 44.9054 27.6457 44.5831 26.9006C44.4666 26.6357 44.4121 26.3421 44.3001 26.0756C43.0089 23.0087 41.7132 19.9445 40.4129 16.883C40.1724 16.3165 39.8743 15.7788 39.6034 15.2267H39.4143C39.3377 15.6719 39.2872 16.1217 39.263 16.5734C39.2524 19.8717 39.263 23.1683 39.263 26.4665C39.263 26.8096 39.316 27.1942 39.1904 27.4862C39.0844 27.7351 38.7652 28.0207 38.5246 28.0399C37.6683 28.1113 36.8078 28.1065 35.9523 28.0255C35.6648 27.9952 35.3637 27.6489 35.1609 27.3729C35.0475 27.2133 35.108 26.9117 35.108 26.6724C35.108 19.6791 35.108 12.6848 35.108 5.68938C35.108 5.50428 35.108 5.31759 35.1216 5.13249C35.1549 4.56284 35.4121 4.26126 35.9856 4.27083C37.019 4.28679 38.0555 4.23732 39.086 4.29956C39.2481 4.32209 39.404 4.37963 39.5441 4.46859C39.6841 4.55754 39.8053 4.67599 39.9 4.81655C40.2275 5.4084 40.5142 6.02432 40.7579 6.65955C41.8065 9.12166 42.84 11.5917 43.8931 14.0523C44.3107 15.0687 44.7874 16.0756 45.2504 17.0984ZM47.3445 87.0364C47.6955 86.2769 47.9709 85.7774 48.1616 85.2445C48.3901 84.6062 48.7971 84.4467 49.3993 84.469C50.3299 84.5105 51.265 84.5105 52.197 84.4786C52.4376 84.4786 52.7887 84.3477 52.8931 84.1594C53.4181 83.202 52.6888 81.8681 51.6342 81.7963C51.2574 81.7707 50.8776 81.7835 50.5009 81.7835H7.38481C6.23182 81.7835 6.03663 81.9845 6.03057 83.234C6.0215 84.8551 6.03057 86.4779 6.03057 88.0991C6.03057 90.0443 6.03057 90.0443 7.87808 90.0379C8.97054 90.0379 9.23988 89.8177 9.51224 88.7087C9.79065 87.5534 10.0675 86.3982 10.3248 85.2365C10.4216 84.8025 10.5971 84.4116 11.0511 84.5249C11.2003 84.5772 11.337 84.6631 11.4517 84.7766C11.5664 84.8901 11.6563 85.0285 11.7153 85.1823C12.1254 86.5434 12.4446 87.9348 12.8502 89.2991C12.9288 89.5608 13.2451 89.7443 13.4554 89.9645C13.6597 89.6773 14.0107 89.4044 14.0395 89.098C14.1227 88.23 14.0803 87.3428 14.0758 86.47C14.0667 84.2249 14.044 84.4897 15.9596 84.4834C17.155 84.4834 17.7405 85.0562 17.7632 86.3024C17.7738 86.912 17.6694 87.5279 17.7224 88.1311C17.742 88.3592 18.0553 88.5587 18.2338 88.7693C18.3851 88.5635 18.6393 88.3672 18.6605 88.147C18.7195 87.5087 18.6227 86.8705 18.7059 86.2322C18.7634 85.7934 18.9208 85.2844 19.2022 84.9796C19.9451 84.1706 21.1117 84.2472 22.0468 85.0961C22.3585 85.3801 22.7202 85.6945 22.9865 85.2317C23.4661 84.3972 24.1773 84.5568 24.8975 84.4722C26.2593 84.3126 27.1506 85.27 27.0008 86.8306C26.9327 87.5947 26.9403 88.3643 27.0235 89.1268C27.0537 89.4219 27.37 89.6836 27.5546 89.9613C27.7891 89.7379 28.1522 89.5592 28.237 89.2831C28.6425 87.9763 28.9935 86.6471 29.3219 85.3147C29.4414 84.836 29.5746 84.4786 30.1405 84.485C31.6778 84.4993 33.2166 84.4626 34.7539 84.5009C34.9824 84.5009 35.3788 84.7993 35.3894 84.9796C35.4046 85.2397 35.1973 85.6658 34.9809 85.7615C34.4861 85.9801 34.3756 86.3168 34.3832 86.8178C34.3999 87.9603 34.3908 89.1044 34.3832 90.2469C34.3832 90.6857 34.3514 91.182 33.8067 91.1947C33.1879 91.2091 33.3059 90.6283 33.2953 90.2373C33.2635 89.0151 33.2681 87.7912 33.2771 86.5673C33.2771 86.0343 33.0623 85.7695 32.5554 85.7822C32.2785 85.7822 32.0001 85.7567 31.7247 85.7822C31.2344 85.8333 31.0317 86.0471 31.1875 86.6343C31.5038 87.8327 31.7686 89.0486 31.9895 90.2692C32.0394 90.5485 31.8261 90.8804 31.7322 91.1868C31.5038 91.0112 31.2223 90.8772 31.0544 90.6522C30.3886 89.7538 29.7304 89.7586 29.0177 90.5884C28.7233 90.922 28.3247 91.1328 27.895 91.182C26.1867 91.2602 26.167 91.2266 25.996 89.4523C25.9355 88.8379 25.6495 88.6241 25.1109 88.6321C24.5722 88.6401 24.2529 88.8635 24.2424 89.4778C24.2467 89.9029 24.2142 90.3275 24.1455 90.7464C24.1168 90.9059 23.8989 91.1341 23.7688 91.1325C23.6386 91.1309 23.4313 90.9171 23.3753 90.7511C23.3084 90.4952 23.2819 90.2295 23.2967 89.9645C23.2891 89.248 23.3405 88.5284 23.277 87.8135C23.2543 87.5486 22.9744 87.3093 22.8231 87.0588C22.6717 87.2949 22.4524 87.5167 22.4039 87.7752C22.3298 88.1582 22.3843 88.5731 22.3812 88.9672C22.3631 90.8309 21.8244 91.3878 20.0889 91.1852C19.6486 91.1325 19.2582 90.7192 18.8133 90.5756C18.4683 90.4655 17.9387 90.3474 17.7299 90.5325C17.0248 91.158 16.2516 91.2522 15.3967 91.2107C14.6911 91.1731 13.984 91.1731 13.2784 91.2107C12.717 91.2426 12.3448 91.0639 12.0285 90.5421C11.5534 89.7618 10.6667 89.765 10.1659 90.5134C10.0345 90.7398 9.84693 90.9242 9.62348 91.0465C9.40003 91.1688 9.14916 91.2245 8.89792 91.2075C7.91591 91.1804 6.93087 91.1676 5.94887 91.2075C5.28612 91.2394 5.02133 90.9314 5.0183 90.282C5.01225 89.3246 5.00872 88.3672 5.00771 87.4098C5.00771 85.8939 4.99712 84.3781 5.00771 82.8638C5.00771 82.109 4.70509 81.758 3.96669 81.7468C2.63667 81.7229 2.04504 82.2622 2.03596 83.6823C2.01781 86.6072 2.03597 89.5336 2.02689 92.4585C2.02689 94.0621 2.39155 94.7578 4.19971 94.7531C19.7061 94.7084 35.2185 94.7275 50.7203 94.7259C51.0728 94.7259 51.4269 94.7387 51.7794 94.7116C52.483 94.6605 52.9733 94.1675 52.9793 93.435C52.996 91.1213 52.9793 88.8076 52.9884 86.4939C52.9884 85.937 52.7191 85.7471 52.2319 85.7519C51.4753 85.7615 50.7187 85.7886 49.9622 85.7391C49.2692 85.6945 48.8198 86.0264 48.6201 86.6567C48.2569 87.7976 47.5821 88.8603 47.7848 90.1575C47.8134 90.3422 47.7929 90.5316 47.7258 90.7049C47.6532 90.8788 47.4761 91.15 47.3823 91.1341C47.1644 91.099 46.883 90.9634 46.7862 90.7767C46.6636 90.5389 46.6969 90.2118 46.6636 89.9246C46.594 89.3214 46.5728 88.7055 46.4412 88.1167C46.2899 87.4513 46.1083 86.695 45.2655 86.7061C44.7162 86.7061 44.5165 87.4306 44.6012 88.514C44.6532 89.2279 44.6507 89.9451 44.5937 90.6586C44.5801 90.8469 44.2911 91.0144 44.1397 91.1899C44.0066 91.016 43.7963 90.8581 43.7569 90.6634C43.6881 90.2448 43.6512 89.8212 43.6465 89.3964C43.6162 88.8124 43.2697 88.6289 42.784 88.6225C42.2983 88.6161 41.9593 88.814 41.9578 89.406C41.9764 89.8035 41.9551 90.202 41.8943 90.5948C41.8504 90.8038 41.6159 90.9666 41.4676 91.1501C41.3163 90.9666 41.0923 90.807 41.0212 90.5932C40.9319 90.3283 41.0212 89.9996 40.9365 89.7299C40.8157 89.4194 40.6688 89.1209 40.4977 88.8379C40.3388 89.114 40.0846 89.3757 40.0438 89.6709C39.8561 90.8963 39.381 91.2665 37.9254 91.1915C36.9389 91.1437 36.3548 90.5309 36.3351 89.4602C36.3155 88.4247 36.3503 87.3859 36.3351 86.3503C36.3276 85.4806 36.6771 84.7897 37.4427 84.5456C38.2084 84.3015 39.1071 84.2265 39.6443 85.0578C39.9136 85.4775 39.8803 86.1014 40.0422 86.612C40.1058 86.813 40.3282 86.9566 40.478 87.1258C40.6293 86.9519 40.8805 86.8067 40.9168 86.6024C40.9666 86.2072 40.9732 85.8072 40.9365 85.4104C40.9077 84.7323 41.2088 84.4754 41.8444 84.4419C42.9807 84.3844 44.0595 84.4419 44.804 85.4998C44.9432 85.3945 45.0219 85.3626 45.0582 85.3019C45.2488 84.9924 45.2791 84.378 45.7815 84.5983C46.0992 84.7371 46.3095 85.1887 46.5274 85.5301C46.7771 85.9753 47.001 86.4221 47.3445 87.0364ZM27.0931 64.5423C27.6045 64.4514 28.0902 64.3828 28.0554 63.7174C28.0297 63.2275 28.2581 63.0217 28.6682 62.8653C29.3854 62.594 29.4717 62.1392 29.104 61.4563C28.9249 61.1246 28.8547 60.7398 28.9042 60.3617C29.0556 59.5638 28.8573 59.1777 28.131 58.9017C27.8083 58.7492 27.5322 58.5049 27.3336 58.1964C27.0416 57.7831 26.7753 57.6012 26.2608 57.7863C25.787 57.9604 25.2871 58.0421 24.7856 58.0272C24.2696 58.0033 24.0063 58.1964 23.7854 58.6543C23.602 59.0344 23.363 59.3817 23.0773 59.6835C22.6627 60.1159 22.3964 60.5133 22.7746 61.1276C23.0077 61.5042 23.1211 61.8807 22.87 62.3802C22.6188 62.8796 22.8306 63.4014 23.4207 63.5179C23.6931 63.5602 23.9508 63.675 24.1695 63.8514C24.3882 64.0279 24.5606 64.2601 24.6706 64.5264C24.7629 64.7194 25.2622 64.8966 25.4513 64.8024C26.0112 64.5264 26.5075 64.1466 27.0931 64.5423ZM43.1002 33.8864V33.8688C42.4451 33.8688 41.7884 33.8688 41.1332 33.8688C40.587 33.8688 40.2783 34.1146 40.2783 34.7241C40.2783 36.0533 40.2783 37.3841 40.2707 38.7133C40.2707 39.259 40.5325 39.5893 41.0394 39.5973C42.3755 39.618 43.7115 39.5973 45.0476 39.5973C45.5015 39.5973 45.7573 39.3372 45.7603 38.8537C45.7603 37.4447 45.7603 36.0358 45.7603 34.6268C45.7603 34.1305 45.5258 33.8928 45.0627 33.8928L43.1002 33.8864ZM37.3368 87.8518H37.3474C37.3474 88.3018 37.3565 88.7534 37.3474 89.2049C37.3307 89.8432 37.7136 90.0347 38.222 90.0283C38.7304 90.0219 39.092 89.8081 39.0844 89.1762C39.0754 88.3544 39.0633 87.5295 39.0965 86.7093C39.1268 85.9737 38.7289 85.7998 38.1524 85.795C37.5471 85.795 37.2854 86.0966 37.3338 86.7364C37.361 87.1066 37.3368 87.48 37.3368 87.8518ZM21.3796 87.9763C21.3796 87.4976 21.3796 87.0189 21.3796 86.5402C21.3871 85.9019 20.9725 85.7966 20.5186 85.8014C20.0647 85.8062 19.6531 85.9195 19.6576 86.5482C19.6576 87.4226 19.6652 88.3034 19.6576 89.173C19.6576 89.7985 20.0132 90.0203 20.5262 90.0219C21.0391 90.0235 21.3947 89.7906 21.3765 89.165C21.369 88.7725 21.378 88.3736 21.3796 87.9763ZM26.0006 86.5402C26.0596 85.9019 25.6117 85.803 25.1245 85.7982C24.6373 85.7934 24.2166 85.8891 24.2166 86.5721C24.2166 87.2104 24.5117 87.5135 25.0927 87.5135C25.6738 87.5135 25.993 87.2231 26.0006 86.5386V86.5402ZM43.6631 86.4396C43.7161 85.9609 43.3181 85.8157 42.8491 85.811C42.38 85.8062 41.9291 85.878 41.9336 86.5689C41.9336 87.1465 42.1606 87.5008 42.7235 87.4992C43.2863 87.4976 43.6389 87.2343 43.6631 86.4381V86.4396ZM16.8039 89.2704C16.8266 88.6433 16.4362 88.4949 15.9747 88.5012C15.5132 88.5076 15.0669 88.6146 15.0669 89.2768C15.0669 89.9693 15.5374 90.0012 15.9929 90.0155C16.4483 90.0299 16.8342 89.8767 16.8039 89.2704ZM16.819 86.5147C16.8357 85.8413 16.3999 85.7854 15.9551 85.8014C15.5102 85.8173 15.0275 85.8764 15.0608 86.5689C15.0941 87.2614 15.5753 87.2646 16.0262 87.2774C16.5013 87.2917 16.8523 87.0955 16.8115 86.5099L16.819 86.5147ZM10.4731 88.3672L11.3325 88.6289C11.3809 88.3624 11.4309 88.096 11.4838 87.8311L11.275 87.7337L10.4731 88.3672ZM30.6988 88.2443C30.3583 88.0592 30.1964 87.8933 30.0587 87.9156C29.9211 87.938 29.7667 88.1279 29.6215 88.2459C29.7637 88.3624 29.8968 88.5523 30.0512 88.5747C30.2055 88.597 30.3478 88.4247 30.6912 88.2443H30.6988Z" fill="#000"/>
</svg>
