<svg width="16" height="12" viewBox="0 0 16 12" fill="none" xmlns="http://www.w3.org/2000/svg">
<path d="M1.75678 11.9714C1.38164 11.9714 1.06456 11.8418 0.805534 11.5826C0.546506 11.3234 0.416992 11.0061 0.416992 10.6307V2.13865C0.416992 1.76323 0.546506 1.44705 0.805534 1.1901C1.06456 0.93316 1.38164 0.804688 1.75678 0.804688H14.2439C14.619 0.804688 14.9361 0.93427 15.1951 1.19344C15.4541 1.4526 15.5837 1.7699 15.5837 2.14531V10.6374C15.5837 11.0128 15.4541 11.329 15.1951 11.5859C14.9361 11.8429 14.619 11.9714 14.2439 11.9714H1.75678ZM8.00033 7.01948L1.50033 3.19406V10.6316C1.50033 10.7064 1.52435 10.7679 1.57241 10.8159C1.62046 10.864 1.68192 10.888 1.75678 10.888H14.2439C14.3187 10.888 14.3802 10.864 14.4282 10.8159C14.4763 10.7679 14.5003 10.7064 14.5003 10.6316V3.19406L8.00033 7.01948ZM8.00033 5.61719L14.3722 1.88802H1.62845L8.00033 5.61719ZM1.50033 3.19406V1.88802V10.6316C1.50033 10.7064 1.52435 10.7679 1.57241 10.8159C1.62046 10.864 1.68192 10.888 1.75678 10.888H1.50033V3.19406Z" fill="#C890FF"/>
</svg>
