<svg width="46" height="52" viewBox="0 0 46 52" fill="none" xmlns="http://www.w3.org/2000/svg">
<g clip-path="url(#clip0_29_7)">
<path d="M13.5582 0C14.49 0.398831 14.8244 1.08526 14.8052 2.09454C14.7613 4.5635 14.7915 7.03245 14.7915 9.50412C14.7915 10.7467 14.1602 11.3699 12.8976 11.3735C12.4564 11.3735 12.0151 11.3735 11.5081 11.3735C11.5081 12.1277 11.5081 12.8494 11.5081 13.5711C11.5081 13.9645 11.4478 14.3145 11.0641 14.5207C10.6804 14.7269 10.3488 14.5696 10.0199 14.3525C8.64956 13.4463 7.29839 12.5401 5.90885 11.6611C5.64156 11.4961 5.33559 11.4026 5.02086 11.3898C3.9465 11.3572 2.86666 11.3898 1.79231 11.3762C0.668619 11.3762 0.00536831 10.7142 0.0026276 9.60722C0.0026276 7.103 0.0300353 4.59877 -0.013816 2.09726C-0.0302602 1.09882 0.295884 0.398834 1.2332 0.00271579L13.5582 0ZM9.86643 12.2878V11.3328C9.86643 9.83241 9.94865 9.75102 11.4423 9.75102H13.1114V1.66315H1.68268V9.74288C2.96807 9.74288 4.2288 9.72389 5.48678 9.74288C5.82145 9.75582 6.14711 9.85394 6.43232 10.0278C7.55875 10.7495 8.65778 11.4929 9.86643 12.2878Z" fill="#6C10C6"/>
<path d="M44.753 -9.597e-05C45.6848 0.398735 46.0164 1.08516 46 2.09445C45.9534 4.5634 45.9863 7.03236 45.9835 9.50402C45.9835 10.7466 45.3477 11.3734 44.0897 11.3734C43.0482 11.3734 42.0068 11.3571 40.9626 11.3869C40.6641 11.3964 40.3732 11.4824 40.1184 11.6366C38.7261 12.5237 37.3503 13.4408 35.9745 14.3497C35.6483 14.5667 35.3222 14.7295 34.933 14.5179C34.5438 14.3063 34.4835 13.959 34.489 13.5656C34.489 12.8575 34.489 12.1493 34.489 11.3707C33.971 11.3707 33.4832 11.3707 32.9953 11.3707C31.8744 11.3707 31.2084 10.7087 31.2084 9.6017C31.2084 7.09747 31.2358 4.59325 31.1919 2.09173C31.1728 1.0933 31.5016 0.39331 32.4362 -0.00280762L44.753 -9.597e-05ZM36.1334 12.2904C37.2297 11.5742 38.2438 10.9338 39.225 10.242C39.704 9.8892 40.2923 9.71268 40.8886 9.74278C42.026 9.78348 43.1661 9.75635 44.309 9.75635V1.66306H32.8747V9.74278C33.6476 9.74278 34.3931 9.74278 35.1413 9.74278C35.8402 9.74278 36.1252 10.0385 36.1334 10.7385C36.1389 11.2187 36.1334 11.6935 36.1334 12.2904Z" fill="#6C10C6"/>
<path d="M4.11923 35.6832C4.11923 32.3162 4.14663 28.9655 4.10278 25.6147C4.10278 24.5159 4.37685 23.626 5.24018 22.9233C5.33336 22.8473 5.40462 22.7497 5.4978 22.6737C5.92261 22.3291 6.17202 21.9927 5.98017 21.3551C5.74447 20.5819 6.04594 19.8493 6.62423 19.2687C7.39163 18.4955 8.15903 17.7222 8.94835 16.9734C9.41234 16.5241 10.0356 16.2726 10.6846 16.2726C11.3336 16.2726 11.9568 16.5241 12.4208 16.9734C12.651 17.196 12.8342 17.4616 12.9598 17.7547C13.0855 18.0479 13.1511 18.3629 13.1529 18.6814C13.1547 18.9999 13.0926 19.3156 12.9702 19.6101C12.8479 19.9047 12.6676 20.1723 12.44 20.3974C11.6863 21.1815 10.9052 21.9411 10.1214 22.6981C9.80303 23.0212 9.39966 23.2496 8.95695 23.3575C8.51423 23.4654 8.04985 23.4485 7.61637 23.3086C7.45192 23.2652 7.23815 23.3927 7.04904 23.4442C7.01889 23.4442 6.99971 23.4903 6.97504 23.5148C5.48958 25.0314 5.78009 24.3287 5.76639 26.4043C5.74721 29.3155 5.76639 32.2267 5.76639 35.1378V35.7212H10.6997V35.1595C10.6997 32.4464 10.6997 29.7387 10.6997 27.0364C10.6914 23.5799 13.18 21.1381 16.6717 21.1381H18.0557C15.748 19.2389 14.6134 16.8893 14.8217 14.0052C14.8902 12.9366 15.1793 11.8932 15.6709 10.9394C16.1625 9.98558 16.8464 9.14162 17.6802 8.45956C19.311 7.08043 21.423 6.38922 23.5629 6.53429C25.7027 6.67937 27.6998 7.64917 29.1254 9.23552C32.0881 12.5266 32.0224 17.847 27.9414 21.1381H29.5311C30.2933 21.1366 31.0483 21.2847 31.7524 21.5738C32.4565 21.8629 33.0957 22.2872 33.6332 22.8223C34.1706 23.3574 34.5956 23.9926 34.8837 24.6912C35.1717 25.3898 35.317 26.1381 35.3112 26.8926C35.3112 29.6528 35.3112 32.412 35.3112 35.1704V35.7374H40.2445V35.1948C40.2445 31.9391 40.2445 28.6833 40.2445 25.4438C40.266 25.209 40.2288 24.9725 40.136 24.7553C40.0433 24.5381 39.8979 24.3468 39.7128 24.1985C39.6198 24.1236 39.5345 24.0401 39.4579 23.9489C39.044 23.4469 38.6357 23.1349 37.8683 23.3764C37.1749 23.5907 36.4842 23.2706 35.9498 22.7605C35.1276 21.971 34.3054 21.1788 33.5215 20.354C33.0799 19.9064 32.8327 19.3056 32.8327 18.68C32.8327 18.0543 33.0799 17.4535 33.5215 17.0059C33.9687 16.5517 34.5768 16.2875 35.2172 16.2693C35.8577 16.251 36.4801 16.4802 36.9529 16.9083C37.8025 17.6951 38.622 18.5145 39.4195 19.3501C40.0581 20.0175 40.1787 20.8288 39.9677 21.716C39.9238 21.8842 40.0444 22.0931 40.091 22.283C40.091 22.2966 40.1129 22.3074 40.1266 22.3183C42.0232 24.1469 41.867 24.0438 41.867 26.5345C41.867 29.5479 41.867 32.5613 41.867 35.5747C41.8724 35.6349 41.8815 35.6947 41.8944 35.7537C42.3658 35.7537 42.8536 35.7537 43.3415 35.7537C44.0979 35.7537 44.4377 36.177 44.2678 36.9041C43.1898 41.6539 42.1109 46.4028 41.031 51.1508C40.8858 51.7992 40.6336 52 39.9649 52H6.01854C5.34706 52 5.1004 51.7992 4.9524 51.1508L1.72933 36.9502C1.54845 36.1526 1.86911 35.7592 2.69406 35.751H3.97671C4.02737 35.7356 4.0754 35.7127 4.11923 35.6832ZM12.6319 50.3586V49.7725C12.6319 47.6237 12.6319 45.474 12.6319 43.3234C12.6319 42.5094 12.9059 42.2381 13.6953 42.2381H32.3156C33.0912 42.2381 33.3653 42.5094 33.368 43.2745C33.368 45.4451 33.368 47.611 33.368 49.7725V50.3396H39.5428C40.524 46.0221 41.5052 41.7091 42.4864 37.4006H3.51353C4.50019 41.7416 5.47862 46.042 6.45979 50.3477L12.6319 50.3586ZM22.9917 21.1381C24.2935 21.1418 25.5671 20.7631 26.6513 20.0499C27.7355 19.3367 28.5816 18.3211 29.0824 17.1316C29.5832 15.9421 29.7162 14.6322 29.4645 13.3679C29.2129 12.1035 28.588 10.9415 27.6688 10.0289C26.7497 9.11638 25.5777 8.49433 24.3012 8.24153C23.0248 7.98874 21.7012 8.11658 20.4982 8.60886C19.2952 9.10114 18.2667 9.93572 17.5431 11.0069C16.8195 12.0782 16.4332 13.3379 16.4332 14.6265C16.4332 16.3502 17.1236 18.0036 18.353 19.2242C19.5824 20.4448 21.2505 21.133 22.9917 21.1381ZM31.7017 43.9149H14.3064V50.3531H31.7017V43.9149ZM20.854 35.7374L20.9883 35.5828C20.7745 35.42 20.5635 35.2545 20.3497 35.0944C19.7275 34.6386 19.6563 34.0933 19.8755 33.358C20.5498 31.0898 21.1006 28.7864 21.794 26.5263C22.0462 25.7124 21.9694 25.1698 21.2815 24.6271C20.5936 24.0845 20.1085 23.1648 19.3466 22.8555C18.5847 22.5462 17.5651 22.7659 16.6717 22.7659C14.0735 22.7659 12.3304 24.4861 12.3276 27.0581C12.3276 29.7821 12.3276 32.5052 12.3276 35.2274V35.7293H15.6165C15.6165 34.4134 15.6165 33.1301 15.6165 31.8468C15.6165 31.2526 15.9426 30.8891 16.4387 30.8918C16.9348 30.8945 17.2609 31.2581 17.2609 31.8577C17.2609 32.9728 17.2609 34.0906 17.2609 35.2084V35.751L20.854 35.7374ZM33.6284 35.7374C33.6422 35.6766 33.6523 35.615 33.6586 35.553C33.6586 32.5929 33.6832 29.6329 33.6586 26.6729C33.649 25.758 33.3141 24.8757 32.7126 24.181C32.1111 23.4863 31.2816 23.0237 30.3697 22.8745C29.1939 22.709 27.9853 22.7849 26.7903 22.7768C26.6279 22.8081 26.4816 22.8945 26.3765 23.021C25.6667 23.7074 24.987 24.421 24.2607 25.0884C24.1378 25.1861 24.0501 25.3205 24.0106 25.4716C23.9711 25.6226 23.9819 25.7823 24.0414 25.9267C24.7704 28.5286 25.4775 31.1387 26.2093 33.7406C26.2796 33.9317 26.2895 34.1394 26.2376 34.3362C26.1857 34.533 26.0745 34.7095 25.9188 34.8421L24.965 35.7103H28.7472C28.7472 35.553 28.7472 35.439 28.7472 35.3169C28.7472 34.115 28.7472 32.9158 28.7472 31.7139C28.7418 31.6034 28.7597 31.493 28.7997 31.3898C28.8396 31.2865 28.9009 31.1926 28.9795 31.114C29.0581 31.0354 29.1523 30.9739 29.2563 30.9333C29.3602 30.8927 29.4715 30.874 29.5831 30.8782C29.7993 30.8853 30.0039 30.9764 30.1527 31.1318C30.3014 31.2872 30.3824 31.4944 30.3779 31.7084C30.3779 31.8956 30.3779 32.0829 30.3779 32.2673V35.7266L33.6284 35.7374ZM23.0054 35.4797C23.4659 34.9968 23.8496 34.5681 24.2662 34.172C24.3623 34.0942 24.4309 33.988 24.462 33.869C24.493 33.7499 24.4849 33.6241 24.4388 33.51C23.9976 31.9689 23.581 30.4224 23.1562 28.8759C23.1205 28.7484 23.063 28.629 22.9671 28.374C22.4573 30.2325 21.9831 31.9363 21.5282 33.6483C21.5176 33.7242 21.5228 33.8013 21.5435 33.8751C21.5643 33.9488 21.6001 34.0175 21.6488 34.077C22.0654 34.5165 22.4984 34.9452 23.0137 35.4689L23.0054 35.4797ZM11.6041 18.6582C11.4378 18.4106 11.2387 18.1861 11.0121 17.9908C10.6668 17.7656 10.3214 17.9121 10.0446 18.1862C9.3156 18.8997 8.58658 19.616 7.86851 20.3404C7.46289 20.7474 7.43274 21.2086 7.76437 21.5559C8.09599 21.9032 8.60302 21.9004 9.03057 21.4853C9.74864 20.7881 10.464 20.0826 11.1656 19.3637C11.3391 19.138 11.4888 18.8952 11.6123 18.6393L11.6041 18.6582ZM38.5069 21.0648C38.4565 20.8732 38.377 20.6902 38.2712 20.5222C37.4489 19.6865 36.6267 18.8482 35.7634 18.0532C35.6925 17.9893 35.6092 17.9404 35.5186 17.9094C35.428 17.8783 35.332 17.8659 35.2364 17.8727C35.1408 17.8796 35.0476 17.9056 34.9624 17.9492C34.8773 17.9928 34.802 18.0531 34.7411 18.1265C34.4342 18.4222 34.3465 18.8292 34.6342 19.1358C35.4565 20.0012 36.2924 20.8423 37.1749 21.64C37.3032 21.7086 37.4457 21.7475 37.5915 21.7536C37.7372 21.7597 37.8825 21.7329 38.0163 21.6753C38.2438 21.564 38.3643 21.2466 38.5151 21.0458L38.5069 21.0648ZM22.8848 23.9055L24.0058 22.8012H21.7831L22.8848 23.9055Z" fill="#6C10C6"/>
<path d="M7.36972 4.87553C6.3447 4.87553 5.31967 4.87553 4.29191 4.87553C3.67799 4.85925 3.31348 4.58794 3.31348 4.08059C3.31348 3.57323 3.67799 3.26665 4.31658 3.25037H10.5106C11.1217 3.25037 11.4917 3.55424 11.5027 4.0426C11.5137 4.53097 11.1355 4.85654 10.4996 4.87282C9.45814 4.87825 8.41393 4.87553 7.36972 4.87553Z" fill="#6C10C6"/>
<path d="M6.1557 8.11499C5.50615 8.11499 4.85661 8.11499 4.20706 8.11499C3.65892 8.11499 3.2944 7.77042 3.30263 7.30105C3.3053 7.19079 3.33057 7.08221 3.37693 6.98191C3.42328 6.88162 3.48974 6.79169 3.57228 6.7176C3.65481 6.64351 3.75169 6.5868 3.85705 6.5509C3.9624 6.51501 4.07402 6.50069 4.18513 6.50881C5.50341 6.50881 6.81895 6.50881 8.13449 6.50881C8.24938 6.497 8.3655 6.50928 8.47528 6.54486C8.58506 6.58043 8.68604 6.63851 8.77163 6.7153C8.85722 6.7921 8.9255 6.88588 8.97203 6.99055C9.01856 7.09521 9.04228 7.20841 9.04166 7.32276C9.04166 7.79755 8.67441 8.10956 8.10434 8.1177C7.4548 8.13127 6.80525 8.11499 6.1557 8.11499Z" fill="#6C10C6"/>
<path d="M38.5947 4.8755C37.5697 4.8755 36.5446 4.8755 35.5169 4.8755C34.8728 4.8755 34.4946 4.57163 34.4973 4.06156C34.5001 3.55149 34.8728 3.24762 35.5196 3.24762H41.6835C42.3303 3.24762 42.7057 3.5542 42.7057 4.06156C42.7057 4.56892 42.3275 4.8755 41.6807 4.8755C40.6475 4.87822 39.6224 4.8755 38.5947 4.8755Z" fill="#6C10C6"/>
<path d="M37.3832 6.50065C38.0328 6.50065 38.6823 6.50065 39.3319 6.50065C39.88 6.50065 40.2445 6.85065 40.2336 7.32816C40.2306 7.43869 40.2049 7.54745 40.158 7.64782C40.1112 7.74818 40.0442 7.83805 39.9611 7.91193C39.878 7.98581 39.7805 8.04216 39.6747 8.07753C39.5689 8.11291 39.4569 8.12657 39.3456 8.11768C38.03 8.12853 36.7136 8.12853 35.3962 8.11768C35.2883 8.11857 35.1812 8.0984 35.0811 8.05832C34.981 8.01824 34.8898 7.95903 34.8128 7.88408C34.7358 7.80913 34.6745 7.7199 34.6324 7.62149C34.5902 7.52308 34.5681 7.41741 34.5672 7.31053C34.5663 7.20364 34.5866 7.09762 34.6271 6.99853C34.6676 6.89943 34.7274 6.80921 34.8031 6.733C34.8789 6.65678 34.969 6.59608 35.0684 6.55435C35.1678 6.51263 35.2746 6.49069 35.3825 6.4898C36.0513 6.48709 36.7172 6.50065 37.3832 6.50065Z" fill="#6C10C6"/>
</g>
<defs>
<clipPath id="clip0_29_7">
<rect width="46" height="52" fill="white"/>
</clipPath>
</defs>
</svg>
