<svg width="25" height="19" viewBox="0 0 25 19" fill="none" xmlns="http://www.w3.org/2000/svg">
<path d="M20.8947 2.45278C19.3343 1.7384 17.687 1.2316 15.9949 0.945313C15.7634 1.35924 15.5539 1.78511 15.3673 2.22115C13.5649 1.94955 11.7319 1.94955 9.92952 2.22115C9.74284 1.78516 9.53333 1.35929 9.30188 0.945312C7.6087 1.23401 5.96034 1.74202 4.39839 2.45652C1.29752 7.04432 0.456922 11.5182 0.877221 15.9285C2.69317 17.2702 4.72573 18.2906 6.88656 18.9453C7.37311 18.2909 7.80365 17.5967 8.17361 16.87C7.47093 16.6075 6.79272 16.2837 6.14683 15.9023C6.31682 15.7791 6.48307 15.652 6.64372 15.5287C8.52311 16.4126 10.5744 16.8708 12.6512 16.8708C14.728 16.8708 16.7793 16.4126 18.6587 15.5287C18.8212 15.6614 18.9874 15.7884 19.1556 15.9023C18.5084 16.2844 17.829 16.6088 17.125 16.8718C17.4945 17.5982 17.9251 18.2919 18.4121 18.9453C20.5748 18.2932 22.6089 17.2733 24.4252 15.9304C24.9183 10.8158 23.5827 6.38305 20.8947 2.45278ZM8.70599 13.2162C7.53476 13.2162 6.56713 12.1533 6.56713 10.8457C6.56713 9.53809 7.50113 8.46586 8.70225 8.46586C9.90337 8.46586 10.8635 9.53809 10.843 10.8457C10.8224 12.1533 9.89964 13.2162 8.70599 13.2162ZM16.5964 13.2162C15.4233 13.2162 14.4594 12.1533 14.4594 10.8457C14.4594 9.53809 15.3934 8.46586 16.5964 8.46586C17.7994 8.46586 18.7521 9.53809 18.7315 10.8457C18.711 12.1533 17.79 13.2162 16.5964 13.2162Z" fill="#C890FF"/>
</svg>
