<svg width="194" height="230" viewBox="0 0 194 230" fill="none" xmlns="http://www.w3.org/2000/svg">
<path d="M39.9712 75.9507C39.9712 75.9507 40.5864 79.444 47.3264 77.7293C54.0665 76.0146 57.1835 70.9913 55.7292 69.0266C54.2749 67.0619 41.6736 71.3464 39.9712 75.9507Z" fill="#8C3FD7"/>
<path d="M46.4364 82.9142C47.6984 82.1047 47.7623 79.9464 46.579 78.0934C45.3957 76.2404 43.4133 75.3945 42.1513 76.204C40.8893 77.0136 40.8255 79.1719 42.0088 81.0249C43.1921 82.8779 45.1744 83.7238 46.4364 82.9142Z" fill="#52468A"/>
<path d="M47.0756 73.0312L42.1499 76.2063L46.4349 82.9173L51.3606 79.7423L47.0756 73.0312Z" fill="#52468A"/>
<path d="M51.0223 79.9559C52.2844 79.1463 52.3482 76.988 51.1649 75.135C49.9816 73.2821 47.9993 72.4362 46.7372 73.2457C45.4752 74.0552 45.4114 76.2136 46.5947 78.0665C47.778 79.9195 49.7603 80.7654 51.0223 79.9559Z" fill="#312A52"/>
<path d="M50.1667 78.6172C50.9243 78.1312 50.9624 76.8351 50.2518 75.7223C49.5411 74.6095 48.3508 74.1013 47.5932 74.5872C46.8356 75.0732 46.7975 76.3693 47.5082 77.4821C48.2189 78.595 49.4091 79.1032 50.1667 78.6172Z" fill="#52468A"/>
<path d="M49.5404 76.1794C49.1988 75.6424 48.6233 75.3966 48.2647 75.631C47.9061 75.8654 47.8806 76.4834 48.2236 77.0289C48.5667 77.5744 49.1407 77.8103 49.4994 77.5759C49.858 77.3415 49.8835 76.7164 49.5404 76.1794Z" fill="#312A52"/>
<path d="M44.3795 74.7687C44.3795 74.7687 43.8494 76.6695 45.2782 78.7137C46.707 80.758 49.0926 81.2041 49.0926 81.2041L48.0238 81.8931C48.0238 81.8931 45.9741 82.1104 44.164 79.3601C42.3539 76.6098 43.3476 75.4335 43.3476 75.4335L44.3795 74.7687Z" fill="#312A52"/>
<path d="M63.742 87.4876C64.0257 88.1204 64.1895 88.8006 64.2253 89.4935C64.377 91.39 63.9914 93.6033 64.2593 95.2825C64.2905 95.4771 64.3132 95.6718 64.3373 95.8678C63.8936 97.5527 63.2033 99.1352 61.9517 100.445C61.3 101.114 60.592 101.725 59.8354 102.272C58.9873 102.914 58.0667 103.455 57.0926 103.882C56.7716 104.018 56.4397 104.128 56.1004 104.21C50.3497 100.955 45.4084 97.5001 42.5267 93.9542C40.3098 91.2266 39.5075 87.4577 40.8811 84.9432C42.8882 80.616 47.0116 78.5504 51.5404 77.8103C52.2222 77.6981 52.9125 77.6171 53.6057 77.5631C55.4044 78.0518 60.547 83.4104 63.742 87.4876Z" fill="#61576A"/>
<path d="M62.0212 72.4801C59.1862 70.2071 55.3959 69.4968 51.8579 69.9841C50.0033 70.2467 48.1963 70.7764 46.4928 71.5567C45.1227 72.1776 43.8146 72.9278 42.5863 73.797C41.6628 74.4477 40.7895 75.1671 39.9739 75.9493C40.2191 70.146 40.8683 65.279 40.8683 65.279C40.8683 65.279 40.9165 65.0929 41.02 64.7661C41.0653 64.6241 41.1234 64.4408 41.1943 64.2391C41.3191 63.8882 41.4778 63.4634 41.6848 62.9847C41.7004 62.9435 41.7188 62.8995 41.7386 62.8568C42.2906 61.5666 42.9601 60.3302 43.7387 59.1632C46.1016 55.6429 50.1442 51.9635 56.6504 52.232C65.3083 52.5801 63.715 65.1156 62.0212 72.4801Z" fill="#61576A"/>
<path d="M43.7359 59.1561L51.858 69.9841C50.0034 70.2468 48.1964 70.7764 46.4929 71.5567C46.2094 70.2455 44.721 64.5005 41.02 64.7662C41.0654 64.6241 41.1235 64.4408 41.1944 64.2391C41.3191 63.8882 41.4779 63.4635 41.6848 62.9847C41.7004 62.9435 41.7188 62.8995 41.7387 62.8569C42.2894 61.5643 42.9579 60.3255 43.7359 59.1561Z" fill="#8C3FD7"/>
<path d="M56.1047 104.21C56.1047 104.21 52.6305 102.205 53.4399 98.9975C54.2493 95.7897 59.7235 86.9364 63.7123 87.4535C65.5309 89.789 64.8137 93.8122 63.674 98.0201C62.5344 102.228 58.8815 105.267 56.1047 104.21Z" fill="#8C3FD7"/>
<path d="M63.742 87.4875C64.0257 88.1204 64.1896 88.8006 64.2253 89.4934C62.3628 89.9878 59.5477 90.4694 59.8114 88.7831C60.2012 86.3283 51.7828 78.039 51.5447 77.8046C52.2265 77.6923 52.9168 77.6114 53.6099 77.5574C55.4045 78.0517 60.547 83.4103 63.742 87.4875Z" fill="#8C3FD7"/>
<path d="M64.9466 103.013C65.8195 101.281 64.4737 98.8377 61.9408 97.5554C59.4078 96.273 56.6468 96.6374 55.7739 98.3693C54.901 100.101 56.2468 102.545 58.7797 103.827C61.3127 105.109 64.0738 104.745 64.9466 103.013Z" fill="#52468A"/>
<path d="M59.168 91.5747L55.7717 98.3553L64.9427 102.998L68.3404 96.2173L59.168 91.5747Z" fill="#52468A"/>
<path d="M68.1095 96.7012C68.9824 94.9694 67.6366 92.5258 65.1036 91.2435C62.5706 89.9611 59.8096 90.3255 58.9367 92.0574C58.0638 93.7893 59.4096 96.2328 61.9426 97.5151C64.4756 98.7975 67.2366 98.4331 68.1095 96.7012Z" fill="#312A52"/>
<path d="M66.2773 95.7737C66.8018 94.733 65.9938 93.2651 64.4726 92.495C62.9514 91.7249 61.2931 91.9442 60.7686 92.9849C60.244 94.0255 61.052 95.4934 62.5732 96.2636C64.0944 97.0337 65.7528 96.8144 66.2773 95.7737Z" fill="#52468A"/>
<path d="M64.8515 95.0504C65.1046 94.5483 64.715 93.8401 63.9813 93.4687C63.2476 93.0973 62.4476 93.2032 62.1946 93.7053C61.9415 94.2075 62.3311 94.9156 63.0648 95.2871C63.7985 95.6585 64.5984 95.5526 64.8515 95.0504Z" fill="#312A52"/>
<path d="M57.3081 95.2867C57.3081 95.2867 57.9672 97.7501 60.8985 99.0841C63.8299 100.418 66.7768 99.3383 66.7768 99.3383L66.0383 100.812C66.0383 100.812 63.9007 102.404 60.0849 100.536C56.2691 98.6678 56.6008 96.7003 56.6008 96.7003L57.3081 95.2867Z" fill="#312A52"/>
<path d="M25.114 27.3305C26.1772 26.3473 25.8741 24.2848 24.437 22.7239C22.9998 21.1631 20.9729 20.6948 19.9097 21.6781C18.8465 22.6614 19.1496 24.7238 20.5868 26.2847C22.0239 27.8456 24.0508 28.3138 25.114 27.3305Z" fill="#52468A"/>
<path d="M15.7424 25.5328L19.907 21.7L25.1119 27.354L20.9474 31.1869L15.7424 25.5328Z" fill="#52468A"/>
<path d="M21.2356 30.9019C22.2988 29.9187 21.9957 27.8562 20.5585 26.2954C19.1214 24.7345 17.0945 24.2663 16.0313 25.2495C14.9681 26.2328 15.2712 28.2952 16.7084 29.8561C18.1455 31.417 20.1724 31.8852 21.2356 30.9019Z" fill="#312A52"/>
<path d="M17.4746 29.1639C16.6113 28.2263 16.4299 26.9875 17.0678 26.3965C17.7056 25.8055 18.9246 26.0882 19.7879 27.0259C20.6511 27.9635 20.8325 29.2022 20.1947 29.7932C19.5568 30.3842 18.3421 30.1072 17.4746 29.1639Z" fill="#52468A"/>
<path d="M18.0742 28.6113C17.6574 28.1581 17.5696 27.56 17.8772 27.2759C18.1847 26.9918 18.773 27.1339 19.1897 27.5785C19.6065 28.0232 19.6929 28.6298 19.3853 28.9139C19.0778 29.198 18.4838 29.0631 18.0742 28.6113Z" fill="#312A52"/>
<path d="M18.0232 23.4303C18.0232 23.4303 19.924 23.4004 21.4804 25.2387C23.0368 27.077 22.8653 29.4182 22.8653 29.4182L23.7696 28.5857C23.7696 28.5857 24.4783 26.7204 22.3521 24.3537C20.2259 21.9869 18.8935 22.6276 18.8935 22.6276L18.0232 23.4303Z" fill="#312A52"/>
<path d="M41.1975 45.9992C42.2607 45.016 41.9576 42.9535 40.5205 41.3927C39.0833 39.8318 37.0564 39.3635 35.9932 40.3468C34.93 41.3301 35.2331 43.3925 36.6703 44.9534C38.1074 46.5143 40.1343 46.9825 41.1975 45.9992Z" fill="#52468A"/>
<path d="M31.825 44.204L35.9895 40.3698L41.1944 46.0238L37.0299 49.8567L31.825 44.204Z" fill="#52468A"/>
<path d="M32.7889 48.5454C31.3515 46.9827 31.0482 44.9214 32.1113 43.9383C33.1744 42.9553 35.2014 43.4241 36.6387 44.9853C38.076 46.5466 38.3793 48.6093 37.3162 49.5924C36.2531 50.5755 34.2262 50.1067 32.7889 48.5454Z" fill="#312A52"/>
<path d="M33.5571 47.8337C32.6939 46.8961 32.5124 45.6574 33.1503 45.0678C33.7881 44.4782 35.0072 44.7581 35.8704 45.6957C36.7336 46.6333 36.9151 47.8735 36.2772 48.4631C35.6394 49.0526 34.4203 48.7728 33.5571 47.8337Z" fill="#52468A"/>
<path d="M34.1567 47.2811C33.74 46.8293 33.6521 46.2312 33.9597 45.9457C34.2673 45.6601 34.8555 45.8036 35.2722 46.2497C35.689 46.6958 35.7754 47.2995 35.4679 47.5851C35.1603 47.8706 34.572 47.7342 34.1567 47.2811Z" fill="#312A52"/>
<path d="M34.1057 42.1044C34.1057 42.1044 36.0065 42.0745 37.5615 43.9114C39.1165 45.7483 38.9478 48.0909 38.9478 48.0909L39.8521 47.2598C39.8521 47.2598 40.5609 45.3945 38.4347 43.0263C36.3085 40.6582 34.976 41.3017 34.976 41.3017L34.1057 42.1044Z" fill="#312A52"/>
<path d="M97.278 101.706C98.8982 104.63 99.4992 107.706 98.6033 110.885L88.5067 119.629C87.2962 119.039 85.9723 118.423 84.5619 117.782C78.1621 114.857 69.962 111.374 62.336 107.527C60.9838 104.296 62.4452 94.3789 65.2588 92.1841C63.8867 89.7434 62.0128 87.1195 59.6797 84.1618C57.6371 81.5749 55.243 78.7294 52.5215 75.533C54.693 75.4463 58.9979 77.5843 61.0036 77.8983C70.2653 81.7056 91.1234 90.6001 97.278 101.706Z" fill="#61576A"/>
<path d="M102.194 37.4447C102.514 37.8851 102.83 38.3459 103.141 38.827C110.296 49.9007 114.665 71.0751 118.18 86.3283C118.699 88.58 119.2 90.7024 119.688 92.6444L89.2693 118.964C88.1665 117.705 87.0325 116.401 85.8673 115.053C77.9295 105.895 68.6338 94.8648 59.6796 84.1561C56.883 80.8163 54.1232 77.5048 51.4456 74.2914C50.4165 73.0602 49.402 71.8436 48.4023 70.6418L40.3851 61.0228C40.3851 61.0228 34.5734 53.1142 44.4858 45.9784C45.0528 45.5636 45.6864 45.1516 46.3724 44.7453C46.4799 44.4048 46.6116 44.0725 46.7665 43.7509C47.6623 41.8586 49.3179 40.2178 51.257 39.0017C53.6398 37.5072 56.4478 36.6591 58.788 36.787C60.995 36.9574 63.3821 29.4409 70.9882 29.8018C75.3285 30.0092 77.0308 23.7471 84.6185 26.8355C84.6129 26.8312 95.1418 31.7651 102.194 37.4447Z" fill="#61576A"/>
<path d="M24.1693 20.2411L14.5674 28.5446C5.85566 18.7167 3.49132 12.2074 4.45095 8.3263C4.95415 6.28203 6.37728 4.96226 8.27811 4.26189C8.98684 4.05448 15.0692 10.936 24.1693 20.2411Z" fill="#61576A"/>
<path d="M70.6197 69.0535L56.8348 80.2338C56.8348 80.2338 54.7596 77.9992 51.4399 74.2914C46.7311 69.0351 39.5133 60.8139 32.1624 51.82L44.3837 41.2449C45.1804 42.084 45.9732 42.9179 46.7623 43.7466L49.1365 46.2469C60.9298 58.6844 70.6197 69.0535 70.6197 69.0535Z" fill="#61576A"/>
<path d="M40.5482 37.2231L28.6684 47.5013C24.5577 42.3487 20.5109 37.0612 16.9644 32.0265L27.1063 23.2513C31.3828 27.6467 35.9839 32.4428 40.5482 37.2231Z" fill="#61576A"/>
<path d="M106.903 109.285C115.582 101.777 121.271 94.1292 119.612 92.2025C117.953 90.2758 109.572 94.7999 100.894 102.307C92.216 109.815 86.5261 117.463 88.1855 119.389C89.8449 121.316 98.2252 116.792 106.903 109.285Z" fill="#8C3FD7"/>
<path d="M118.356 95.8265C119.515 97.1733 114.551 103.373 107.268 109.675C99.9854 115.977 93.1404 119.993 91.9809 118.646C91.931 118.588 91.8925 118.521 91.8675 118.449C91.7711 118.19 91.8066 117.828 91.9597 117.382C92.1879 116.717 92.6755 115.86 93.3771 114.867C95.2794 112.195 98.7635 108.516 103.063 104.799C107.362 101.083 111.499 98.1606 114.414 96.6647C115.5 96.1078 116.415 95.7498 117.107 95.6206C117.57 95.5339 117.933 95.5509 118.174 95.6845C118.243 95.7207 118.304 95.7688 118.356 95.8265Z" fill="#312A52"/>
<path d="M117.088 94.3562L118.208 95.6561L118.177 95.6845C117.936 95.551 117.573 95.5339 117.11 95.6206C116.421 95.7499 115.505 96.1079 114.416 96.6647C111.502 98.1607 107.36 101.083 103.065 104.799C98.7705 108.516 95.2821 112.195 93.3799 114.867C92.6711 115.862 92.1849 116.714 91.9624 117.382C91.8093 117.828 91.7739 118.19 91.8702 118.449L91.8377 118.476L90.7178 117.176C89.5584 115.83 94.5223 109.629 101.805 103.329C109.088 97.0284 115.929 93.0109 117.088 94.3562Z" fill="#52468A"/>
<path d="M119.354 116.298C121.837 114.286 121.464 109.698 118.521 106.052C115.578 102.407 111.18 101.083 108.698 103.095C106.215 105.108 106.588 109.695 109.531 113.341C112.473 116.987 116.872 118.311 119.354 116.298Z" fill="#52468A"/>
<path d="M98.9746 110.933L108.698 103.087L119.355 116.291L109.633 124.135L98.9746 110.933Z" fill="#52468A"/>
<path d="M110.299 123.604C112.781 121.591 112.408 117.004 109.465 113.358C106.523 109.712 102.125 108.388 99.642 110.4C97.1593 112.413 97.5323 117 100.475 120.646C103.418 124.292 107.816 125.616 110.299 123.604Z" fill="#312A52"/>
<path d="M108.171 120.966C109.662 119.757 109.438 117.002 107.67 114.812C105.903 112.622 103.261 111.826 101.77 113.035C100.279 114.244 100.503 117 102.27 119.19C104.038 121.379 106.679 122.175 108.171 120.966Z" fill="#52468A"/>
<path d="M106.514 118.914C107.234 118.33 107.126 117.001 106.273 115.945C105.42 114.888 104.146 114.504 103.426 115.088C102.707 115.671 102.815 117 103.668 118.057C104.52 119.113 105.795 119.497 106.514 118.914Z" fill="#312A52"/>
<path d="M104.299 106.636C104.299 106.636 108.49 106.843 111.655 111.115C114.82 115.387 114.109 120.523 114.109 120.523L116.221 118.818C116.221 118.818 118.04 114.81 113.708 109.29C109.376 103.769 106.337 104.992 106.337 104.992L104.299 106.636Z" fill="#312A52"/>
<path d="M130.019 100.657C123.939 95.811 94.1851 120.403 98.2249 128.164L110.262 140.629L192.333 225.623C220.116 228.361 245.488 180.933 241.288 170.212L130.019 100.657Z" fill="#A38CBA"/>
<path d="M103.14 38.827C110.296 49.9008 114.664 71.0751 118.18 86.3283C113.132 89.4722 104.619 95.122 97.2778 101.709C92.6002 105.913 88.3903 110.496 85.8615 115.053C85.3692 115.933 84.9331 116.843 84.5561 117.778C78.1562 114.853 69.9562 111.37 62.3302 107.523C60.9779 104.292 62.4393 94.3747 65.253 92.1799C63.8809 89.7392 62.007 87.1154 59.6738 84.1576C55.807 79.5349 52.0025 74.9705 48.3965 70.6433C51.5773 69.4997 90.7972 55.194 103.14 38.827Z" fill="#BC89EF"/>
<path d="M34.9731 42.0404C32.7959 36.9475 25.7596 30.9155 21.8247 27.8157L27.1062 23.2456C31.3756 27.641 35.9838 32.437 40.548 37.2174L34.9731 42.0404Z" fill="#BC89EF"/>
<path d="M24.1693 20.241L19.1359 24.5966C18.5335 24.3764 17.9892 23.7769 17.5427 22.666C15.5086 17.5915 8.47086 11.5141 4.45093 8.3305C4.95413 6.28623 6.37727 4.96647 8.27809 4.26611C8.98682 4.05443 15.0692 10.9359 24.1693 20.241Z" fill="#BC89EF"/>
<path d="M51.2514 38.9974C50.6207 40.8244 49.7135 43.6329 49.1351 46.2426C48.7368 48.0411 48.493 49.7473 48.6022 50.979C47.5816 49.5583 45.909 47.5965 44.4802 45.9741C43.3859 44.7282 42.439 43.6898 42.0464 43.2621L44.3824 41.2406C45.179 42.0797 45.9718 42.9136 46.7609 43.7423C47.6567 41.8543 49.3152 40.2135 51.2514 38.9974Z" fill="#BC89EF"/>
<path d="M106.025 126.309C106.025 126.309 108.513 122.009 113.078 119.013C118.592 124.03 190.696 185.063 190.696 185.063L179.548 195.902L106.025 126.309Z" fill="#61576A"/>
<path d="M53.9106 41.0588C54.3982 41.627 53.8468 42.9056 52.6788 43.9156C51.5108 44.9257 50.1671 45.2865 49.6795 44.7197C49.1919 44.1529 49.7433 42.8729 50.9113 41.8643C52.0793 40.8556 53.4216 40.4934 53.9106 41.0588Z" fill="#E5CBFF"/>
<path d="M55.4046 40.7207C55.8922 41.2889 55.3408 42.5675 54.1728 43.5776C53.0048 44.5876 51.6625 44.9485 51.1735 44.3816C50.6844 43.8148 51.2373 42.5348 52.4053 41.5248C53.5733 40.5147 54.9127 40.1539 55.4046 40.7207Z" fill="#E5CBFF"/>
<path d="M65.8514 36.8368C67.0201 35.8258 67.5718 34.5469 67.0838 33.9803C66.5958 33.4137 65.2529 33.774 64.0842 34.7849C62.9156 35.7959 62.3639 37.0748 62.8519 37.6414C63.3399 38.208 64.6828 37.8478 65.8514 36.8368Z" fill="#E5CBFF"/>
<path d="M78.976 31.3323C80.1446 30.3213 80.6963 29.0424 80.2083 28.4758C79.7203 27.9092 78.3774 28.2695 77.2088 29.2804C76.0401 30.2914 75.4884 31.5703 75.9764 32.1369C76.4644 32.7035 77.8073 32.3433 78.976 31.3323Z" fill="#E5CBFF"/>
<path d="M70.1433 77.5944L83.6731 93.9315C84.1658 94.5273 84.8622 94.9179 85.6266 95.0272C86.391 95.1364 87.1685 94.9565 87.8078 94.5225L108.503 80.4925C109.077 80.1034 109.504 79.5335 109.718 78.8732C109.932 78.2128 109.92 77.4998 109.684 76.8471L102.965 58.2839C102.809 57.8536 102.561 57.463 102.237 57.1398C101.914 56.8167 101.523 56.5689 101.094 56.4142C100.664 56.2594 100.205 56.2015 99.7505 56.2445C99.2959 56.2875 98.8562 56.4304 98.4629 56.663L70.964 72.9191C70.5756 73.1477 70.2414 73.4582 69.9845 73.829C69.7275 74.1998 69.554 74.6221 69.476 75.0667C69.3979 75.5114 69.4172 75.9677 69.5324 76.4041C69.6476 76.8405 69.8561 77.2466 70.1433 77.5944Z" fill="#61576A"/>
<path d="M86.0628 95.2044C85.5849 95.204 85.113 95.0979 84.6808 94.8935C84.2486 94.6892 83.8667 94.3918 83.5624 94.0224L70.0341 77.6853C69.7349 77.3216 69.5176 76.8974 69.3974 76.4416C69.2771 75.9859 69.2567 75.5095 69.3375 75.0451C69.4183 74.5807 69.5984 74.1393 69.8655 73.7512C70.1325 73.3632 70.4802 73.0376 70.8846 72.7969L98.3835 56.5408C98.7948 56.2978 99.2545 56.1486 99.7298 56.1037C100.205 56.0589 100.685 56.1195 101.134 56.2812C101.583 56.443 101.992 56.702 102.33 57.0398C102.668 57.3775 102.928 57.7858 103.091 58.2356L109.817 76.7974C110.065 77.4799 110.078 78.2259 109.854 78.9168C109.63 79.6076 109.183 80.2037 108.582 80.6104L87.8871 94.6404C87.3491 95.0072 86.7136 95.2037 86.0628 95.2044ZM70.2524 77.5035L83.7807 93.8406C84.2497 94.4114 84.9144 94.786 85.6447 94.8912C86.375 94.9963 87.1181 94.8243 87.7284 94.4088L108.423 80.3774C108.973 80.0074 109.383 79.464 109.588 78.8335C109.794 78.2031 109.783 77.5218 109.557 76.8983L102.831 58.335C102.683 57.9243 102.445 57.5516 102.137 57.2432C101.828 56.9348 101.455 56.6983 101.045 56.5506C100.635 56.403 100.197 56.3477 99.7629 56.3887C99.3289 56.4297 98.9092 56.566 98.5337 56.788L71.0348 73.0441C70.6648 73.263 70.3466 73.5598 70.1022 73.914C69.8577 74.2682 69.6929 74.6713 69.619 75.0956C69.5452 75.5198 69.5641 75.955 69.6744 76.3713C69.7847 76.7875 69.9839 77.1747 70.2581 77.5063L70.2524 77.5035Z" fill="#E8D0FF"/>
<path d="M80.5985 72.2628C80.5988 72.3587 80.5707 72.4526 80.5177 72.5325C80.4647 72.6124 80.3892 72.6747 80.3008 72.7115C80.2124 72.7484 80.1151 72.7581 80.0212 72.7394C79.9273 72.7208 79.8411 72.6746 79.7734 72.6068C79.7057 72.5389 79.6597 72.4525 79.6411 72.3584C79.6225 72.2643 79.6321 72.1668 79.6689 72.0782C79.7057 71.9896 79.7678 71.914 79.8475 71.8608C79.9272 71.8077 80.0209 71.7795 80.1166 71.7798C80.2443 71.7802 80.3667 71.8312 80.457 71.9217C80.5473 72.0122 80.5982 72.1348 80.5985 72.2628Z" fill="#E8D0FF"/>
<path d="M98.2121 62.1081C98.2121 62.2039 98.1837 62.2976 98.1306 62.3772C98.0775 62.4569 98.002 62.519 97.9137 62.5556C97.8254 62.5923 97.7282 62.6019 97.6344 62.5832C97.5407 62.5645 97.4545 62.5184 97.3869 62.4506C97.3193 62.3829 97.2733 62.2966 97.2547 62.2026C97.236 62.1086 97.2456 62.0112 97.2821 61.9227C97.3187 61.8342 97.3807 61.7585 97.4602 61.7053C97.5397 61.6521 97.6331 61.6237 97.7287 61.6237C97.8569 61.6237 97.9798 61.6747 98.0705 61.7655C98.1611 61.8564 98.2121 61.9796 98.2121 62.1081Z" fill="#E8D0FF"/>
</svg>
