<svg width="19" height="19" viewBox="0 0 19 19" fill="none" xmlns="http://www.w3.org/2000/svg">
<g clip-path="url(#clip0_303_3025)">
<path d="M17.1856 0.945312H1.84508C1.11158 0.945312 0.517578 1.5254 0.517578 2.24265V17.6445C0.517578 18.3617 1.11158 18.9453 1.8462 18.9453H17.1856C17.9202 18.9453 18.5176 18.3617 18.5176 17.648V2.24265C18.5176 1.5254 17.9202 0.945312 17.1856 0.945312ZM5.85683 16.2844H3.1872V7.69124H5.85908V16.2844H5.85683ZM4.52258 6.52062C3.66533 6.52062 2.97233 5.82893 2.97233 4.9745C2.97233 4.12007 3.66533 3.42839 4.52258 3.42839C5.37758 3.42839 6.06945 4.12007 6.06945 4.9745C6.06945 5.82545 5.37758 6.52062 4.52258 6.52062ZM15.857 16.2844H13.1896V12.1075C13.1896 11.1125 13.1716 9.82906 11.8002 9.82906C10.412 9.82906 10.2005 10.916 10.2005 12.0378V16.2844H7.5342V7.69124H10.0936V8.86536H10.1296C10.484 8.19112 11.3558 7.47735 12.6541 7.47735C15.3575 7.47735 15.8558 9.25596 15.8558 11.5693V16.2844H15.857Z" fill="#C890FF"/>
</g>
<defs>
<clipPath id="clip0_303_3025">
<rect width="18" height="18" fill="white" transform="translate(0.517578 0.945312)"/>
</clipPath>
</defs>
</svg>
