<svg width="581" height="358" viewBox="0 0 581 358" fill="none" xmlns="http://www.w3.org/2000/svg">
<g clip-path="url(#clip0_127_597)">
<path d="M86.4759 218.008L88.9014 220.093C88.9014 220.093 95.5332 217.576 97.0305 225.922C97.0305 225.922 97.4279 229.48 95.3018 229.485C93.1756 229.491 94.0521 229.096 91.0385 229.197C88.0248 229.298 85.5285 227.609 85.0875 225.02L83.6445 222.826L86.4759 218.008Z" fill="#7E52A9"/>
<path d="M86.2007 222.485C88.1363 220.346 87.9785 218.764 87.9785 218.764C87.9785 218.764 65.5898 199.344 63.3085 197.761C61.7622 196.683 45.2647 181.195 37.5549 171.754C33.73 167.072 28.9931 168.888 23.5702 170.537L19.1082 171.892C13.7179 173.53 12.3159 181.513 16.737 185.393C29.1945 196.319 49.9145 208.607 53.7911 211.19C63.4146 217.602 82.2561 225.221 82.2561 225.221C83.7297 224.596 85.0706 223.666 86.2007 222.485Z" fill="#7E52A9"/>
<path d="M111.764 341.801C111.764 341.801 117.208 346.125 125.528 343.819C125.528 343.819 132.244 342.198 133.717 345.747C133.717 345.747 123.418 351.288 120.81 352.802C118.847 353.955 116.797 355.748 115.346 357.141C115.074 357.402 114.755 357.601 114.408 357.727C114.06 357.853 113.693 357.903 113.327 357.873C112.961 357.843 112.604 357.734 112.279 357.553C111.955 357.372 111.668 357.123 111.437 356.821C110.982 356.244 110.465 355.529 109.896 354.713C108.309 352.436 104.609 345.073 104.609 345.073L111.764 341.801Z" fill="#1B2251"/>
<path d="M114.954 339.609C114.954 339.609 111.644 347.682 104.002 346.206C104.002 346.206 88.4114 332.569 77.7179 318.405C74.2442 313.792 71.2877 309.148 69.5509 304.887C62.4591 287.5 43.3184 261.564 31.1494 248.421L61.5962 236.756C61.5962 236.756 71.3504 257.531 84.3279 283.051C93.6765 301.439 104.699 322.291 114.954 339.609Z" fill="#312A52"/>
<path d="M116.729 186.148C116.93 184.18 116.989 182.199 116.906 180.221C116.886 179.781 116.99 179.344 117.205 178.967C117.419 178.59 117.735 178.289 118.112 178.102L127.096 173.682C127.562 173.454 127.93 173.048 128.127 172.546C128.324 172.043 128.336 171.481 128.16 170.969L125.057 161.931C124.888 161.441 124.554 161.034 124.12 160.789C123.685 160.543 123.181 160.476 122.702 160.599L113.833 162.906C113.409 163.014 112.963 162.977 112.56 162.8C112.158 162.623 111.819 162.315 111.592 161.92C109.564 158.416 107.022 155.276 104.062 152.619C103.711 152.302 103.47 151.87 103.377 151.391C103.284 150.912 103.345 150.414 103.55 149.976L106.001 144.691C106.226 144.204 106.275 143.647 106.136 143.125C105.997 142.603 105.682 142.153 105.249 141.863L97.6456 136.76C97.2121 136.468 96.6915 136.359 96.1855 136.452C95.6796 136.545 95.2247 136.835 94.9097 137.265L89.5738 144.688C87.911 144.243 86.2208 143.921 84.5157 143.725C82.2461 143.464 79.9584 143.428 77.6825 143.619C77.2691 143.655 76.8551 143.556 76.4963 143.336C76.1375 143.115 75.8512 142.783 75.6761 142.385L72.3113 134.704C72.089 134.199 71.696 133.8 71.2096 133.587C70.7233 133.373 70.179 133.361 69.6843 133.551L61.3021 136.78C60.8097 136.971 60.401 137.347 60.1543 137.837C59.9076 138.327 59.8404 138.896 59.9654 139.435L61.784 147.286C61.8872 147.726 61.8583 148.19 61.7012 148.612C61.5441 149.034 61.2665 149.394 60.9073 149.641C58.5344 151.263 56.3473 153.171 54.39 155.326C54.0819 155.663 53.6809 155.888 53.2446 155.968C52.8083 156.049 52.3591 155.98 51.9617 155.773L43.8655 151.561C43.4042 151.321 42.8752 151.269 42.3803 151.417C41.8854 151.564 41.4593 151.9 41.1839 152.36L36.3845 160.38C36.1037 160.849 35.9994 161.412 36.0921 161.958C36.1849 162.505 36.468 162.994 36.8853 163.33L44.7665 169.672C45.0917 169.936 45.3355 170.296 45.4665 170.707C45.5974 171.117 45.6096 171.56 45.5016 171.979C45.0156 173.902 44.6698 175.863 44.4671 177.843C44.3582 178.909 44.2901 179.967 44.2656 181.014C44.2559 181.436 44.135 181.847 43.9167 182.201C43.6983 182.554 43.3911 182.836 43.0296 183.015L34.3916 187.278C33.9279 187.506 33.5618 187.909 33.3657 188.409C33.1695 188.909 33.1577 189.468 33.3326 189.977L36.4007 198.914C36.5802 199.438 36.9362 199.872 37.4 200.135C37.8638 200.397 38.4028 200.469 38.9134 200.336L45.9398 198.508C46.3927 198.389 46.8702 198.435 47.2954 198.638C47.7206 198.841 48.0689 199.191 48.2839 199.629C50.0191 203.187 52.2654 206.439 54.9427 209.267C55.2545 209.595 55.4614 210.019 55.5347 210.478C55.6079 210.937 55.5437 211.409 55.3511 211.827L51.7658 219.559C51.5335 220.06 51.4839 220.634 51.6266 221.17C51.7693 221.707 52.0942 222.169 52.5389 222.468L60.0961 227.539C60.5325 227.832 61.0568 227.941 61.5655 227.845C62.0741 227.748 62.53 227.453 62.843 227.018L68.0753 219.718C68.3367 219.356 68.696 219.086 69.1054 218.945C69.5148 218.804 69.9549 218.798 70.3675 218.928C72.4311 219.565 74.5438 220.007 76.6808 220.251C77.846 220.387 79.0083 220.459 80.1571 220.476C80.5488 220.482 80.9311 220.604 81.26 220.83C81.5889 221.055 81.8511 221.374 82.0165 221.75L85.4304 229.534C85.6569 230.043 86.055 230.443 86.5461 230.657C87.0373 230.87 87.5861 230.881 88.0846 230.688L96.4777 227.453C96.96 227.267 97.361 226.9 97.604 226.422C97.847 225.943 97.9151 225.387 97.7953 224.858L96.3525 218.614C96.2419 218.134 96.2861 217.628 96.478 217.178C96.6699 216.728 96.9985 216.358 97.4115 216.129C101.706 213.75 105.51 210.49 108.603 206.54C108.899 206.162 109.307 205.901 109.76 205.799C110.214 205.697 110.687 205.76 111.102 205.978L117.652 209.385C118.112 209.624 118.64 209.675 119.133 209.528C119.627 209.38 120.051 209.045 120.326 208.587L125.122 200.572C125.404 200.1 125.509 199.534 125.416 198.985C125.323 198.435 125.038 197.943 124.619 197.605L117.042 191.511C116.734 191.263 116.498 190.928 116.36 190.545C116.222 190.162 116.189 189.745 116.264 189.343C116.462 188.293 116.617 187.229 116.729 186.148ZM88.2779 201.322C69.4011 208.474 53.6958 187.679 64.5526 169.698C66.186 166.997 69.8504 163.872 72.6898 162.779C91.6047 155.404 107.416 176.095 96.7717 194.1C95.0866 196.942 91.2671 200.188 88.2779 201.322Z" fill="#B1C9F6"/>
<path d="M84.3251 283.051L77.7179 318.405C74.2442 313.792 71.2877 309.148 69.5509 304.887C62.4591 287.5 43.3184 261.564 31.1494 248.421L61.5962 236.756C61.5962 236.756 71.3476 257.531 84.3251 283.051Z" fill="#1B2251"/>
<path d="M59.4344 346.491C59.4344 346.491 59.1022 352.94 66.4853 353.799C66.4853 353.799 70.9418 353.897 70.9527 358H49.2554C49.2554 358 48.6348 356.345 48.4823 352.811C48.3653 350.086 50.9759 342.968 50.9759 342.968L59.4344 346.491Z" fill="#1B2251"/>
<path d="M51.608 236.756C51.608 236.756 65.1735 252.541 73.7843 280.978C78.4667 296.448 65.1952 335.348 62.6089 348.867C62.6089 348.867 53.7069 349.665 47.617 347.172C47.617 347.172 47.1568 319.258 50.715 297.743C52.7077 285.701 32.8564 271.989 24.1802 250.231C18.2809 235.43 25.4597 235.681 34.2829 235.323L51.608 236.756Z" fill="#312A52"/>
<path d="M35.9489 166.334C28.4026 170.848 12.9531 166.685 12.9531 166.685C12.9531 166.685 19.2146 159.089 16.3752 146.856L22.3018 150.027L28.6666 153.45C29.0025 155.453 29.2352 157.474 29.3636 159.504C29.4371 160.504 29.5024 161.62 29.5459 162.839C31.8644 163.579 34.0347 164.763 35.9489 166.334Z" fill="#FF9792"/>
<path d="M63.6217 235.94C63.6217 237.344 62.0945 238.016 61.7705 238.085C58.7269 238.662 50.2276 242.176 42.5697 242.986C36.1231 243.704 30.1394 243.024 23.5622 241.626C22.6911 241.441 20.6465 240.856 20.5022 239.974C20.3198 239.008 -4.86192 185.606 14.7145 162.666C15.1746 162.13 19.0376 163.099 22.5712 163.987C25.551 164.733 28.6774 164.463 31.5033 163.214L34.8273 165.054C38.8972 167.455 46.5987 175.986 47.4998 182.683C47.9572 186.088 49.7975 188.608 50.3284 191.603C50.528 192.714 50.7295 193.796 50.9328 194.849C51.3357 196.915 51.7495 198.884 52.1742 200.756C53.323 205.822 54.5399 210.181 55.7323 213.946C57.0036 217.945 58.2478 221.272 59.3612 224.054C60.804 227.66 62.0237 230.356 62.7859 232.414C63.3141 233.876 63.6217 235.015 63.6217 235.94Z" fill="#641882"/>
<path d="M62.7746 232.423C27.2261 214.687 14.9155 180.627 14.9155 180.627C14.9155 180.627 43.8107 191.911 50.9215 194.849C51.3244 196.915 51.7382 198.884 52.1629 200.756C53.3117 205.822 54.5286 210.181 55.721 213.946C56.9923 217.945 58.2365 221.272 59.3499 224.054C60.7928 227.66 62.0124 230.356 62.7746 232.423Z" fill="#6615B2"/>
<path d="M83.5739 222.142L86.6474 223.336C86.6474 223.336 92.7971 218.723 96.6275 226.219C96.6275 226.219 98.0132 229.491 95.8108 230.203C93.6084 230.915 94.4143 230.244 91.3326 231.33C88.2509 232.417 85.2127 231.636 84.0475 229.312L81.9595 227.689L83.5739 222.142Z" fill="#FF9792"/>
<path d="M86.1027 226.744C87.2379 223.607 87.7579 222.186 87.7579 222.186C87.7579 222.186 64.5443 202.149 62.1677 200.431C60.5561 199.257 44.5105 186.558 36.6864 176.66C34.7827 174.251 32.2962 172.434 29.4929 171.406C26.6897 170.377 23.6751 170.174 20.7716 170.82L15.8986 171.901C10.0156 173.21 8.10442 181.094 12.6671 185.237C25.5221 196.908 47.2029 210.443 51.2456 213.26C61.2802 220.248 83.4756 230.042 83.4756 230.042C83.4756 230.042 85.2097 229.209 86.1027 226.744Z" fill="#641882"/>
<path d="M29.3634 159.507C21.9423 159.948 17.1128 153.452 17.1128 153.452C17.1128 153.452 20.4694 151.486 22.2988 150.036L28.6637 153.458C29.0003 155.459 29.2339 157.479 29.3634 159.507Z" fill="#7E52A9"/>
<path d="M32.5241 151.437C32.5241 151.437 21.2809 159.982 16.3643 152.487C11.4477 144.991 6.68085 141.041 13.6419 135.267C20.603 129.492 23.8996 131.32 26.1184 133.398C28.3371 135.477 35.3227 149.021 32.5241 151.437Z" fill="#FF9792"/>
<path d="M27.316 126.626C27.0875 124.938 26.6471 123.29 26.0066 121.725C26.0066 121.725 25.2987 124.822 19.9574 124.395C14.6162 123.968 6.14967 124.951 3.32659 131.398C3.14691 131.807 2.98629 132.231 2.84472 132.66C2.33292 131.233 2.21039 129.091 2.21039 129.091C1.19495 131.865 2.21039 135.339 2.21039 135.339L2.16958 135.641C0.990804 136.697 -0.00830078 139.966 -0.00830078 139.966C0.348328 139.052 1.21672 138.455 1.98987 138.086C1.96537 143.103 3.89554 148.006 7.25765 149.468C12.1878 151.602 12.1579 149.973 17.1072 153.455C17.1072 153.455 18.4384 151.708 17.5291 150.535C16.6198 149.361 13.1951 147.652 15.1117 145.945C17.0282 144.238 17.7332 146.159 18.4383 144.985C19.1434 143.812 15.6153 140.393 20.1507 137.201C24.6861 134.01 27.7189 129.509 27.316 126.626Z" fill="#1B2251"/>
<path d="M551.514 347.486C551.514 347.486 552.121 357.833 554.011 357.983C554.261 358 563.599 358 563.599 358H575.528C575.528 358 575.436 354.886 571.954 354.252C568.472 353.618 562.638 351.017 560.52 346.142C558.309 341.005 551.514 347.486 551.514 347.486Z" fill="#1B2251"/>
<path d="M504.314 262.446C506.013 265.784 507.916 268.999 510.012 272.073C516.273 281.419 523.104 289.123 524.294 296.408C524.557 297.986 524.921 299.543 525.382 301.07C525.881 302.739 526.493 304.492 527.201 306.305C529.861 313.129 533.841 320.775 537.818 327.726C544.684 339.739 551.141 349.766 551.141 349.766L562.981 349.169C562.507 347.768 557.343 331.18 550.436 310.907C547.63 302.676 544.646 293.923 541.768 285.479C541.385 284.35 541.003 283.23 540.622 282.117C539.743 279.522 538.877 276.991 538.031 274.515C531.546 255.487 526.379 240.32 526.379 240.32C526.379 240.32 500.454 228.721 497.761 236.234C495.543 242.433 497.356 248.504 504.314 262.446Z" fill="#CBA0F5"/>
<path d="M526.093 336.271C526.093 336.271 521.756 340.529 522.603 343.553C523.449 346.578 527.361 348.593 527.89 352.289C528.418 355.985 530.536 358 532.439 358H541.515C541.515 358 542.917 355.405 539.53 354.615C536.144 353.825 534.87 349.489 535.082 345.456C535.294 341.423 534.766 336.049 534.766 336.049L527.574 334.256L526.093 336.271Z" fill="#1B2251"/>
<path d="M529.926 238.893C529.926 238.893 557.207 285.752 557.207 289.486C557.207 297.734 536.596 345.217 536.596 345.217C536.596 345.217 525.655 339.093 526.093 334.798C526.093 334.798 532.657 301.465 534.565 296.108C536.473 290.752 500.078 270.559 498.172 246.172L529.926 238.893Z" fill="#BA68C8"/>
<path d="M543.301 214.794C543.301 214.794 548.928 218.181 550.502 218.181C552.075 218.181 558.26 216.916 559.984 217.847C561.707 218.778 564.827 222.532 565.412 223.757C566.463 225.962 561.173 224.988 558.674 223.111C558.497 222.973 558.294 222.876 558.078 222.826C557.863 222.776 557.64 222.775 557.425 222.823C556.131 223.111 553.439 223.642 552.141 223.131C550.396 222.445 541.194 221.69 541.194 221.69L543.301 214.794Z" fill="#7E52A9"/>
<path d="M500.497 168.652C500.497 168.652 506.328 212.548 515.987 216.48C520.751 218.42 541.812 222.823 548.04 223.261C548.04 223.261 549.568 221.949 549.195 216.613C549.195 216.613 527.13 208.033 523.996 203.368C519.33 196.426 526.893 175.006 521.037 168.484C515.182 161.963 505.327 159.175 500.497 168.652Z" fill="#641882"/>
<path d="M523.297 165.884C515.5 168.017 502.577 160.369 502.577 160.369C502.577 160.369 507.597 156.797 509.457 148.952C509.549 148.557 509.633 148.151 509.712 147.736L513.714 146.836L519.679 152.487C519.506 154.629 519.213 156.759 518.8 158.864C518.673 159.567 518.523 160.322 518.35 161.127C520.26 162.379 521.937 163.991 523.297 165.884Z" fill="#FF9792"/>
<path d="M494.323 200.114C495.439 216.019 493.972 240.21 495.238 244.399C496.326 248.014 508.787 245.864 513.75 244.658C515.59 244.212 517.817 243.572 520.12 242.819C526.542 240.712 533.541 237.705 534.29 235.473C534.319 235.39 534.343 235.304 534.361 235.217C534.424 234.907 534.419 234.587 534.347 234.28C534.096 233.144 533.133 231.913 533.018 229.09C532.89 225.945 532.909 222.24 532.798 218.256C532.798 217.806 532.798 217.319 532.741 216.872V216.708C532.741 216.624 532.741 216.541 532.741 216.454C532.634 212.012 532.414 207.341 532.161 202.711C531.997 199.802 531.812 196.919 531.597 194.16C531.036 187.036 530.282 180.7 529.283 176.692C527.65 170.165 524.051 165.904 520.773 162.785L518.405 160.631C515.759 161.242 512.633 160.839 509.805 159.417C506.745 157.881 505.689 156.777 505.155 157.192C498.088 162.963 493 180.662 494.323 200.114Z" fill="#A043AF"/>
<path d="M520.131 242.81C526.553 240.703 533.552 237.696 534.301 235.465C534.33 235.381 534.354 235.295 534.372 235.208C534.372 234.897 534.371 234.585 534.358 234.271C534.107 233.135 533.144 231.904 533.029 229.082C532.901 225.936 532.92 222.232 532.809 218.247C532.809 217.798 532.809 217.311 532.752 216.864V216.699C532.752 216.616 532.752 216.532 532.752 216.446L506.791 181.417C506.791 181.417 489.33 219.908 520.131 242.81Z" fill="#641882"/>
<path d="M519.679 152.487C519.506 154.629 519.213 156.759 518.799 158.864C512.985 156.872 510.36 151.31 509.467 148.952C509.56 148.557 509.644 148.151 509.723 147.736L513.725 146.836L519.679 152.487Z" fill="#7E52A9"/>
<path d="M520.452 156.041C520.452 156.041 507.771 153.798 509.209 145.458C510.646 137.117 509.982 131.21 518.141 132.288C526.3 133.367 527.315 136.852 527.476 139.761C527.636 142.67 523.787 156.408 520.452 156.041Z" fill="#FF9792"/>
<path d="M570.393 227.32L571.512 227.705L581.031 196.696L579.913 196.311L570.393 227.32Z" fill="#312A52"/>
<path d="M539.179 227.177L571.481 227.905L571.522 225.859L539.22 225.13L539.179 227.177Z" fill="#312A52"/>
<path d="M539.824 228.701C539.824 228.701 550.205 231.599 554.095 231.296C557.985 230.993 561.225 229.033 561.717 228.009C562.21 226.986 563.236 225.169 560.585 225.507C557.933 225.844 554.324 226.438 554.206 225.899C554.089 225.36 556.365 225.409 556.365 225.409C556.365 225.409 557.054 224.354 556.188 224.313C555.323 224.273 552.802 223.549 551.863 224.048C550.923 224.547 550.063 226.375 549.377 226.3C548.691 226.225 540.693 222.483 540.693 222.483L539.824 228.701Z" fill="#FF9792"/>
<path d="M503.073 170.451C503.073 170.451 504.3 214.762 513.488 219.798C518.024 222.284 538.496 229.113 544.643 230.278C544.643 230.278 546.296 229.154 546.483 223.806C546.483 223.806 525.445 212.703 522.815 207.702C518.901 200.258 528.647 179.849 523.507 172.685C518.367 165.521 508.858 161.582 503.073 170.451Z" fill="#A043AF"/>
<path d="M509.457 148.952C509.457 148.952 509.31 146.089 510.978 144.449C510.978 144.449 510.396 141.58 511.468 141.108C512.541 140.635 512.764 143.048 513.257 142.667C513.75 142.287 515.936 140.493 516.872 137.844C517.809 135.195 526.401 138.403 527.397 138.879C528.393 139.355 531.611 137.608 532.237 136.189C532.237 136.189 530.451 134.676 529.646 133.54C528.84 132.404 523.215 124.741 515.356 126.909C507.497 129.077 506.421 133.058 506.868 136.463C507.314 139.868 506.236 147.808 509.457 148.952Z" fill="#312A52"/>
<path d="M496.901 245.102L472.334 229.428C471.339 228.776 470.533 227.847 470.005 226.742C469.476 225.636 469.246 224.398 469.34 223.163C469.59 219.947 469.716 216.699 469.716 213.418C469.735 207.434 469.305 201.457 468.431 195.544C468.222 194.226 468.395 192.873 468.925 191.661C469.456 190.449 470.319 189.435 471.403 188.752L497.067 172.345C498.4 171.5 499.383 170.154 499.819 168.574C500.254 166.995 500.109 165.3 499.414 163.828L487.335 137.781C486.673 136.362 485.542 135.251 484.157 134.658C482.772 134.065 481.23 134.033 479.824 134.566L453.88 144.541C452.64 145.032 451.284 145.084 450.014 144.69C448.744 144.295 447.629 143.475 446.837 142.353C439.663 132.54 431.065 123.993 421.364 117.032C420.22 116.194 419.37 114.979 418.946 113.576C418.522 112.174 418.547 110.662 419.017 109.277L424.767 92.5783C425.287 91.0303 425.255 89.3347 424.679 87.8093C424.103 86.2839 423.021 85.0335 421.636 84.2926L397.195 71.6306C396.712 71.3659 396.196 71.1765 395.662 71.0684C394.411 70.7944 393.111 70.9421 391.943 71.4907C390.776 72.0393 389.8 72.9613 389.153 74.1272L378.076 93.547L375.394 98.2866C370.273 97.517 365.106 97.1317 359.934 97.1334C353.025 97.1274 346.132 97.803 339.342 99.1515C338.109 99.4069 336.832 99.2543 335.684 98.7143C334.536 98.1742 333.573 97.273 332.925 96.133L320.47 74.2224C319.65 72.7825 318.349 71.7214 316.825 71.2489C315.301 70.7764 313.665 70.927 312.241 71.6709L293.432 81.4471L288.05 84.2638C286.627 84.999 285.511 86.2652 284.916 87.8191C284.321 89.373 284.289 91.1049 284.827 92.6821L292.67 115.642C293.133 116.921 293.201 118.323 292.864 119.645C292.526 120.968 291.8 122.142 290.791 123C284.691 128.254 279.141 134.187 274.237 140.695C273.794 141.214 273.376 141.757 272.984 142.321C272.856 142.512 272.71 142.689 272.549 142.849C271.702 143.801 270.608 144.466 269.404 144.761C268.201 145.056 266.942 144.967 265.786 144.507L240.158 134.67C239.875 134.551 239.581 134.463 239.282 134.405C237.918 134.119 236.503 134.314 235.253 134.961C234.004 135.608 232.989 136.67 232.364 137.985L220.41 163.788C219.715 165.292 219.576 167.018 220.022 168.625C220.468 170.233 221.466 171.605 222.819 172.471L248.451 188.809C249.515 189.478 250.363 190.473 250.882 191.662C251.402 192.852 251.569 194.18 251.361 195.472C250.504 201.416 250.075 207.42 250.079 213.433C250.079 216.683 250.204 219.898 250.454 223.079C250.551 224.345 250.312 225.614 249.764 226.743C249.217 227.873 248.383 228.819 247.356 229.474L222.694 245.249C221.375 246.092 220.403 247.428 219.968 248.992C219.534 250.557 219.669 252.238 220.348 253.702L232.326 279.453C233.025 280.966 234.228 282.15 235.703 282.779C237.178 283.407 238.82 283.434 240.313 282.855L260.843 274.967C262.171 274.452 263.623 274.424 264.968 274.886C266.313 275.349 267.473 276.276 268.261 277.519C274.56 287.611 282.298 296.608 291.2 304.189C292.242 305.057 292.998 306.253 293.358 307.605C293.717 308.956 293.662 310.394 293.201 311.711L284.816 336.19C284.277 337.777 284.308 339.518 284.902 341.082C285.496 342.647 286.613 343.925 288.039 344.675L312.292 357.302C313.691 358.034 315.299 358.18 316.795 357.713C318.291 357.247 319.566 356.2 320.367 354.783L321.023 353.655L333.886 331.087C334.552 329.912 335.541 328.981 336.721 328.418C337.901 327.855 339.216 327.688 340.488 327.939H340.521C346.924 329.154 353.417 329.763 359.923 329.761C363.462 329.761 366.933 329.562 370.407 329.231C371.584 329.098 372.773 329.323 373.834 329.881C374.895 330.438 375.784 331.305 376.396 332.379L389.038 354.618C389.868 356.083 391.187 357.165 392.735 357.65C394.282 358.135 395.944 357.987 397.393 357.236L421.622 344.609C422.284 344.249 422.886 343.779 423.405 343.216C424.208 342.31 424.761 341.189 425.004 339.973C425.247 338.758 425.171 337.495 424.783 336.323L418.462 317.996C418.095 316.895 418.002 315.713 418.193 314.564C418.384 313.414 418.852 312.336 419.551 311.434C419.936 310.956 420.378 310.532 420.865 310.174C433.061 301.556 443.509 290.446 451.598 277.496C452.265 276.424 453.213 275.584 454.326 275.077C455.439 274.571 456.667 274.422 457.86 274.647C458.211 274.712 458.556 274.809 458.891 274.936L479.641 282.924C481.098 283.481 482.697 283.451 484.134 282.84C485.571 282.228 486.745 281.078 487.433 279.609L487.705 279.012L499.376 253.893C500.074 252.365 500.207 250.616 499.749 248.989C499.291 247.362 498.275 245.976 496.901 245.102ZM302.979 195.556C304.227 190.886 305.882 186.35 307.923 182.006C312.007 173.357 322.039 162.649 330.246 158.365C331.123 157.901 332 157.471 332.874 157.042C386.504 131.522 438.245 187.313 412.238 244.137C408.827 251.56 401.286 260.281 393.93 265.678C392.337 266.847 390.663 267.888 388.924 268.795C381.443 272.638 373.997 274.892 366.737 275.754C325.344 280.632 291.292 240.363 302.979 195.556Z" fill="#312A52"/>
<path d="M499.351 332.811L493.868 329.314C493.645 329.169 493.465 328.962 493.346 328.715C493.227 328.469 493.175 328.192 493.196 327.916C493.252 327.197 493.28 326.473 493.28 325.742C493.285 324.407 493.189 323.074 492.994 321.755C492.948 321.461 492.987 321.159 493.106 320.889C493.224 320.618 493.417 320.392 493.658 320.239L499.375 316.577C499.672 316.389 499.891 316.088 499.988 315.736C500.085 315.384 500.053 315.006 499.898 314.677L497.203 308.862C497.055 308.546 496.802 308.298 496.493 308.166C496.184 308.034 495.84 308.026 495.526 308.145L489.735 310.37C489.459 310.48 489.157 310.492 488.873 310.405C488.59 310.317 488.341 310.134 488.165 309.883C486.563 307.693 484.644 305.785 482.478 304.232C482.223 304.045 482.033 303.774 481.939 303.462C481.844 303.149 481.85 302.812 481.955 302.503L483.24 298.775C483.356 298.429 483.35 298.051 483.221 297.71C483.093 297.369 482.852 297.09 482.543 296.924L477.098 294.099C476.99 294.04 476.875 293.998 476.755 293.975C476.476 293.913 476.186 293.945 475.925 294.067C475.664 294.189 475.446 294.395 475.302 294.655L472.83 298.98L472.231 300.038C471.087 299.865 469.934 299.778 468.779 299.778C467.237 299.777 465.699 299.929 464.183 300.231C463.908 300.288 463.623 300.254 463.367 300.134C463.11 300.013 462.895 299.811 462.751 299.556L459.972 294.655C459.79 294.332 459.5 294.093 459.16 293.986C458.819 293.88 458.453 293.912 458.134 294.079L453.936 296.258L452.736 296.889C452.418 297.053 452.169 297.335 452.036 297.682C451.904 298.028 451.897 298.415 452.017 298.766L453.77 303.892C453.874 304.178 453.89 304.491 453.814 304.786C453.739 305.082 453.577 305.344 453.351 305.535C451.99 306.708 450.751 308.033 449.657 309.485C449.559 309.6 449.469 309.722 449.385 309.848C449.356 309.891 449.323 309.931 449.287 309.967C449.098 310.179 448.854 310.327 448.585 310.393C448.317 310.458 448.036 310.438 447.779 310.336L442.062 308.139C441.998 308.112 441.933 308.092 441.866 308.078C441.561 308.015 441.246 308.058 440.967 308.203C440.688 308.347 440.462 308.584 440.322 308.877L437.654 314.643C437.5 314.98 437.471 315.366 437.571 315.725C437.672 316.084 437.896 316.39 438.199 316.583L443.916 320.227C444.153 320.376 444.343 320.598 444.458 320.864C444.574 321.13 444.611 321.426 444.563 321.715C444.373 323.042 444.277 324.383 444.277 325.725C444.277 326.448 444.306 327.165 444.362 327.876C444.383 328.158 444.33 328.441 444.208 328.694C444.086 328.946 443.9 329.157 443.67 329.303L438.166 332.826C437.87 333.012 437.651 333.31 437.554 333.66C437.457 334.009 437.489 334.385 437.643 334.711L440.317 340.457C440.473 340.795 440.741 341.06 441.07 341.201C441.399 341.342 441.766 341.349 442.1 341.221L446.681 339.46C446.978 339.345 447.303 339.34 447.603 339.445C447.903 339.549 448.162 339.758 448.337 340.036C449.742 342.288 451.469 344.296 453.455 345.989C453.687 346.183 453.856 346.45 453.936 346.751C454.016 347.053 454.004 347.374 453.901 347.667L452.031 353.128C451.91 353.481 451.917 353.87 452.05 354.218C452.182 354.567 452.431 354.852 452.749 355.019L458.162 357.839C458.475 358 458.835 358.031 459.169 357.924C459.503 357.817 459.787 357.581 459.964 357.262L460.111 357.011L462.983 351.972C463.131 351.71 463.352 351.502 463.615 351.377C463.879 351.251 464.172 351.215 464.456 351.271C465.884 351.542 467.333 351.678 468.784 351.678C469.574 351.678 470.35 351.631 471.125 351.559C471.388 351.53 471.653 351.58 471.889 351.705C472.126 351.83 472.323 352.023 472.459 352.263L475.28 357.224C475.467 357.55 475.761 357.789 476.106 357.896C476.452 358.003 476.822 357.969 477.144 357.801L482.551 354.981C482.699 354.902 482.833 354.797 482.949 354.67C483.128 354.468 483.252 354.219 483.306 353.948C483.36 353.676 483.343 353.395 483.256 353.134L481.838 349.077C481.733 348.764 481.73 348.422 481.828 348.106C481.927 347.791 482.122 347.519 482.382 347.333C485.105 345.409 487.437 342.929 489.243 340.039C489.391 339.8 489.603 339.612 489.851 339.499C490.099 339.386 490.373 339.352 490.639 339.402C490.717 339.417 490.794 339.439 490.868 339.468L495.496 341.253C495.821 341.377 496.178 341.37 496.498 341.233C496.818 341.097 497.08 340.84 497.233 340.512L497.295 340.379L499.901 334.772C500.056 334.431 500.086 334.041 499.984 333.679C499.882 333.316 499.656 333.007 499.351 332.811ZM456.065 321.755C456.343 320.713 456.712 319.7 457.168 318.731C458.077 316.799 460.318 314.406 462.147 313.455C462.343 313.351 462.539 313.256 462.735 313.167C474.714 307.47 486.251 319.919 480.447 332.604C479.687 334.262 477.997 336.205 476.363 337.413C476.008 337.673 475.635 337.905 475.247 338.107C473.691 338.916 472.017 339.437 470.295 339.65C461.061 340.742 453.463 331.753 456.068 321.755H456.065Z" fill="#B1C9F6"/>
<path d="M291.153 61.1769L282.442 56.9014C282.088 56.723 281.788 56.4449 281.573 56.0975C281.359 55.7502 281.24 55.347 281.228 54.9323C281.202 53.8541 281.134 52.7701 281.023 51.6803C280.825 49.6902 280.478 47.7197 279.986 45.7875C279.873 45.357 279.885 44.9004 280.021 44.4772C280.156 44.0541 280.409 43.6839 280.746 43.4148L288.72 36.98C289.135 36.649 289.416 36.1637 289.507 35.6219C289.598 35.08 289.492 34.5218 289.21 34.0596L284.309 25.8575C284.041 25.411 283.627 25.0847 283.146 24.9406C282.665 24.7965 282.151 24.8448 281.701 25.0762L273.414 29.3834C273.019 29.5943 272.57 29.6637 272.135 29.581C271.699 29.4984 271.301 29.2681 271 28.925C268.28 25.935 265.129 23.4214 261.665 21.4782C261.257 21.2422 260.933 20.8702 260.745 20.4199C260.556 19.9697 260.513 19.4662 260.622 18.9873L261.967 13.2214C262.087 12.6865 262.019 12.1235 261.776 11.638C261.532 11.1524 261.13 10.7775 260.644 10.5834L252.088 7.30836C251.917 7.23901 251.738 7.19536 251.557 7.17864C251.132 7.13485 250.704 7.23308 250.335 7.45955C249.965 7.68602 249.672 8.02935 249.496 8.44137L246.479 15.3144L245.744 16.9923C244.018 16.9319 242.289 17.0003 240.572 17.197C238.274 17.4584 236.005 17.9468 233.793 18.6558C233.392 18.7884 232.962 18.7868 232.561 18.6511C232.161 18.5154 231.81 18.2523 231.556 17.8976L226.669 11.088C226.347 10.6404 225.878 10.3371 225.356 10.2384C224.833 10.1396 224.294 10.2524 223.846 10.5546L217.925 14.5245L216.229 15.6777C215.781 15.9763 215.453 16.4397 215.308 16.9788C215.163 17.5179 215.212 18.0946 215.445 18.5981L218.839 25.9353C219.036 26.3435 219.106 26.8072 219.039 27.2599C218.971 27.7126 218.77 28.131 218.464 28.455C216.615 30.4356 214.973 32.6199 213.563 34.9706C213.427 35.1666 213.318 35.3569 213.204 35.5472C213.168 35.616 213.125 35.6807 213.076 35.7403C212.828 36.0866 212.489 36.3479 212.102 36.492C211.715 36.636 211.296 36.6563 210.898 36.5504L202.04 34.2441C201.942 34.2149 201.842 34.1965 201.74 34.1893C201.278 34.1452 200.816 34.2622 200.423 34.5224C200.029 34.7827 199.727 35.1719 199.562 35.6308L196.464 44.6632C196.284 45.1887 196.295 45.7668 196.497 46.2837C196.698 46.8007 197.075 47.2191 197.553 47.4568L206.608 51.9283C206.984 52.1106 207.3 52.4091 207.513 52.7847C207.726 53.1603 207.827 53.5953 207.803 54.0328C207.719 56.0424 207.78 58.0557 207.985 60.0554C208.096 61.1375 208.248 62.2023 208.44 63.2497C208.514 63.667 208.477 64.098 208.333 64.4943C208.189 64.8905 207.943 65.2362 207.623 65.4927L199.96 71.6796C199.55 72.01 199.272 72.4909 199.18 73.0278C199.088 73.5646 199.19 74.1183 199.464 74.5799L204.329 82.6868C204.612 83.1629 205.052 83.5112 205.563 83.6645C206.074 83.8178 206.621 83.7653 207.098 83.5171L213.686 80.1181C214.111 79.8972 214.594 79.834 215.057 79.9386C215.52 80.0431 215.936 80.3094 216.239 80.6947C218.678 83.8119 221.558 86.5097 224.777 88.692C225.152 88.9415 225.444 89.3105 225.609 89.746C225.774 90.1816 225.805 90.6614 225.697 91.1166L223.742 99.5695C223.619 100.118 223.689 100.695 223.94 101.192C224.19 101.689 224.604 102.072 225.103 102.268L233.6 105.54C234.091 105.729 234.631 105.715 235.113 105.501C235.594 105.287 235.982 104.89 236.2 104.387L236.379 103.986L239.889 95.9889C240.07 95.5728 240.367 95.2256 240.741 94.9937C241.114 94.7618 241.545 94.6563 241.977 94.6915C244.147 94.8503 246.326 94.805 248.489 94.556C249.665 94.4205 250.813 94.2216 251.957 93.9794C252.344 93.8906 252.746 93.9204 253.118 94.0654C253.489 94.2105 253.813 94.4647 254.053 94.7982L259.013 101.717C259.339 102.173 259.815 102.483 260.346 102.586C260.877 102.688 261.426 102.576 261.883 102.271L269.505 97.145C269.712 96.9998 269.896 96.8207 270.05 96.6145C270.286 96.283 270.432 95.8891 270.471 95.4757C270.511 95.0623 270.442 94.6454 270.273 94.2706L267.55 88.4182C267.391 88.0658 267.32 87.6759 267.345 87.2861C267.369 86.8962 267.488 86.5196 267.689 86.1925C267.802 86.0196 267.934 85.8626 268.084 85.7255C271.846 82.394 274.942 78.3009 277.19 73.6861C277.376 73.3048 277.662 72.9892 278.015 72.7782C278.368 72.5671 278.771 72.4699 279.175 72.4983C279.294 72.5075 279.413 72.5277 279.529 72.5589L286.7 74.4213C287.203 74.5514 287.734 74.4808 288.191 74.2229C288.649 73.9651 289.001 73.538 289.18 73.023L289.253 72.8126L292.278 64.0137C292.46 63.4777 292.446 62.8885 292.238 62.3631C292.03 61.8376 291.643 61.4142 291.153 61.1769ZM224.976 52.1041C225.233 50.5034 225.629 48.9313 226.16 47.4078C227.219 44.3777 230.194 40.4338 232.775 38.6983C233.047 38.5109 233.32 38.335 233.592 38.1591C250.56 27.6247 269.66 44.1961 262.95 64.0916C262.068 66.6863 259.857 69.8748 257.595 71.9535C257.104 72.4019 256.583 72.8115 256.035 73.1787C253.843 74.6596 251.428 75.7321 248.894 76.35C235.312 79.5415 222.621 67.4502 224.976 52.1041Z" fill="#B1C9F6"/>
<path d="M344.043 320.7C344.276 320.971 344.431 321.307 344.488 321.669C344.545 322.031 344.502 322.402 344.364 322.738C343.902 324.096 342.369 325.621 340.588 327.126C340.363 327.319 340.158 327.498 339.984 327.66L339.848 327.789L339.742 327.89C338.081 329.51 338.707 329.882 335.724 333.169C332.323 336.917 329.982 336.983 329.318 336.643C328.754 336.355 329.898 334.365 331.166 332.131C331.229 332.024 331.289 331.915 331.352 331.805C331.52 331.517 331.689 331.208 331.855 330.909C333.342 328.222 332.96 326.959 332.609 322.96C332.337 319.708 327.832 304.797 327.832 304.797L334.349 303.61C334.349 303.61 336.312 315.482 338.473 317.31C339.63 318.284 340.923 318.298 342.037 319.019L342.265 319.175C342.92 319.596 343.518 320.109 344.043 320.7Z" fill="#FF9792"/>
<path d="M344.043 320.7C344.276 320.971 344.431 321.307 344.488 321.669C344.545 322.031 344.502 322.402 344.364 322.738C343.798 324.093 342.304 325.604 340.583 327.112C340.357 327.311 340.158 327.492 339.984 327.66L339.848 327.789L339.742 327.89C338.081 329.51 338.707 329.882 335.724 333.169C332.323 336.917 329.982 336.983 329.318 336.643C328.754 336.355 329.898 334.365 331.167 332.131C333.546 331.147 335.637 329.515 337.229 327.4C339.276 324.635 340.64 321.078 342.037 319.019L342.266 319.175C342.92 319.596 343.518 320.109 344.043 320.7Z" fill="#7F22BA"/>
<path d="M291.499 316.39C291.097 318.52 288.233 318.166 285.028 317.336C281.824 316.505 282.578 317.494 278.026 316.958C273.475 316.422 272.086 314.623 271.947 313.905C271.822 313.271 274.076 313.04 276.491 312.752C276.796 312.717 277.101 312.677 277.406 312.636C280.128 312.273 282.132 310.411 284.609 308.888C286.956 307.447 290.459 301.528 290.459 301.528L296.721 302.053C296.721 302.053 293.454 307.332 292.169 309.626C291.423 310.976 291.464 312.76 291.557 314.138C291.633 314.888 291.614 315.646 291.499 316.39Z" fill="#FF9792"/>
<path d="M285.028 317.336C281.824 316.508 282.578 317.494 278.026 316.958C273.475 316.422 272.086 314.623 271.947 313.905C271.822 313.271 274.076 313.04 276.491 312.752L276.513 312.801C278.468 314.128 280.725 314.872 283.046 314.951C286.139 315.029 289.414 314.086 291.551 314.13C291.631 314.883 291.615 315.644 291.502 316.393C291.096 318.52 288.23 318.166 285.028 317.336Z" fill="#7F22BA"/>
<path d="M305.413 219.141C305.413 219.141 303.921 215.275 302.283 215.105C300.644 214.935 295.43 214.079 295.06 214.869C294.69 215.659 295.06 218.495 296.176 219.522C297.292 220.548 304.221 222.203 304.221 222.203L305.413 219.141Z" fill="#FF9792"/>
<path d="M315.461 274.053L328.934 312.455C330.298 312.563 331.668 312.43 332.991 312.063C334.817 311.506 336.908 310.045 336.908 310.045C336.908 310.045 333.568 273.171 327.437 265.502C321.306 257.834 315.461 274.053 315.461 274.053Z" fill="#7F22BA"/>
<path d="M368.757 258.517C368.757 258.517 330.037 244.653 321.402 247.602C312.766 250.551 286.841 305.178 286.841 305.178C286.841 305.178 287.424 306.003 289.019 306.637C290.506 307.228 294.102 307.19 294.102 307.19C294.102 307.19 317.514 285.951 320.285 279.756C323.057 273.56 324.187 267.662 326.971 268.253C329.756 268.844 362.907 282.705 370.426 274.445C377.945 266.186 375.979 255.455 375.979 255.455L368.757 258.517Z" fill="#641882"/>
<path d="M345.097 194.019C344.479 192.667 343.787 190.271 343.447 185.984C343.499 186.408 344.196 191.808 346.169 194.864C354.222 200.462 369.658 219.156 369.35 222.699C369.35 222.699 374.795 212.934 374.882 212.876C374.882 212.876 384.911 199.37 373.025 191.635C366.984 187.705 367.014 182.657 367.267 178.275C367.521 173.893 365.618 155.021 353.52 159.959C353.52 159.959 351.576 159.045 350.707 159.184C351.101 159.265 351.47 159.45 351.777 159.723C350.375 159.634 348.369 159.743 346.697 160.752C342.246 163.422 338.277 187.371 345.097 194.019Z" fill="#6615B2"/>
<path d="M346.632 195.143C346.594 195.161 350.522 197.323 353.476 196.467C356.256 195.662 358.071 191.854 358.033 191.854C356.857 191.606 356.517 189.893 356.541 182.53L356.011 182.643L347.062 184.519C347.062 184.519 347.266 187.5 347.272 190.308C347.277 192.652 347.144 194.89 346.632 195.143Z" fill="#FF9792"/>
<path d="M347.062 184.505C347.062 184.505 347.267 187.486 347.272 190.294C352.279 190.144 354.925 185.309 356.011 182.628L347.062 184.505Z" fill="#7E52A9"/>
<path d="M356.934 181.596C356.934 181.596 359.558 177.205 360.201 173.452C360.65 170.771 359.362 160.839 349.935 162.269C348.036 162.548 346.221 163.275 344.623 164.396C342.576 165.858 339.622 169.009 342.925 177.687L343.782 180.616L356.934 181.596Z" fill="#6615B2"/>
<path d="M345.391 187.163C345.391 187.163 357.236 187.371 357.244 179.558C357.252 171.745 358.787 166.507 351.225 166.045C343.662 165.584 342.189 168.562 341.587 171.168C340.986 173.775 342.309 186.909 345.391 187.163Z" fill="#FF9792"/>
<path d="M345.829 165.852C345.829 165.852 349.071 175.02 354.051 176.375C359.03 177.73 361.186 176.32 361.186 176.32C358.731 174.035 357.102 170.918 356.577 167.501C356.577 167.501 348.277 161.482 345.829 165.852Z" fill="#6615B2"/>
<path d="M346.633 166.596C346.633 166.596 344.212 168.643 343.622 170.632C343.031 172.621 342.764 176.718 341.637 176.577C341.637 176.577 339.187 170.347 341.939 166.821C344.852 163.087 346.633 166.596 346.633 166.596Z" fill="#6615B2"/>
<path d="M373.012 228.891C374.18 223.702 370.206 213.635 366.057 205.3C362.292 197.747 358.385 191.617 358.034 191.839C348.105 198.078 347.21 192.889 347.21 192.889C347.21 192.889 338.191 194.157 335.637 198.813C332.098 205.251 328.259 224.567 324.475 224.282C322.741 224.152 305.285 217.204 305.285 217.204C305.285 217.204 302.378 220.087 302.933 223.627C302.933 223.627 311.552 229.739 318.843 233.64C322.698 235.704 326.193 237.145 327.827 236.739C331.148 235.909 336.334 227.758 339.138 222.958L339.157 222.927C342.734 244.37 337.869 249.251 340.33 251.514C342.93 253.901 346.646 250.375 354.816 254.126C360.176 256.588 367.611 260.149 372.62 260.757C375.247 261.083 377.207 260.598 377.844 258.722C379.696 253.276 370.783 238.78 373.012 228.891Z" fill="#CBA0F5"/>
<path d="M348.024 182.426C348.024 182.426 347.803 183.421 345.473 183.265C345.473 183.265 343.513 183.139 343.567 182.049C343.572 182.049 345.473 181.27 348.024 182.426Z" fill="white"/>
<path d="M377.844 258.733C377.207 260.61 375.247 261.094 372.62 260.769C369.154 259.168 354.184 253.028 354.353 248.865C354.601 242.704 357.231 242.522 355.374 234.902C353.882 228.796 367.714 217.443 369.922 214.972C374.071 223.307 374.185 223.702 373.017 228.891C370.782 238.78 379.695 253.276 377.844 258.733Z" fill="#BA68C8"/>
<path d="M339.132 222.958C336.328 227.758 331.142 235.909 327.821 236.739C326.187 237.145 322.7 235.704 318.837 233.64C321.649 234.409 324.382 234.386 327.039 234.115C329.917 233.827 330.753 230.079 335.302 224.478C338.261 220.845 338.988 221.759 339.132 222.958Z" fill="#CBA0F5"/>
<path d="M353 234.755C353 234.755 350.493 232.691 348.127 233.181C345.761 233.671 344.588 235.395 344.689 236.18C344.789 236.964 346.036 239.181 347.847 239.377C349.657 239.573 354.81 238.198 354.81 238.198L353 234.755Z" fill="#FF9792"/>
<path d="M358.034 191.839C358.034 191.839 367.687 192.468 371.03 197.403C375.734 204.354 383.907 232.723 381.677 239.207L352.303 239.077C352.303 239.077 351.592 235.551 352.575 233.847C353.558 232.143 369.661 229.39 370.404 228.603C371.147 227.816 361.118 213.263 361.118 210.904C361.118 208.546 358.034 191.839 358.034 191.839Z" fill="#CBA0F5"/>
<path d="M344.013 224.971H308.508L314.919 248.646H350.479L344.013 224.971Z" fill="#B1C9F6"/>
<path d="M361.532 247.723H315.042V248.646H361.532V247.723Z" fill="#312A52"/>
<path d="M329.057 236.422C328.932 236.004 328.69 235.636 328.363 235.367C328.037 235.099 327.64 234.942 327.227 234.917C326.44 234.917 325.986 235.591 326.212 236.422C326.336 236.84 326.578 237.208 326.904 237.478C327.231 237.747 327.628 237.905 328.041 237.93C328.842 237.93 329.283 237.255 329.057 236.422Z" fill="#312A52"/>
<path d="M153.138 288.151H209.15C210.093 288.151 210.998 288.548 211.664 289.254C212.331 289.96 212.706 290.918 212.706 291.916V301.949C212.706 302.948 212.331 303.905 211.664 304.611C210.998 305.318 210.093 305.714 209.15 305.714H153.138C152.195 305.714 151.291 305.318 150.624 304.611C149.957 303.905 149.583 302.948 149.583 301.949V291.916C149.583 290.918 149.958 289.961 150.625 289.255C151.291 288.549 152.195 288.152 153.138 288.151Z" fill="#BA68C8"/>
<path d="M212.709 300.124V301.949C212.706 302.947 212.33 303.904 211.663 304.61C210.997 305.316 210.093 305.714 209.15 305.717H153.138C152.195 305.714 151.292 305.316 150.626 304.61C149.96 303.904 149.585 302.947 149.583 301.949V299.974H211.688C212.033 299.974 212.377 300.024 212.709 300.124Z" fill="#BA68C8"/>
<path d="M163.067 305.717L160.54 315.845L150.029 357.997H148.924L155 323.027C155 322.992 155.014 322.957 155.019 322.92L158.014 305.622L163.067 305.717Z" fill="#BA68C8"/>
<path d="M163.066 305.717L160.54 315.845C160.396 315.92 155.798 318.44 155.019 322.92L158.014 305.622L163.066 305.717Z" fill="#CBA0F5"/>
<path d="M212.709 358H211.603L203.036 323.664L201.09 315.857L198.566 305.729L203.613 305.631L205.334 315.522L206.608 322.929C206.608 322.966 206.624 323.001 206.63 323.035L212.709 358Z" fill="#BA68C8"/>
<path d="M195.635 318.98C195.635 318.98 195.635 318.98 195.618 318.98C195.601 318.98 195.598 318.931 195.635 318.98Z" fill="#6615B2"/>
<path d="M205.326 315.516C204.395 316.958 203.112 319.645 203.036 323.655L201.09 315.848L198.566 305.72L203.613 305.631L205.326 315.516Z" fill="#CBA0F5"/>
<path d="M141.898 90.6063C143.199 89.1648 144.076 89.7097 144.076 89.7097C144.076 89.7097 159.446 102.207 160.913 103.118C162.381 104.029 182.374 104.641 182.374 104.641C182.374 104.641 190.383 104.543 192.324 108.899C194.015 112.681 192.822 115.939 191.08 118.332C190.059 119.723 188.667 120.756 187.084 121.296C185.501 121.837 183.801 121.859 182.205 121.362C174.876 119.099 160.298 114.475 157.57 112.713C151.5 108.781 140.537 93.077 140.537 93.077C140.804 92.153 141.27 91.3071 141.898 90.6063Z" fill="#1B2251"/>
<path d="M158.466 78.4517L150.8 73.5506C150.488 73.3487 150.235 73.0591 150.069 72.714C149.903 72.3689 149.831 71.9819 149.861 71.596C149.939 70.5888 149.978 69.574 149.978 68.5515C149.983 66.6828 149.849 64.8165 149.577 62.9701C149.512 62.5581 149.566 62.1349 149.732 61.7559C149.897 61.3768 150.167 61.0595 150.506 60.8453L158.523 55.7223C158.932 55.4563 159.233 55.0378 159.365 54.5491C159.498 54.0604 159.453 53.5368 159.239 53.0814L155.466 44.9428C155.259 44.4999 154.906 44.1528 154.473 43.9674C154.041 43.7819 153.559 43.771 153.119 43.9366L145.015 47.0531C144.628 47.2074 144.204 47.2242 143.807 47.1009C143.41 46.9777 143.062 46.7211 142.815 46.3699C140.573 43.3044 137.886 40.6343 134.855 38.459C134.498 38.1974 134.232 37.8181 134.1 37.3801C133.967 36.942 133.975 36.4699 134.123 36.0373L135.919 30.8191C136.084 30.3348 136.076 29.8034 135.896 29.3253C135.716 28.8471 135.376 28.4555 134.942 28.2244L127.306 24.2689C127.155 24.1857 126.994 24.1264 126.827 24.0931C126.436 24.0063 126.03 24.0515 125.665 24.2222C125.3 24.3928 124.996 24.6805 124.793 25.0445L121.333 31.0987L120.492 32.5806C118.892 32.3384 117.278 32.217 115.662 32.2173C113.504 32.2153 111.35 32.4266 109.229 32.8487C108.844 32.9298 108.444 32.8827 108.085 32.714C107.726 32.5452 107.425 32.263 107.223 31.9059L103.333 25.0618C103.076 24.6121 102.669 24.2807 102.193 24.1329C101.717 23.9851 101.206 24.0316 100.76 24.2632L94.8853 27.3191L93.2029 28.1984C92.7584 28.4288 92.4097 28.8248 92.2238 29.3105C92.0379 29.7962 92.0279 30.3375 92.1956 30.8306L94.6457 38.0063C94.7926 38.4067 94.8151 38.8463 94.7098 39.2611C94.6045 39.6759 94.3771 40.0443 94.0605 40.3127C92.1539 41.954 90.4198 43.8079 88.888 45.8423C88.749 46.004 88.6182 46.1734 88.496 46.3497C88.4558 46.4091 88.4102 46.4641 88.3599 46.514C88.0952 46.8114 87.7535 47.0193 87.3777 47.1116C87.0018 47.204 86.6085 47.1766 86.2472 47.033L78.2409 43.9568C78.1523 43.9215 78.0613 43.8936 77.9686 43.8732C77.5425 43.7848 77.1007 43.8462 76.7105 44.0481C76.3203 44.25 76.003 44.5814 75.807 44.9918L72.072 53.0469C71.8552 53.5171 71.8123 54.0563 71.9518 54.5583C72.0914 55.0603 72.4033 55.4889 72.8261 55.7597L80.8352 60.8655C81.1684 61.0737 81.4338 61.3844 81.5962 61.7562C81.7587 62.128 81.8103 62.5433 81.7445 62.947C81.4779 64.8047 81.3442 66.6811 81.3443 68.5602C81.3443 69.575 81.3851 70.5783 81.4613 71.5729C81.4915 71.9681 81.4171 72.3644 81.2464 72.7173C81.0757 73.0702 80.8154 73.3658 80.4949 73.5708L72.7907 78.5007C72.3784 78.7629 72.074 79.1795 71.9379 79.668C71.8017 80.1565 71.8437 80.6814 72.0556 81.1386L75.8015 89.185C76.0192 89.6578 76.3945 90.0284 76.855 90.2254C77.3155 90.4224 77.8286 90.4318 78.2953 90.2517L84.7091 87.7868C85.1239 87.6256 85.5779 87.6168 85.998 87.7616C86.4181 87.9064 86.7802 88.1965 87.0259 88.5854C88.9942 91.7392 91.4121 94.5508 94.1938 96.9201C94.5187 97.1918 94.7541 97.5655 94.8661 97.9876C94.9781 98.4097 94.9609 98.8585 94.8172 99.2697L92.1984 106.912C92.0304 107.408 92.0402 107.952 92.2259 108.44C92.4116 108.929 92.7602 109.328 93.2056 109.562L100.782 113.509C101.219 113.737 101.721 113.783 102.189 113.637C102.656 113.491 103.055 113.164 103.306 112.722L103.51 112.37L107.528 105.318C107.737 104.951 108.046 104.661 108.415 104.485C108.783 104.31 109.194 104.257 109.591 104.335C111.592 104.717 113.621 104.909 115.654 104.912C116.759 104.912 117.832 104.851 118.921 104.747C119.288 104.706 119.659 104.777 119.99 104.951C120.321 105.125 120.598 105.396 120.788 105.73L124.739 112.678C124.998 113.136 125.41 113.474 125.894 113.626C126.377 113.777 126.896 113.731 127.349 113.497L134.918 109.55C135.121 109.438 135.305 109.291 135.462 109.115C135.714 108.833 135.887 108.482 135.963 108.102C136.039 107.722 136.014 107.328 135.892 106.961L133.954 101.227C133.84 100.883 133.811 100.514 133.871 100.155C133.931 99.7956 134.078 99.459 134.297 99.1774C134.417 99.0278 134.555 98.8959 134.708 98.7854C138.518 96.0921 141.781 92.6204 144.307 88.5738C144.516 88.2399 144.813 87.9779 145.16 87.8196C145.508 87.6614 145.892 87.6139 146.264 87.683C146.374 87.7039 146.482 87.7358 146.586 87.7781L153.07 90.2719C153.525 90.4469 154.025 90.4381 154.474 90.2471C154.923 90.0562 155.29 89.6965 155.504 89.2369L155.591 89.0495L159.239 81.202C159.458 80.7242 159.5 80.1768 159.357 79.6678C159.214 79.1587 158.896 78.7248 158.466 78.4517ZM97.8744 62.973C98.263 61.5133 98.7798 60.0955 99.418 58.7379C100.689 56.0336 103.828 52.6836 106.39 51.3545C106.662 51.2104 106.934 51.0662 107.207 50.9394C123.971 42.991 140.134 60.4042 132.016 78.1634C130.951 80.4842 128.594 83.2057 126.299 84.8951C125.802 85.2602 125.279 85.585 124.736 85.8667C122.559 87.0058 120.214 87.7411 117.802 88.0405C104.865 89.5598 94.2265 76.9814 97.8744 62.9816V62.973Z" fill="#A961EF"/>
<path d="M124.907 94.7002C124.907 94.7002 124.929 88.6892 124.033 86.9421C123.138 85.195 121.082 83.0068 119.914 83.7074C118.746 84.4079 118.384 90.2633 118.744 91.3127C119.103 92.3621 121.76 96.2973 121.76 96.2973L124.907 94.7002Z" fill="#FF9792"/>
<path d="M195.275 288.151C196.541 286.998 195.784 280.577 195.784 280.577C195.784 280.577 189.267 275.071 188.368 279.283C187.47 283.495 182.178 285.409 179.164 285.914C177.155 286.26 176.485 287.41 176.265 288.14L195.275 288.151Z" fill="#312A52"/>
<path d="M196.004 280.877C189.972 281.869 187.767 280.347 187.767 280.347C187.843 274.056 186.013 259.878 183.501 243.577C180.201 222.099 175.698 196.965 172.851 181.469C171.217 172.558 170.128 166.835 170.128 166.835L175.059 166.731L199.65 166.215C199.65 166.215 197.809 195.045 198.313 209.27C198.433 212.669 198.689 215.238 199.13 216.382C203.341 227.165 196.004 280.877 196.004 280.877Z" fill="#A043AF"/>
<path d="M198.324 209.27C194.984 215.901 186.618 232.939 183.501 243.577C180.201 222.099 175.699 196.965 172.851 181.469C172.993 175.614 173.654 170.494 175.062 166.731L199.653 166.215C199.653 166.215 197.82 195.037 198.324 209.27Z" fill="#641882"/>
<path d="M174.566 288.151C175.832 286.998 175.072 280.578 175.072 280.578C175.072 280.578 168.558 275.06 167.662 279.283C166.766 283.507 161.471 285.409 158.458 285.914C156.446 286.26 155.779 287.41 155.556 288.14L174.566 288.151Z" fill="#312A52"/>
<path d="M159.451 166.207C159.451 166.207 169.11 260.858 167.196 279.946C167.196 279.946 169.263 281.659 175.363 281.267C175.363 281.267 186.397 226.738 184.061 217.916C182.428 211.778 188.907 168.453 188.907 168.453L159.451 166.207Z" fill="#A043AF"/>
<path d="M183.231 98.5201C183.231 98.5201 170.951 105.018 164.855 102.055C164.855 102.055 167.415 98.5461 170.281 97.0873C170.221 95.9341 170.186 94.8876 170.17 93.9621C170.115 90.886 170.259 89.1533 170.259 89.1533L175.557 85.0825L179.151 82.3149C178.957 83.8889 178.908 85.4791 179.004 87.0632C179.48 94.5387 183.231 98.5201 183.231 98.5201Z" fill="#FF9792"/>
<path d="M179.004 87.0516C179.004 87.0516 176.14 93.1059 170.17 93.9708C170.115 90.8946 170.259 89.162 170.259 89.162L175.557 85.0826C177.871 85.9936 179.004 87.0516 179.004 87.0516Z" fill="#7E52A9"/>
<path d="M168.89 88.7612C168.89 88.7612 179.883 92.907 182.216 85.6159C184.549 78.3248 187.541 73.9514 180.618 70.9963C173.695 68.0412 171.435 70.3303 170.099 72.5618C168.762 74.7932 166.089 87.4927 168.89 88.7612Z" fill="#FF9792"/>
<path d="M200.436 166.207C198.716 170.004 160.614 169.836 158.73 167.158C157.965 166.071 157.097 155.179 156.585 142.514C156.313 135.5 156.144 127.941 156.176 121.203C156.234 110.211 156.813 101.412 158.278 100.734C166.445 96.9864 171.49 94.5964 182.159 94.9423C183.773 94.9901 185.344 95.5052 186.701 96.4318C188.058 97.3583 189.15 98.6608 189.857 100.198C192.422 105.814 196.059 115.766 196.337 127.52C196.767 145.64 202.606 161.424 200.436 166.207Z" fill="#312A52"/>
<path d="M168.495 113.742C168.495 113.742 167.254 132.686 156.576 142.514C156.304 135.5 156.135 127.941 156.168 121.203C159.367 116.686 163.576 113.434 168.495 113.742Z" fill="#1B2251"/>
<path d="M173.755 95.3488C173.755 95.3488 162.049 95.4267 158.36 99.0448C155.725 101.64 138.791 115.766 137.713 115.582C136.635 115.397 125.735 92.3419 125.735 92.3419C125.735 92.3419 120.358 92.8262 119.474 95.2883C119.474 95.2883 124.543 124.066 135.481 130.322C135.481 130.322 163.132 124.767 171.335 115.083C175.551 110.095 173.755 95.3488 173.755 95.3488Z" fill="#312A52"/>
<path d="M169.377 66.8736C169.377 66.8736 170.028 73.8274 171.999 75.7273C173.97 77.6272 173.45 80.2391 173.667 80.6283C173.885 81.0175 175.924 79.8903 176.284 80.5303C177.1 82.0035 175.818 83.076 175.001 83.4306C174.185 83.7852 177.084 89.7587 179.213 89.9779C182.893 90.3584 188.575 79.5818 189.057 76.4278C189.683 72.2965 187.475 65.8559 181.143 66.1731C171.193 66.6603 169.176 64.3741 169.377 66.8736Z" fill="#312A52"/>
<path d="M466.362 36.4207H454.615V113.915H466.362V36.4207Z" fill="#7E52A9"/>
<path d="M486.137 14.8185H474.39V113.912H486.137V14.8185Z" fill="#7E52A9"/>
<path d="M507.134 55.1601H495.387V113.912H507.134V55.1601Z" fill="#7E52A9"/>
<path d="M485.489 0H475.541C475.269 0.000760979 475.007 0.115818 474.814 0.320024C474.622 0.52423 474.513 0.800968 474.512 1.08976C474.513 1.37855 474.622 1.6553 474.814 1.85951C475.007 2.06371 475.269 2.17877 475.541 2.17953H485.489C485.762 2.17877 486.023 2.06371 486.216 1.85951C486.409 1.6553 486.517 1.37855 486.518 1.08976C486.517 0.800968 486.409 0.52423 486.216 0.320024C486.023 0.115818 485.762 0.000760979 485.489 0Z" fill="#7E52A9"/>
<path d="M477.806 6.14651C478.079 6.145 478.34 6.02969 478.532 5.82564C478.725 5.6216 478.834 5.34529 478.835 5.05674C478.835 4.76795 478.726 4.49121 478.533 4.287C478.34 4.0828 478.079 3.96774 477.806 3.96698H475.541C475.269 3.96774 475.007 4.0828 474.814 4.287C474.622 4.49121 474.513 4.76795 474.512 5.05674C474.514 5.34529 474.623 5.6216 474.815 5.82564C475.008 6.02969 475.269 6.145 475.541 6.14651H477.806Z" fill="#7E52A9"/>
<path d="M506.236 43.5936H496.288C496.016 43.5943 495.754 43.7094 495.562 43.9136C495.369 44.1178 495.26 44.3945 495.259 44.6833C495.26 44.9721 495.369 45.2489 495.562 45.4531C495.754 45.6573 496.016 45.7723 496.288 45.7731H506.236C506.509 45.7723 506.77 45.6573 506.963 45.4531C507.156 45.2489 507.264 44.9721 507.265 44.6833C507.264 44.3945 507.156 44.1178 506.963 43.9136C506.77 43.7094 506.509 43.5943 506.236 43.5936Z" fill="#A961EF"/>
<path d="M496.288 49.7401H498.553C498.826 49.7393 499.087 49.6243 499.28 49.4201C499.473 49.2158 499.582 48.9391 499.582 48.6503C499.582 48.3615 499.473 48.0848 499.28 47.8806C499.087 47.6764 498.826 47.5613 498.553 47.5605H496.288C496.016 47.5613 495.754 47.6764 495.562 47.8806C495.369 48.0848 495.26 48.3615 495.259 48.6503C495.26 48.9391 495.369 49.2158 495.562 49.4201C495.754 49.6243 496.016 49.7393 496.288 49.7401Z" fill="#7E52A9"/>
</g>
<defs>
<clipPath id="clip0_127_597">
<rect width="581" height="358" fill="white"/>
</clipPath>
</defs>
</svg>
